<mxfile host="app.diagrams.net" agent="Mozilla/5.0 (Windows NT 10.0; Win64; x64; rv:128.0) Gecko/20100101 Firefox/128.0" version="24.7.6" pages="3">
  <diagram name="Page-1" id="EPxlIR3ST7aknUz2nmFd">
    <mxGraphModel dx="1434" dy="754" grid="1" gridSize="10" guides="1" tooltips="1" connect="1" arrows="1" fold="1" page="1" pageScale="1" pageWidth="827" pageHeight="1169" math="1" shadow="0">
      <root>
        <mxCell id="0" />
        <mxCell id="1" parent="0" />
        <mxCell id="AQZnUlRx57dekcM1xQn4-1" value="" style="shape=image;verticalLabelPosition=bottom;labelBackgroundColor=default;verticalAlign=top;aspect=fixed;imageAspect=0;image=data:image/png,iVBORw0KGgoAAAANSUhEUgAAAfQAAAHiCAYAAAAeWT4MAAAAOXRFWHRTb2Z0d2FyZQBNYXRwbG90bGliIHZlcnNpb24zLjkuMSwgaHR0cHM6Ly9tYXRwbG90bGliLm9yZy/TGe4hAAAACXBIWXMAAA9hAAAPYQGoP6dpAAEAAElEQVR4nOz9eXhkZ3nnjX/OVvumfWltJbX3BS8Y0xCIAScGDEkITCYbOHkHkjhAmEwmL2/mGhImEyDAXCQZEpb5zWQgi8mEhEwSwAFDwIAx2BivbbvtlkpSq1tblaTaq872/P4oneoqtfaqkkry+VyXLrulWo6OTp3v89zL95aEEAIXFxcXFxeXI4182Afg4uLi4uLi0jiuoLu4uLi4uBwDXEF3cXFxcXE5BriC7uLi4uLicgxwBd3FxcXFxeUY4Aq6i4uLi4vLMcAVdBcXFxcXl2OAK+guLi4uLi7HAFfQXVxcXFxcjgGuoLu4uLi4uBwDXEF3cXFxcXE5BriC7uLi4uLicgxwBd3FxcXFxeUY4Aq6i4uLi4vLMcAVdBcXFxcXl2OAK+guLi4uLi7HAFfQXVxcXFxcjgGuoLu4uLi4uBwDXEF3cXFxcXE5BriC7uLi4uLicgxwBd3FxcXFxeUY4Aq6i4uLi4vLMcAVdBcXFxcXl2OAK+guLi4uLi7HAFfQXVxcXFxcjgGuoLu4uLi4uBwDXEF3cXFxcXE5BriC7uLi4uLicgxwBd3FxcXFxeUY4Aq6i4uLi4vLMcAVdBcXFxcXl2OAK+guLi4uLi7HAFfQXVxcXFxcjgGuoLu4uLi4uBwDXEF3cXFxcXE5BriC7uLi4uLicgxwBd3FxcXFxeUY4Aq6i4uLi4vLMcAVdBcXFxcXl2OAK+guLi4uLi7HAFfQXVxcXFxcjgGuoLu4uLi4uBwDXEF3cXFxcXE5BriC7uLi4uLicgxwBd3FxcXFxeUY4Aq6i4uLi4vLMcAVdBcXFxcXl2OAK+guLi4uLi7HAFfQXVxcXFxcjgGuoLu4uLi4uBwDXEF3cXFxcXE5BriC7uLi4uLicgxwBd3FxcXFxeUY4Aq6i4uLi4vLMUA97ANwcXGpRwiBbdtIklT9cnFxcdkJV9BdXNoEIQSmaVIulzEMA6/XiyzLdV+uwLu4uGyFK+guLofMRiEXQqCqKrIsV38GVMXcFXgXF5fNcAXdxeWQ2EzIFUWpE2pHrIUQdc8BV+BdXFzqcQXdxeWA2U7It8IRaVfgXVxctsIVdBeXA2I/Qr4VOwl87c9dgXdxeWHgCrqLS4tpppBvhSvwLi4urqC7uLSIgxDyrdirwCuK4rbJubgccVxBd3FpMocp5Fuxk8BbllX9uSvwLi5HE1fQXVyaRDsK+Va4Au/icvxwBd3FpUGOkpBvxV4EfqvWOhcXl8NFEs4n18XFZU+0Ssgty2JxcRFVVens7CQQCDTpiPdPrcALIaoivtHJDnAF3sXlkHAF3cVlj7RKyG3bZn5+nunpaVRVRdM00uk0Pp+Pzs5OOjs76erqwufzNek32T+uwLu4tB+uoLu47JJWCvnCwgKJRAJVVYnH4/T29uLxeDBNk9XVVVZWVlhZWSGdThMIBOjq6qqKvNfrbdJvuH92K/CuuLu4tA5X0F1cdqDVQj49PY0sy4yNjdHX11fNS2uadslzDMNgdXWVVCrFysoK2WyWUChU3b13dHTg8XgaOq5mUCvwtbgC7+LSOlxBd3HZAiEElmVRKpWaKuRCCBYXF0kkEgBVIa993a0EfSO6rld37ysrK+RyOSKRSHX33tnZiaoefu3rRoF3dvG1FfSuwLu4NIYr6C4uG2i1kE9PT2PbNmNjY/T392/6ursV9I2Uy2VWVlaqO/hisVgV+K6uLmKxmCvwLi7HFFfQXVzWcYS8XC6j6zpAXXFXI6+7vLxMIpHANE3GxsYYGBjYcRjLfgR9I8Visbp7T6VSlMtlYrFYdfcei8VQFKXh92kUV+BdXBrHFXSXFzytFPJkMsnU1BSmaTI6Osrg4OCuXrdZgr7xeByBd3bwhmEQi8WqRXbRaLQt+ued4rraf2/sgXcF3sWlHlfQXV6wtFLIU6kUU1NT6Lpe3ZHvZSfcCkHfiBCCfD5ft4O3bZuOjo5qiD4SibSFaNYKfG0VvSvwLi4XcQXd5QXHVkLeqOuZEIKVlRWmpqYolUqMjY0xODi4r5D2QQj6RoQQ5HK56u59ZWUFgI6OjuoOPhwOt4Vobibw7iQ5lxc6rqC7vGBotZAnEgmKxSKjo6OcOHGiodz0YQj6RoQQZDKZ6u59dXUVWZbrTG6CwWBbiKYr8C4urqC7vADYKORO1XozbvCOkOfzeUZGRhgaGmpKFXk7CPpGbNsmnU5Xd++rq6tomla3gw8EAocumlsV2LkC73LccQXd5djSSiFfXV0lkUiQy+UYHh5meHi46e1g7WAQsx22bbO2tlYN0a+treH1eut28H6//7AP0xV4lxcMrqC7HDtaKeTpdJqpqSkymUxVyFu1k253Qd+IZVlVm9pUKkUmk8Hn89XZ1LabD73zX1fgXY4DrqC7HBtaLeSJRIJ0Os3Q0BAjIyMtD4kfNUHfiOND7+zgM5kMwWCwunvv7Oxsi99xow894Aq8y5HEFXSXI08rhTyTyZBIJFhbW2NoaIjh4eEDE6F2ELtmYhhGXYtcLpcjHA7X+dC3Q92AK/AuRxVX0F2OLK0U8mw2SyKRYGVlpbojP2iBPW6CvhHHh97ZwefzeSKRSHX33tHR0XY2ta7Au7QzrqC7HDlaKeS5XI5EIkEqleLEiROMjIwc2njS4y7oGymVSnU7+FKpRDQarfOhbzeb2lqTG1fgXQ4bV9BdjhTOGNNmC3k+nyeRSJBMJhkcHGR0dPTQ54y/0AR9I8Visc7kxvGhd3bwsVisbWxqnf9uJvC116gr8C6txBV0lyNBK4V8enqa5eVlBgYGGB0dbYtKbHAFvRYhBIVCoS5Eb5rmJTa1rsC7vJBxBd2lrXGE3DAMbNtumpAXCgWmp6dZWlqir6+PsbGxtuiZrsUV9K1xfOhrd/C2bdfNgW8nH3rnv67Au7QSV9Bd2hLTNNF1HV3XmyrkxWKR6elpFhcX6e3tZWxsjEAg0KSjbi6uoO8eIQTZbLbOphaoM7kJhUJtIZiuwLu0ClfQXdqKVgl5qVRienqahYUFenp6iMfjbSvkUKkAl2W5rY+xnbFtu86Hfm1tDUVR6nbw7eRD7/x3o8DXTpNzBd5lJ1xBd2kLaqvWmynk5XKZ6elp5ufn6enpYWxsjGAw2KSjbj66rjM7O8vc3BxCiKrTmlMIdtiFekcVx4e+1qZW07Q6k5t2WTxtJfC1FfROrYAr8C61uILucqi0UshnZma4cOEC3d3djI2NEQqFmnTUzcc0TWZnZzl37hyxWIx4PE4sFqs6raVSKbLZLKFQqE7g26FP+yhiWRZra2vVHXw6ncbr9VbPa1dXV9sUR7oC77JbXEF3ORRaJeS6rjMzM8P58+fp6uoiHo+3tZBblsW5c+eYnZ0lFAoxPj5OLBYDQNO0uvNRa8SSSqUoFotVI5Z26tM+ijg2tU6BXTqdJhAI1O3g2yU6stGL3mGjwLvi/sLDFXSXA6WVQu6Eqjs7O4nH44TD4SYddfOxbZvz588zMzODz+djfHycjo6OuvOwUdA3UtunnUqlMAyjro0rGo26N/V9YhhGnQ+9Ex2pzcG3S9GiK/AuDq6guxwIG4W8WTcZwzCqQu6EqiORSJOOuvnYts3CwgKJRAJVVRkfH6e7u3vT87CToNeysY0rlUoBVMW9q6urbYrAjiJOdMT5cnzoayfJtUv6Y6tpcrUV9K7AH09cQXdpKa0U8nPnznHu3DkikQjj4+NEo9EmHXXzEUKwuLhIIpEAYHx8nN7e3m3Pw14EfbP3y2Qy1fD86upqXRFYu8wqP6qUy+U6kxsn/VFrU+sKvMtB4wq6S0tolZCbplkV8o0553ZECEEymWRqagrTNInH4/T39+/K0awRQd+Ibdusra1VBT6dTuP3++sEvl1CyEeRUqlUFx1xbGqd3Xs71TfUDplx/u0K/PHAFXSXptJKIZ+bm2N2dpZgMFjNObcrQghWVlaYmpqiXC4zNjbG4ODgnqxJmynoGzFNs26Hmc1m2zaEfNQQQlAsFuvOr2EYdT700Wi0LWxqYWuBr+2BdwX+aOAKuktTaJWQW5ZVFXK/379p8Vi7sbq6ytTUFPl8ntHRUYaGhva1O2uloG9ksxByNBqtq6BvFwE6ajj1DbWT5GzbritgDIfDbXN+awW+tk3OFfj2xxV0l4ZopZA7VeB+v594PE5nZ2db30QymQxTU1Ok02lGRkYYHh5uaJd7kIK+EaeCvnaH2dHRURX4dvFJP4oIIcjlcnU+9ED1/HZ2dhIOh9vm/G4m8O6o2PbEFXSXfdFKIb9w4QIzMzN4vV7i8ThdXV1tfbPI5XJMTU2xsrLC0NAQo6OjaJrW8OsepqDX4ghQ7Q5ekqQ6n3S3gn7/OAWMtVX0siy37fl1Bb59cQXdZU+0Ssht2+bChQtMT0/j8XiIx+NbtnO1C4VCgUQiwfLycktmqLeLoG/E8Ul3xN2poK91sHMr6PfPZudXVdVLbGrb4drYqoLeFfjDwRV0l13RSiGfn59nenoaVVWJx+P09PS09Ye/VCqRSCRYXFxs6ejVdhX0jTg2qk6IPpPJ4Pf76wTeraDfP06HQu2gGa/XW7eDb5cFlCvwh4sr6C7b0kohX1hYYHp6GlmWicfjO/ZlHza1/vAHMbHtqAj6Rmpd1lKpFLlcrq5Hu6Ojw62gbwDLsqo2tc4Cyhni44h8O/rQO/91Bb51uILusimtFHLHYEWSJOLxOH19fW39YTYMg5mZmaqt7Pj4+IH4wx9VQd9IbQV9KpWiVCpVe7TdCvrGcXzonRB9JpMhGAzWhejbJUKycdAM4Ap8E3EF3aWOVgl5rVOaEKIq5O18I3dMbGZnZ4lGo4yPjx+orexxEfSNFAqFugp6y7LqKrzdCvrGMAyjrkUul8tVp/Q5O/hmFG02A1fgm4sr6C5Aa4V8aWmJRCKBbduMjY3t2intsKjtfQ8EAodmYtMuu6pWUtvC5Qi8U+Ht5ODbpQDsqFI7pW9lZYV8Pt+2KZCtRsW6Ar87XEF/gWNZFrquUy6Xmy7ky8vLJBIJTNNkbGyMgYGBthby2kp7r9fL+Pj4ofa+vxAEfSO1Fd6OB71TAOYIfLvkh48qpVKpbgdfKpWIRqPV3XtHR0db2dQ6/3UFfmdcQX+B4gi5rutYltVUIU8mkyQSCXRd35fl6UFTW6CnKMq2E9AOkheioG/EKQBzdpfpdJpgMFgNH3d1dbVN+PioUjuGd2VlpepD75zjdqpx2Enga8cxH/bn9zBwBf0FRiuFPJVKkUgkKJfLjI6OMjg42DYr/c2oTQfU5vXb5UZwXHPojeDkhx0Bcirond17O+0ujyJCCAqFQt05Nk2zzqY2Eom4At+muIL+AqGVQr6yskIikaBYLDI6OsqJEyfa+qZaG0UwDKNt0wGuoO+MEz52QvS1u8uurq62GoJyFHF86Gt38LZtV8Pz7VbE+EIXeFfQjzmtFHJnCEmxWGRkZGTfQ0gOio3H7KQD2vGYbdtGURQ3nLwHnClnjrg7Q1BqDVjaySP9KCKEIJvNVhdRq6urAHXnOBQKtc05fqEJvCvoxxTbtqtV680UcqifJuYIebtUyW7F2toaU1NT5HK56uCUdhRyJw3gLDpqJ551dHS4u8094IhP7e5SluW6/LtbQd8Ytm3XnePV1dW6c9zZ2dl2PvTOfzcKfO00uaMq8K6gHzNaKeS1ojg8PNzwNLGDIJvNMjU1xdraWvWY23HX66QuJicnMQyj6pxX67hmGEZdtbe729wbtm2TTqer59OxUK21qHUr6BvDOce1NrWapl3iQ98ubCXwtRX0ziL6KHzWXEE/JrRSyNPpNFNTU2QymbYWxVry+TxTU1OkUilOnDjB6Oho21aNp9NpJicnq/PTnRqE2hy6k8tMJpPV3ZCiKHR2dtLd3d1Wft5HhdoKesdCNRQK1YlPu1/n7Y7j8+8IfDqdri6inPPcTouooy7wrqAfcVop5JlMhkQiwdraGkNDQ4yMjLT9Da5QKDA9Pc3S0hIDAwOMjY01dQJaM3HGrq6urjI8PMzIyEhdxGO7ojhnJ+QIfDqdrg5E6e7udsVoH+i6Xifw+Xy+2p/tVtA3B9M0q4N8nDbEQCBQt4hqp8/rRi96h40C3y7i7gr6EaWVQp7NZkkkEtX53iMjI227u3UolUpMT0+zsLBAb28v8Xi8bXesxWKRRCLB0tISg4ODjI2NbXp+91LlbppmXbV3Lpdz8+8NUiqV6hzsdF2v6892K+gbxxnk41y72Wy2GiVxvtrp3tPuAu8K+hGjlUKey+VIJBJHIkztoOs6MzMznD9/nu7ubuLxOMFg8LAPa1N0XWd6epoLFy7satHRSNtarRilUqlqL7Gbf98fTn92rcA7FfTOOW2n6u6jimNT63zlcjnC4XBdlKSdIk9bTZOrraA/SIF3Bf2I0Gohn56eJplMMjg4yOjoaFuFvTbDMAxmZ2eZm5sjFosxPj5OOBw+7MPaFNM0mZ2d5dy5c3R0dOx6Wluz+tA380tXFKUqRG7+fe/UVtA77VtOTUOtB71LY9RO6ltZWaFYLFZ96B2b2nYqzN1M4GVZxuPxHEg0xxX0NqeVQp7P50kkEiSTSQYGBhgdHW2rApXNcCagnTt3jnA4zPj4ONFo9LAPa1Msy+L8+fNMT08TCoWYmJjY07G2ylhmq/y7U1zn5t/3jm3bdcVfa2trdTPKu7q62n6RfBRwIk/OeS6Xy9XUkmNT2051Dk5xndfrdQX9hUwrhbxQKJBIJFheXqa/v5+xsbG2F3JHHGdmZvD7/UxMTBzKBLTd4HjDJxIJNE1jYmJiX0NeDsopzsm/OwJfKBSIRCJVgW8nL++jwmYzyp0Rpu0YOj6qbLSpNQyDWCxWXUQddp2DK+gvcFop5LXFWH19fYyNjbV9qNW2bebn50kkEng8HsbHx+nq6mrLXKUzYW5qagohBOPj4/T29u77WA/L+nW7/Ht3d7ebK94HtSNMU6lUNXTsCHy77SyPIk5rZ20O3rKsqg+9Y1N7kALvCLrP5zuQz4wr6G1Cq4V8enqaxcVFent7GRsba/v8nhCiusuVZZnx8XF6enraUkgcS9nJyUnK5TLxeLwp3vDt4OXu5t9bQ7FYrBN4wzDadgDKUaX22nUEHqguTjs7O1teHOoK+guMVgp5qVRiZmaG+fl5enp6GBsba9sKcIfaXa5t28Tjcfr7+w9d2LYik8kwOTlJNptldHS0qX727SDoG3FyxY4QOX3EtW5rbih5b2w2AEUI0bb+6EcVIQSZTKZuBy/Lct15brZNrW3bAK6gH3daKeTlcpmZmRkuXLjQ9q1cDs741ampKXRdb9out1U4TnS1vfrNFrJ2FPSNOH3Ebv69eTjCU1tBX2uf6kZFmoNt29Xz7PjQq6p6iU1tI59BV9CPOa0W8tnZWc6fP09XVxfxeHxX7VGHzcrKSnUYSbuPX62tQ2i1E52qqkdODEulUlXcU6kUlmW5vdoNsllUxO/3153XdveLOAps1qng9XrrdvB7XUjZto0kSQdWdOwK+gHRSiGvNVfp7OwkHo+3bU92LY5HfDabbfupbbXnuKenh/Hx8Zbvko6ioNeyU/69u7u77bsr2pHaCnrHXa3WfKWzs7NtP0dHCceHvtamtrYVcTfDfFxBP2a0WsidHXksFiMejxOJRJpw1K2ldgJau3vE15rCxGIxJiYmDizqcdQFfSO1O81kMkkmk6nm37u7u91Wrn2i63rdoql27K5jvnKcrqPDwllIOTv4TCZDMBisW0htjJTYto0sywfmQeAKeouwbRtd1ymXy00X8lqXtGg0Sjweb1tzlVpqjWza3VrWsiwuXLjA9PQ0gUCAiYkJYrHYgR7DcRP0jRiGUVfpXSgU6vzn3fz7/igWi3UC71TQO+c1Eom4aY8m4Fy/zjWcy+WqXgPODt6Zse4K+hGl1ULuuKRFIhHi8fiBi8x+qM07t7uRzUZTmMPsez8KRXHNpFaI3Px7c6itoHcEHqhzsGt2ZfcLlVqvgZWVFfL5POFwmJtvvvnANlyuoDeJVgp5rd1pKBQiHo+3rUtaLeVymenpaebn59u+/10IQTKZZHJyEtu2GR8fp6+v71BvdC80Qa/Fyb87BXZOBXJt/3u7LgrbGdu2L/Gg1zStTuDdCvrm4Bg0DQ4Oujn0o0KrhXxubo7Z2VmCwWBVyNv9Jl9bQNbV1cX4+Hhbt805VfalUomxsTEGBwfbItT7Qhb0jeyUf3cLwfZHbeGXkxf2+/11vgLtmhY7Cti2jaIoB3YOXUHfJ60U8o2+5fF4fF9e4AdNbUqg3SegQb0pzMjICMPDw23VLucK+tbU5t+TyWRdIVh3d/ehe3gfVRxff0fgnfGltR707sJp91iWhaqqrqC3K60W8gsXLjAzM4PX62V8fPxICLllWZw7d47Z2VlCoRDj4+NtnduvLc4bGhpidHS07aqrbdvGtm38fn/b//3bATf/3hpqx5emUilKpVLd8BO3cHF7LMtC07QDu7+4gr5LNgq5JEnVAfaNUivk7T6ApJbaSnC/38/4+HhbpwRKpRKJRILFxcWWm8Lsl1rr20KhUO17dZzX3PDnzmycVb6yslLNE7v598aonW7mLJxqvdHdCvp6XEFvM1op5LZtV4VcVVXGx8fp7u5u+w+EMwFtenoaTdOIx+NtfdyGYTA9Pc358+fp7u5mfHy8LYvznAEvpVKJeDzO0NAQ6XS6GlbOZrN1tqpuf/HusG27zoglnU7XjTJ18+/7Y6Nx0OrqKpIk1fVlv9Ar6G3bRtO0A7u+XEHfglYLuSOIqqoSj8fbdpJYLUIIFhcXSSQSSJJEPB5vaDxoq3G6A2ZnZ4lGo0xMTLRlTj+XyzE5Ocna2hqjo6PVXP7GHHq5XK6KuzPW1Ll5dnd3v+BvnrvFyb8759HNvzeHWm90xzrV4/HUpT5eaJERV9APmVYL+cLCAtPT08iyzNjY2KG3Ru0GJwycSCSwLIuxsTH6+/vb9qZn2zbnz5+vpgImJibass2vNgUwODjI2NhYXUh9u6K4jW1dKysreDweNzy/D5z8ezKZrM7QdhdKjbOxgj6dThMMBuuMV477NWpZFh6PxxX0g6aVQu7M9p6engYgHo8fGSF3WrrK5XJbtXRtRu0MdUVR2jaFYRgGMzMzzM3NbesLv5cqd8uyqmFlNzy/f9z8e+vYzFktEonUWdQet9SHK+gHTKuFfHFxkenpaWzbbvudbS2rq6vVwqx2n4DmmMJMTU1hWVbbzlB32hGnp6cJh8OcPHly2xRAI21rbni+Obj599bhXKPOV7lcJhaLVc/tcUh92LaNx+M5sHvnC1bQhRCUy+WWCbkTojZNsyowR+HidHqzM5lMtTe7nW9YTiFZPp8nl8sxODjIjTfe2PDrlkolNE1rygfRiRxMTU2haRonT56ks7Nzx+c1y8t9s/C8pml0d3e74fk9YhhGnQgVi8VjJ0KHgRDiEg96J/XhLETD4fCRWoQKIRBCuILeSoQQ6LpOqVRqiZA7O0XTNBkbG2NgYOBIfMBzuRxTU1OsrKy0bW92LbUT20ZGRshkMnzyE3+GpsBv/ca7GIvHQVJAVkCSQVZhl3/jRCLB5z73Obq7u/mlX/qlfYudk7I4e/YslmXt2U62VcNZnNxmMpmsC8/XTj07CtdsO1AoFOoE3rZtOjs7qwslNxKyPzYbvSvLcp1FbSAQaOtzK4TAtm28Xq8r6M3mIIQ8kUig63pVyNs1RF1LoVBgamqKZDLJ4OAgo6OjbdebXUvt8VYntkkm53/4z/zpJz+Npvr5D2+4nu7IJm1pkgSSjJCVerHfIPzff3qGz3z5+3T2TfDvf/e/0tnVtefjzGQynD17lnw+z9jYGCdOnNizSB7UtLXNwvMdHR3VHbwrSrujNv+eTCbrfNIde1o3/74/bNuutnA6FfRer7cu9dFu59YV9BbQaiFPpVIkEok6H/CjIOTFYpHp6WkWFxfp6+sjHo+33QeiltpBL9XjlYqo8w8gL/0QyTZYzZaQFYWgvw+pmNv3e5V0k4fOXCDa0cdlkctQrrkZefwqpF38XWsXHMPDw4yOju47ZXEY41Nrd0ZO1bcTnneEyQ3P747aKm/Hf97NvzeH2iLQ2tnktef2sCOMTsjd6/Ue2Of42Aq6I+TlchnTNJsu5CsrKyQSCYrFYtsXjdVSLpeZmZnhwoUL9PT0EI/H29JkxaG2ItwZ9BIijXLhO8grp5GEfclzhBrEyttIltX4+ysn0OcKSMHwtsKu6zqJRIL5+Xn6+/uJx+MNRzraYR56bXjeuXG64fn9UTte082/N5dab/9UKkU+nycajVbD8x0dHQd+f3YFvQm0WshXV1dJJBLk83lGRkYYGho6EqvsjcIYj8cJhUKHfVhbUusPHw6HmZiYIGovol74DnJmasfn294exGq64eMQkkS5OIC1WgSoCPu1L0aOX4mkKHXmNR0dHUxMTDRtslw7CPpGaiuTk8lkXXje9UzfGxvz70KIOhMWN9Wxf0qlUp3Al8vlOovag1g8uYLeAMVikW9961ucOnWq6UIOVIU8l8sxPDzc9tXfDqZpMjs7y7lz54hGo4yPjxOJRA77sLbEscOdnp7G6/UyMR6n255DmX8AubCwp9ey1H7IrDR8TELxU1wKIXTz4jcDIdb6x3hOlwiEQkxMTDR9IE07Cnotbni+eTj599r577X5966urraubWlnhBB1i6eVlZVq8WIrh/e4gt4As7OzjI6Osry8jMfjadofZ21tjUQiQSaTqQr5YedmdoNlWczNzTEzM0MwGKwOTmlXNtrKTsSH6bOmURceRNL3t9MWkoplhZFK+YaPz/L0UJoxgUoEKJ8vABDo6SVw04+gTFyF1OQPbbsL+kacnm03PN84m6U6nPy7cy6PwoaiHdloHrS6uoqiKHUC34w0pCPoPp/vwCItx0bQU6kU3d3dzM3NNWUHmk6nSSQSpNPpIyXkG3e47T6C1SksnJqawjAMJoZ7GRRTqMs/QDJLDb++rYURWQPsS3PteyVndJOZTGFZNoFAAJ/PC1TOqxSKXMyxN0m0jpqgb0TX9aogJZNJDMOoa+lyw/O7pzb/nkwmq2NM3fx742xWQe9MOXREfj/REVfQG6BYLBIIBHj++efp6+vb9+tkMhkSiQRra2sMDQ0xPDx8JMKGjk98IpE4MpPbpqen+cu//EsCgQA/+xOvZlhKoK48iWSbOz95D1jePlhd3ffzTcukkC+gGybCGsVvbp3KkUKRizn2Bm+wR13QaxFCkM/nq73vq6urqKrqhpT3iZt/bx2mabK6ulpdQG3sTujo6NjV5s5e30S4gr4PLMvC6/Xywx/+kHg8vufnZ7NZEolE1VhlZGTkSAh5bagajoZPvDNd7Gtf+xr/8qV/ZqRD4qNvv4mBjtZV25tqH1Jmb6Ju2RaFQgG9rOPz+fAH/EhamOK8H2FuX0HvCPvTeZOpRIJbb72V/v7+Pb3/cRL0jWwWng+Hw9Xe91gsdiS6RtoBIUTdlLPV1dXqoB7ny10s7Z/NuhOcVFJXV9eW16or6A1g2zaxWIyvfvWrXHPNNbt+Xi6XI5FIkEqlOHHiBCMjI0fi4t/oSncU7GWLxSJTU1MsLy9XjFaKy/z5x36XE/3dvPuNE6hK645dyCqWHkTSizs+1hY2xWKRUrGEx+MhEAygyBc/sJanl9KMsfN7CsH/eOARntdl3vQLv8irX/3qPR3zcRb0jei6Xg0n14bnnR28G57fPZv1aIdCobpBPW7+ff+USqW66IhhGHXpj0gkgizL2LaNJEkH6u9xbARdCEF/fz+f+9znuOWWW3Z8fD6fJ5FIHBmHNIeNE9CcHvh2vvHXmsL09vZWet/1ZdSn70EYxUpoOhBC1tdaehy2FkVkSrDFJS+EoFgqUSwWUFWVYCC45Y1PZwhjfudiu0cSszy/tMKpt7ydy1/50j0d7wtJ0GupDc87VclueH7/ODtM53w6+XfnXDoC5LJ3nGvV2cGvrKxU0x8dHR0MDAwQjUYP7HiOlaDH43H+7M/+jFe+8pVbPi6fzzM9Pc3y8jIDAwOMjo62tUNaLWtra0xNTZHL5RgdHWVoaKitw5KGYTA7O8vc3BydnZ2Mj49XcnurZ1Gf+T9gXdzlCs2PLOtItt7SY7K8/bBa38omgHK5RKFQQJZkAsEAHm37dIuQFErZHuxseVfva/uiWJffRui64V0f6wtV0DdSO/HMcVxzwvOHZRpylHHy706rYW3+vbu7u+090tsZJ/3hLKCuvPJKuru7D+z9j42gA1x99dX8l//yX3jta197yc8KhQLT09MsLS3R19fH2NjYpjOo25FMJsPU1FS14n5kZKStQ2a1LXOh9R5tZ5UqJZ9GPfP3YF+agxaBLhRjqeXHZ8q9SLk1BGDoOvlCHiEEwUAQj9fLbm9lQg1RuOABa3cfId0zCJe9mPANI7t6vCvom1Mbnk+lUui67obn94mbf28dtm0jy/KBnr9jJeg333wz73nPe3jTm95U/V6tZ7kT7j0qQl6b3z8KhXq2bTM/P8/09DQej+eSljl58TGU5/8JNrFrrRLqRi4vtvQ4heyhlFcorq1gWhaBgL9SuLJrKb+I6emjPLP7qEKmPIrvxusJ3zi67eN0XWd1dZWOjg63Ynkb3PB8c9ks/x4Oh+sqvNt5M9FO2LaNoigHes8+VoL+ile8gl/4hV/gF37hFyiVSkxPT7OwsHAkPMtrKRQKJBKJalpgbGysrW9KQgiWlpaYmppCkiTGx8fp6empEyH5wvdRpv5ly/x1FUkGvx/ZyLTkWC3LIl8okNM1QkIl4Pc3LJa6fQJjsbC7B6selub6if7odURefGk3hmN5OzMzQyAQIJ/P4/F46maXHwU/hMPCDc83Fyca4ny5+ffd4wp6g9xxxx3cfPPNpNNp7rjjDnp7exkbG2uat3arqV2EHIW0QG2Bnq7rW1bay+e+hTL9r7t/YS2IJBWQRPP60W3bplAoUiqX8Hm9+AMB8A9ekk/fD0JWKaW7sHO726nb3g4Wng7S9drribxkvPIaQrCwsMDU1BQej4eTJ0/S09NTnR/gVH87QyccgY9Go+7ufRs2C8/XjoZ1w/O7RwhBsVisi4YIIerC827+/SKuoDfA/Pw8L3vZyzh37hy33XYbn/zkJ/fc93tY6LrO9PQ0Fy5coLu7m3g83vaLkHQ6zeTkJLlcrjrve7Odj5L4KvLcd/f8+iLQjWI0Hnq3129CpWIRzeMhEAigrh+nQMKWuyHX+BAXW4tQnFPB3t3HqaSeYOVZic4fvxbrik7Onj2LaZpMTEzQ29uLJEmb5tBLpVJV3FOpFEA1vNzd3X1kCjwPAzc831yc/Hut/7wzo9yZ//5CPp+WZaGqqivoe2FxcZEPf/jDfOpTn6Krq4vbb7+d//7f//thH9auqK0C7+joIB6PEw6HD/uwtiWXyzE1NcXq6mo1r79pCFgIlMkvIc//YP9vFupCLu+vSE5QEb9CoYCiKASDQbRNcn9C8WKVPEjG7qrVt8PU+inP7v51ltODJM9mKVwVY+iOGxkaGqoT8J2K4oQQpNPpqsCn02mCwWBV3N3w8vbYtl31S68Nz9f6pbvnb/fslH/v7Ox8QZ1Py7LQNO1AU2RHXtBf9rKX0dPTw/vf/34+8YlPEIlEeP/733/Yh7UtzsjNc+fOEQ6HGR8fP9Bexf1QLBZJJBIsLS3t3LdvWyjP/V/k5Scbe1NZBa+GbOZ2/RQB6OUy+UIBCQgEg5VhPds8x/Z0ItZ2/x7bUbZOYC5tn0+vhP/zFHSb7PIYXslP1+3XEHvFFXWP22uVu2EYdeYsTvW3I/Bucd321OaLnfPnhuf3z8bzWTvC1PGfP87n0xX0fZDL5apzvX/jN34DwzD4yEc+cshHtTmWZXH+/PlqwVO7T0CD+nTArroEbBPl2c8jp8405wC8YSSRRRLbW60C6IZBIZ/HtivDU7w+367r1i1PP6w1I5+uUVrtxC5cmk8X6w50xWIJj0cjEAhCsIfFJ/0gScRuu5KOH72y+vhG2tZqw8vLy8vVdiS3uG53OOevtl/bDc/vn40jTGvTRcc1/27bNpqmHWhXQEOC/od/+If8zu/8Du95z3v44z/+Y6AS5vyt3/ot/uZv/oZyucwdd9zBJz7xibqBKbOzs9x999184xvfIBQKcdddd/GhD32o4V/8//v//j8WFhb4+Mc/3tDrNJvaCWhOO1dXV1dbX7y1c9Q7OjoYHx+vLpy2xNJRn/4c0lqiqccigt0o+tb5dNOyyOfzmKaJ3+/Hvw/vZCFJ2HRBvvHqeluLUjwnV8IFlVenVCqvh/9lgsEgqnpRTIvyEKvPVf4/9sor6HjVVUBz+9Aty6pzC6struvp6SESibT19XjY1IbnU6kU6XTaDc83wFb5d2ex1NXV1dYturvhMAR93+/08MMP8+lPf5rrr7++7vu/+Zu/yZe+9CU+//nPE41Gede73sVP//RP88ADDwCVG8udd95Jf38/3/3ud5mfn+dtb3sbmqbxwQ9+sKFfJhgMUijssn3oALBtuzo4RZZlLr/88kvaudqNjVGEF73oRcRisZ2faBRRT/81Unau6cck5ZNYoR6U8nL9sdo2hUKBcrmMz+cjHA4j7/PcSkIgK3ksVUMyd/Zp3w7ZSOMdGqB8roiuGxQKeYSAUCi4fpOqP0a/OE+pf4TigsXat84gLJvO23c/j2A3KIpCT08PPT09ANVq5WQyyfT0NJIkucV12yDLMp2dnXR2dgL14eSnnnrKDc/vEUmSiEajRKNRJiYmqvl3Zz7F448/fuQXTIcR/N7XDj2Xy3HTTTfxiU98gj/4gz/ghhtu4I//+I9Jp9P09PRwzz338Ja3vAWAZ599lquuuooHH3yQl770pdx777284Q1v4MKFC9Vd+6c+9Sne+973sry83NCq7L/9t//G/fffzz333LPv12gGTl92IpHAtu1qO1c7f8Brx69qmsbExMTu56jrOdSn/hIp30JDGEVD0mQkq4C9Hr4rlUp4PR4CgSBKkwa72J5uxFrju3TTMllcDmKnigT8AXx+HxuFvBah+VhKdGOtj4CPnDpJ3+tvOJAeX2cedG1xnTPMo6enh46ODrfXeBs2C88rilLdbXZ3d7vh+T2yXf69u7v7SESULMvC4/G0/w79ne98J3feeSe33347f/AHf1D9/iOPPIJhGNx+++3V71155ZWMjIxUBf3BBx/kuuuuqwvB33HHHdx9992cPn2aG2+8cd+/TCAQoFjceZpWqxBCkEqlmJqawjAMxsbGGBgYaOuboRCC5eVlpqamEEIwMTGxt/GrpTTqU3+BVEy19kAtA0sJoxdXqsNTYtFo0z8ssp7EivZDen/5dMu2KrPTdZ1I1Eb2DkJp5/y/ZJTomiixdLqyM848eBYZib437P/zsFtkWaajo4OOjg4uu+yyut7tJ554AtM0q9aqPT09xy7X2SiSJBEKhQiFQoyOjtaF52dnZ3nyySerC6SjuNucm5vj3nvv5VWvehUnT57c9+s8+eST6LrOzTffvONjPR4PAwMDDAwMXJJ/TyQSSJJUN/+9Ha9JSZIO/Jj2fDf8m7/5G374wx/y8MMPX/KzhYUFPB7PJSHavr4+FhYWqo+pFXPn587PGuEwBd0xWCkWi9UJaO3+oV1ZWWFycpJyuUw8Ht/74qOYQn3ys0jl1ri61VIqlSisrmB4YnSFFTwtLOiSzSXsQAcUsrt+jhCCQrFQGbnq9RDriKHICnbEoji7u9dQy0k6Lhtm9flK0Cz9vbNIQtDzhhsP9Maw8Waay+WqxXXPPfdcNdfp9Bq7xXX1bBaed+oXNobnu7q6CIfDbSdGtfze7/0eX/7yl7jxxuv40hf/hkqkSQLkyn8lqeZ7G362/vXMM8/y7/7dv8O2bf7sz/6MW2+9ddfvL0kSwWCQYDDIyMhItV0zlUqxsLDAM888g8/nqyuwO+r59/2yJ0E/d+4c73nPe7jvvvvaMsd2GDn0WoOVkZERhoaG2t7rOJPJMDk5STabZWRkhOHh4V0vPubn53nooYe4+coR4mtfA33nEaKNoOs6hUKhOjzF65URoQEoJ1v2npKwkdUSlqIiWdu71QnEer97EVVRiG6IGsjGKp7hQfRzu1to+pmj2DNCabmyq197aBJhC3p/4iaEEAce7ZEkiXA4TDgcJh6P1xXXPffccxQKhaoV6FEJhR40Ho+H/v5++vv7q7tNJ71x9uzZuvB8V1dXW91bBWsMDGQJBkyG+hcRhd/b3+sUV5GsRTBkJL2xz64kScRiMWKxGBMTE5imWe1/d/LvkUikzn/+oDdXQohDyaHvSXkeeeQRlpaWuOmmm6rfsyyLb33rW/zpn/4pX/nKV9B1nbW1tbpd+uLiYtW1rb+/n4ceeqjudRcXF6s/awS/339ggp7NZpmammJtbY2hoSGuu+66tt+p5PN5pqamSKVSDA8Pc+211+75mD/72c/y1Xu/yI9eFuQP7jrVoiOtVNnn83ksy8IfqFSuOzloqZhHaH4kq3XRGMnMI0d6EKubu8gJQNfLFPIFkCAcCqFt0e+umhewuwYxU7s4XiHo6FlmId2JMCq/cfoHUzw7fZZzXQa33HILV1xxxY4v0yq2K65zQqG1rXHtJE7tQO1uszY8n0qlLgnPH6YZiyCPzX1Y4iHe99tD/MxP/DiXTezfK+Pq+DX8+X+WMU3BzR1fwz6fxe59PWiRho9VVdW6a7JcLl9SsLjRf/64Ljr3JOivec1rePLJerOQX/7lX+bKK6/kve99L8PDw2iaxte//nXe/OY3A3DmzBlmZ2c5dapy8z916hQf+MAHWFpaore3F4D77ruPSCTC1Vdf3dAvEwwGKRaLCCFa9gfL5/MkEgmSySQnTpzgqquuavvwTqlUIpFIsLi4yMDAAKdOndp3kc7wYD+9qmCkN9bcg1zHsiwKhUoO2u/3b/7hs3RsLYZMCYnWrYLl8vKm+XTDNMjnC9iWtd7v7t12UpsEePwrWN4woryzP72kF+i5LMjS0xfF8LnvPc5ZZY3+/v5DFfSN+P1+hoeHGR4eriuuc8TJGYzi5I7buZ7kMKgNzzv1C04E5PTp0wcenhfo2HwDi6+AkFCKCpKic+3Vnft+TUkfQL2wxIsuuzgXXF79PnL6UayeH0N0/SjIzdsMeb1eBgcHGRwcrMu/OxX0tfl3Z/57KziMHHrDxjK33XZbtcod4O677+bLX/4yn/nMZ4hEIrz73e8G4Lvfrfh5W5bFDTfcwODgIB/5yEdYWFjgrW99K29/+9sbblv7/ve/zxve8AYmJyebfiJrndKOwgQ0qISrZ2ZmOH/+fNMmzlnf/yKLpx+hd7AfX3ChaYJq2zaFYoFyqYzX5yXgD+x48xehHpRyY3UXOyEkBcuKIJXylyw2/Huc1GZ7uijOWGxX7V5LkRHWpirnN5VPM59JcdMvvZaxH3nRfn6VA6e2uC6ZTFaL6xyBb8dCpnaiNjzv7DgVRakzt2lWBERgYvMAFl8GMiD8KCUNyWospSYZ/ajnk9sueIXWgd3/RkTkhvV8fOuwbbs6/z2ZTLK2ttaS/LsTcvd6vQe6iG26oDvGMp/73OfqjGVqw+kzMzPcfffdfPOb3yQYDHLXXXfxh3/4hw3nnp988klOnTrFhQsXmnajKJfLTE9PMz8/f2TmqTvWsrOzs8RiMcbHx5viES9mn8H+wb3Vfys9UTTONfaa68NTisUinvXhKXsKMQajyHrjDm/bYSlBsosZ9GIBj9dLMLDzYmMrDOUE+tzu0kKSorC6MkwxdbFKXvZqjP767WidO5j8tBm1xXVOa5fP56sLz7d77clhUxue39heuN/wvEBg8zA2/4xgPbctfCglL5LVmB2yZPajzm0v5nXHEhjDGngT+Ecaet+9UJt/T6VSZLPZpuTfj6ygtxOTk5NcdtllrK6uNnwSa3e3XV1djI+Pt/0ENNu2OX/+PNPT0023lhWFLOLrf4HYMMRE6/egWPspcql1T1PW3dP2cUNXfUiKiWQ3PlzlkiMU6wVvxSKW1k0UUJXGREdIEuXiANbqzvl0SZLAG2bhuRi2efFj6jvRyfA7XoXUpN77w8C5kToC7xbX7Z3a8Hyt97yzg98uPC8QCJ7C4h8RnK/5iQelGESyGutckcw+1LnUrsW8Fjt2M3bfG0CLNXQM+6E2/147btcR+N1el66gN4GFhQUGBgZYWFjYd2i5dgJaM3e3rcSZpZ1IJFAUhYmJiaZaywohEN/5O8TypbtxyePFE8siidKuX69crgi5JEkEAoGGQ1zC34FsJvdx69ji9ag/xmAwiEfTsNR+yDTB713xU1wKIfTt8+mVHByY3n4WT9cvJDpOXU7P649G6H031OY5U6kUsizXOde1e3rrsNlLeN7meSz+L4KpDa+ioRTDSFZj44Qlqxd1bgVJNPCJlFXsrldj97wa5MP529caBjnjdh1Hxdr+962eK4TAtw8b6kY4VoKeyWSIRqMkEgm6urr29FzTNJmbm2N2dpZQKMTExETbT0ATQlQLPSzLYnx8fG+mMLt9n+d/gP3kt7b8uRSN4PHM7SiohmGQz+exhV1xT2tiBXSz8ukXB7wIAsEAXq+3+nsJWcUyQkjlxjspLE8PpZndCTpA3h5jbar+8YO/8HJCVw42fCztxmbOdW5x3d7Y7Bx2dhcZHn2ccPQcmqZtuE+oKKUokrnW0PtKVg/qXBqpSbIi1Ah2352I2C0tz6/vxHb5d8eTwdmcuILeBEzTRNM0Tp8+zfDw8K6eY1lWdXCK3+9nfHy8agjRzqyurjI5OUmxWCQejzM4ONiSm5xIL2N/8x6wtnc7U3sjqGJzH3fTNCkUCpimgX9dyJt+kUsS+EPIxtq+nm5aFoV8HsMw8AcCWw54WSl7uP/Bswx1hrjpZGNtls8ueDh7+gI3jJ6gI3jpSr9W0JFVkksnKK9d/Dsofi8j77wdLdqaKt12Qdf1qjClUqlLiuvaPRV2WHz84x/nM5/5DP/ve+/mp95so5vfQ9d1dF2vDg7xeDx4ND8eqwfZXG3o/SSrG3UuiyTsJv0GFxH+YWatW/nYp7/A8PAw7373uw/duKs2bZRKpcjlcnX592g0euAji4+VoNu2TTAY5Dvf+Q6XX375jo+dn59nenoaTdOOxAQ0qPS/T05Okk6nGR0dbamRjbBMxDfvQaR3kSOXJLReBcW+GJKutUH1+Xwtr2oWmh9ZLiPZux+uUplNXqRULuHz+ggE/NsujL744BT/40tnGe7q5L+87Y0EvJUVeV21/7a/ogRCYNs2H/27r/H01DJvvulqXveiS1s26wQdEN4IC89Gsa2L7+Uf6Wbo//nRI51P3wtOcd3y8jLJZJLV1VV8Ph89PT3VXZJbXFfhpptu4rnnzvCq1wzw9//4Y3U/syyrIu5lg+KKD59SwOMIvMez582BZK+Lud18MXe4597n+K//6zSdfaN89rOfZWxsrGXvtR9q8+/JZJLLL7+ceDx+oJpyrK58SZJ2NJepzTfLsszJkyfp7e1teyEvFApMTU2RTCYZGhrimmuuabmRjXj6gd2JOYAQmGsqctQDdvni8JQaG9RWIxlF7EAXir20i8MVFEslioUCmqYRi8VQd1jxG3YPff4AI4EVxrpGMWc1crJz3ezl+qlYY56Qe8lGBLHY1RhKJ5rlLIYE5XKZUqmEqqh4vB40zYNcztB9ZYil0xdvtsXZJKl/PU33j123h/c/utQ6142Pj2OaZrUw7Nlnn6VYLLrFdVSK3n7rt1/B5z6X5tffdeliUVEU/P4AIbkXqTeJYajouk6xWCSbzaIoSlXcLw3Pb8DuRJ3LtVTMAU7dcCU/Mp5hZCzO0NBQS99rP9T2v1uWdSjX3bHaoQshGB4e5n/9r//Fy172skt+try8TCKRwLIs4vE4fX19bZ+LK5fLJBIJFhYW6O/vZ2xs7EDct8TyOezv/B3s5fIQgryqIDGJqmoEAoHD2S2FupHLm09+qxa85QvIskRgveBtOwyrj9JKBGu10sZTNkw8qoIU6UFf2r3f+yXHIgQl08DvD5IvdiIpMp5gEjM7i7Bt/IEAtl3ZSVmWhaZWdlAlTlK8IFfXEBISg3f9CMEGUwDHgVpbVacwrLY17oVQXCcQmOLvEdLXt32covdtasMqhFgPzRvr4XnrYnh+4/QwuwP1fBF5h5Rco9hSB8UzQYReWTSoV74Y9YZXtfQ9G8G2bSRJOnCnxGMn6FdccQUf+chHeM1rXlP9nuPxq+s6Y2NjLcs3NxPDMJiZmWFubo7u7m7i8fiB5QqFXkb8618gdj2cRFAulSkUC8iSTHC0h5CnxdPXtkOSwedHNutbb/T1oryKL3wAT03B22bo1gClZBA7vY25Rri7IVF3sJBYWFIppsqEByL0DYOfZDXkbll2Nf9ZMiyW5gfQDO/Fm2zYz+g7fww17FqtOtROPUsmk2QyGSKRSFXgY7FY298H9oMp/glbunfbxyj6AJK+cyQLasLzuo5uGEiShEfTUOUuQikZtQU581psKUrxuTCiXP8+2s2vQbnspi2edbi4gt4kXvSiF/He976XN77xjayurjI1NUWhUDgyE9Asy6qawkQiEcbHx4lEGvc73gv2w/cizj2zq8fWD0+piCSyjKcHZHuttQe6HZ4gEgUkYWJaFvl8HtM0Cfj9+Pz+LYXcBgxziPKyFzu7y2r2BkRd2Pa6sU4JTyAA8jBmprLb8Xb6CPeU8FjzdccrBJQlH7NP+NBLBqZpoqoqgfFehv6fHyUWi70gw8w7UVtcl0wmsSyrrjWuVRagB4kp7sWW/mnbxyjGAFJ5d2K+GYZhUCp4EDMF7HIlLaR5nAI7DUlq3iJpKzGHSoBKfeVPowxONO39moVt28iyfOARoWMn6KdOneLlL385s7OzvPWtb2V0dJTh4eG2L5Sxbbtabe/z+Q6t2l7MncF+6Es7Pq52eEogEMDn81KbR5b8ATzhJJLY2bu8VZi+DsrpacrlcrUoT95C6GwkDGOI8pKGnd/H0JdwD/rSHsw4HNOaQmW2ezAYRFFVUDXyxQ70VaPqBa1FPYR7dTzW+Tph1z0nWH5awq7ZvedPhjGvqYiUUyjW7rMGDgMhBNlstiruq6ur+P3+urGw7X7P2Igp7sOWvrDtY2RjcMt01K4REdQLNrJRxhY2Rk143rKtanGdth6e34+5DKyL+fNhRGnrCICkqGiv+TnkzvZKN7mC3gSeeOIJXv3qV5PJZPjFX/xFPvjBD7Z9S4sQgsXFRaamppBlmYmJCbq7uw9lhyWKWcTX/xKhb20S4/iZG7qObwc/c7kzhkfZ5TDwJlJrJ0u4m05fecvIjC1kdGOY8pKMKOzeHGdTdrNTF6Lajw+VgUKaptX32K6LurFm1p1bNewh3Gfgtc+vV9VLZMqjZM/VLpokIm+5kYzfqoaZo9FoXZjZ3b1fSm1xXTKZpFgsVoei7OS61g6Y4n5sPrdtr3ZzxDyEegFkY3NnxvrwvI6EdHH37vHsujjWlsIUn49uK+YOki+I58d+ASnYPr4htm1XCwsPkmMh6M899xy/93u/x//9v/+X/v5+fvZnf5b/9J/+02Ef1rbU5vYNw2B8fJz+/v5Du2kIIRAP/D1iaXMBrrR3FdZ3u178uxieAqD2BVHt+WYf7hZsYifr8YHXg2zWC62Nil4aorwEotQ821gR7sHYYqdurUc1TNNcj2r4tr4BqxqFYidG+tIIhxrSCPVZ+MR5JEVl+fwAeu5iUZKTT1eCXsrlMslkkuXlZVKpSl1DV1dXdff+QigS2w/bFde1W9TDEt/F4i+3bbSQzUHkUqNiHkSdl5G3WfDXPVwITNOsCrxhGrsKz9tSmOLZDkRx99E9OdqF9pqfR/K0Rw2JK+j7RAjBLbfcwk033cT73vc+fuu3fourr76a3/qt3zrsQ9uStbU1JicnKRQKjI2NceLEiUMvzhFnf4j9xDcv/f76brdULKLtZ3iKouDpNpHtxgvHtkPX9bpdb+0HSZcDfOeJZ+iJeLluYpBycQh90UboekuORYS7MWp26mJ9MVQqOaF/P9Iu/t6y5iFf6kRf3byvXglohAZsVvMXuP9bFxjtHGCscwCA4OUDDP7iy+sWiEII0ul0tYc7nU6/IIrEGqWdi+ss8X0sPgvS1rdx2RxEKi3sO/QNgAigLqjI5X2ko9aphOeNqsBvFp4XUpjSZAd2Ye9V83LvCNptb0E6gBbZnXAFvQF0Xa+euF/6pV+it7eX973vfYd8VJeSzWaZmppibW2NkZGRtsnti0wK+xt/DVbtitjJ8RYbG54CSIEgnuASEs1vbdkplw/wjcdm+ZN/fpKYL8zvveGNdPlavysV4W6MxUw19K9pGoFgcE+LIQkJ2eMht55T34r7Zx7n/pknuDx4gp+58TXV73f/+PV0vmLr2ekbi8Rs267bvR90he5RwTEQOeziOks8isX/BGnrsLRsDSIVGxRz/KgLHuRS45bHtWwMz5uWH3tuAK9Q181t9i7MSvwa1Je87tDTI5ZVafVrtVfIRva8rPzkJz/J9ddfTyQSIRKJcOrUKe6992KLxG233VYt5nG+fu3Xfq3uNWZnZ7nzzjsJBAL09vby27/925jm/ounaldBgUCgkjttIwqFAqdPn+aRRx4hEAhw6tQp4vF4e4i5bSF+cG+dmJfLZVZX1yiVyoRCIaLRaEPHKgp5DLu5nuO2bZPNZkmn02iaRkdHx7oAXfpB7oxEiBAl5o3hO4gPugB9+Twpq+KSFw5HCEci+xvDaBiE/Kt4Ora+MYyEerkiPMj1V19T9/3U15+ieG7r9kGPx8Pg4CDXX389r3rVq7jlllsIh8PMzc1x//33853vfIczZ86QSqWwW2wacpRwDESc83brrbcSi8WYn5/n29/+Nt/61rd4+umnWVpaaui+th2WeBKLP99BzAcaF3PhQ130Nl3MwTG38RONRunqHsO/OoFmypSKpfVhKClyuSy6XkbssjXOSpzGOv1g04/1qLDnHfo///M/oygKl112GUIIPvvZz/LRj36URx99lGuuuYbbbruNyy+/nN///d+vPicQCFRbryzL4oYbbqC/v5+PfvSjzM/P87a3vY13vOMdfPCDH2z4F/qP//E/srq6Wp3PfpjUzlLv6+tjbGys7Wap2099G/Hcw0ClHaXgDE8JBJueX1X7/Kh2Y3k8Z6qU40IXCAS3DXfa+MjND7I0n8SvaYQH+iC7n3Gvu8M01iMGtkUwEMTTfQJjeX/pBgmputOQNG3HnTqA2tOBvrhW/bcWCzLy67ej+PcW+tN1vW4XappmdRfa09PTdtdxu3AQxXWWeAaLT4K09bUgWf3IxaUGd+Ze1MUAcrGxueg7IaQAxUQ3du7i4kfYNoZRH57XNA2Ptu67oKlsVzSg3fo6lPi1LT3u7TisHXpTQu6dnZ189KMf5d/9u3/Hbbfdxg033LCloN5777284Q1v4MKFC/T19QHwqU99ive+970sLy83nHP43d/9Xc6ePcunP/3phl6nEZwRrOfOnWvrWeoiOYf97c9jGQb5muEp/u2KtRpAUjW0ziKy2M9q37FqLaKoCsHAzikAmwDZC/3YufoiHqUrBpnmirpl2RTyeXTDwF+t/l8/8lAPxvLe50vXCjqsi3qhA31tb6IeunqIwZ87tef3d3BavJzc+9raGoFAoM4/3c29b04+n6+K+8rKCqqq1oXn93q/s8QZLD4B0tb1H5Ldh1xodJywB3UphLxrc6n9IaQAxeke7Oz217S9ITwPVCvnPZoHeUP0S5JltB99C3LfaMuOfTuc4TcHHYVtSNAty+Lzn/88d911F48++ihXX301t912G6dPn0YIQX9/P2984xt53/veV80r/e7v/i7/9E//xGOPPVZ9nUQiwfj4OD/84Q+58cYbG/qFPvShD/HQQw/xF3/xFw29zn6wLIu5uTlmZmbafgSrMHSMr/5viskFyrqO3+fD3+LhKQBSKITHP18/zGQHdL1MPr+3+ek2QbLne7Hzm1ewK52xpuzUhX2xRc7r9RIIbl79v131+1ZsFHTYvagrPZ0YC2vVYqneO28k9tKTe3r/rTAMo7p7X15erpt+1tPTcywMWlqBbdvV6VzJZJJsNlstruvp6SEajW67MLLEFBYfB2nrKnPJ7kUupBoX8+Uwcn7vi9C9ICQ/xeneHcX80icKDNOoFtgZpnHRe17zoHkq1fOS5kW7/ReQo3sbpd0MLMu61Cb3ANjXuz355JOcOnWKUqlEKBTiH/7hH7j66soAgJ//+Z9ndHSUwcFBnnjiCd773vdy5swZvvCFiuHBwsJCdWfu4Px7YaHxedbBYPDAc+jO5LZEIoHX6+Xaa6+lo6Pj0AsztkLXdVb/9W+RLszi9XoOdL60yOUwfUNo0rkdH7ubgrfNsAiTO9eFXdy6Hc1aWUPp7N63qAsB5XKJQr6AoipEYzFUdescuZRdRuvdu6hf8r6GQSiwSo7tRd1aXkHr78JYWAVJsPwvT+Ab7cY3EGvo/QE0TaO/v5/+/v7q9LNkMsni4iLPPvssfr+/bvfe7u6MB4Usy9XRmldccUW1pTCZTPLoo49WixKdHXztwsgWs1j82Q5i3oNcXG1QzFXUZAQ5n27oVXZCSD5KM/sQc6hMdtQqA4sCwWBdeD6Xy9WH5792D4HX/RJyINz8X6IN2ZegX3HFFTz22GOk02n+7u/+jrvuuov777+fq6++ml/5lV+pPu66665jYGCA17zmNUxOTjIx0XqLvp2mrTUTIQRLS0tMTU0hSRKXX345PT09bSvkjq3sylMPEU+eJRiLoigHX5hnJdPIfT0o9vLmP183r9F1Hb/fv6eJWRYRcrOd2KWdW9L2K+q6Xqk1EAhCoVAlYrCLw5Oyy2g9+wu/11IVddGBnt5O1FOo/d2YiysIy2Lh/3yPkV+/HdnTvL957fSzeDyOaZrV3fvp06fRdf2S3Xu7fj4OGq/Xy4kTJzhx4gRCCDKZDMlkkvn5eZ555pnqwqinVyfc8ZdI8tb3NUl0IxfTDc4iV1BTMeTcAYj5bD9Wpjlto5Is4/F6K7bT1IfnC/PnWLjnv5O/8Q66+vrp6uo6kPqPw7rG9/XJ9ng8nDxZCd/dfPPNPPzww/zJn/zJpnnrW2+9FYCzZ88yMTFBf38/Dz30UN1jFhcrhVL9/Y3b9x3EDl0IwcrKCpOTkxiGQTwep7+/v23ziLZts7CwwNTUFAFZcLV+Ae2A/eE3Yq4I5E4fkn1xx1Ff8Obdc+TAFDFys1FEefc3CmtlDaWre1c5dcu0yBfymIaJP+DH5/PvudRAyi2j9XTvu1DOQRgGoeD6Tn0bUbeXk6i93ZhLK+ipLIv/+AgD/+bWht57O1RVpa+vj76+PoQQ1Rzy8vIyZ86ccWeXb4EkSUSjUaLRKBMTE9WF0eraGYrGn1NO5baceCaJTuRCBkk00haqoK50IWdXG/9ltkFIXkqzfVjp1nhAAMiKgm99ZoMTns+fe4xp/RpOnz5NIBCoTt9r5TV4GKLelN/Etm3K5c3Dm06ufGCgYnhx6tQpPvCBD7C0tERvby8A9913H5FIpBq2bwS/399SQU+n00xOTpLL5aqmMO0aUhRCkEwmmZycRAjB5ZdfTtfz36EyguSQj83Q0YtdeLznq77mxWIBVdWI7SNyYIoOcjMRhL73EJ6V2n6nbtuVhUa5VMLn8xHuCCPJ+/+wSrnkwYp6MonS2425vEL2iVkC471Eb4439N67QZIkQqEQoVCIsbGxugrwZ555hlKpVLd7DwaD7u59HVVV6emV6Oz9CkLyY1mei379hXxl4pnHgyb3ELCzSNu0r+2MjLrahZw5ADGfG2ipmF/Ceng+VlrlZk+ep3p7sSwLIQTPPvssxWKRWCxWLVLcSzRwK4QQHJa9y56L4n7nd36H173udYyMjJDNZrnnnnv48Ic/zFe+8hXGx8e55557eP3rX09XVxdPPPEEv/mbv8nQ0BD3338/cLFtbXBwkI985CMsLCzw1re+lbe//e1NaVv76le/yt13382jjz7a1JtDLpdjamqK1dVVhoeHGRkZaevdRTqd5uzZsxQKBeLxOIODg0jTT2I/tv2M5IOmHFKxS5NIknTR13yPmKKL3HQQYTTW87uxUE4IKBWLFNaNYYKBAMo2efK9slP1uwS7mlwlaRq5/PaiDkBPD9biCoomM/xrr8Hbe7hRmnw+X62cX1lZwePxVMW9q6urrT9frcI0Te677z7G4p2cvOKLCGmTeeWI6sQzO51HWGVUVa3u3vf2GZJR1npQ1laa90tsgpA8lOYGsVYPUMw38L3nZ/jY/U8R6R/ij/7oj+jp6ala/KZSKVKpFJIkVWsY9hueF0Jg2zZer/fAN3t7/sQsLS3xtre9jfn5eaLRKNdffz1f+cpX+LEf+zHOnTvH1772Nf74j/+YfD7P8PAwb37zm/nP//k/V5+vKApf/OIXufvuuzl16hTBYJC77rqrrm+9EQKBQFNz6MVikUQiwdLSEoODg5w6daqtfJw3ks/nmZycrC48rrvuOv7yL/+ShdkEvzzupy/cHv3DTs+7tSoIjw4S9u4vqmLYPeSnfYgmGHhUcupdkElVrWQlSSISDqN5mt9P2szwezC0BsS2F/XlZZTeXuzlFAt/8z2G734NsnZ40aVgMEgwGGRsbAzLsqq79zNnztT1b/f09BAKhV4Qu/dPf/rT/O7vvo9QSOL7j/4knZ31XhDJ5RJf/KcZbrxplJsuDyB1Ktj2xWl76XQl/605LV0eD8qGtJUQgr/9wiRnnkvzjje9glHfAYj5+cMVc1hfIG9wnwsEAoyMjDAyMoJt29U6hvPnz1fD847AH4UU0bGwfq3lkUce4TWveQ2zs7MN3QB0XWd6epoLFy7Q29tLPB5vazONcrlMIpFgYWGBgYEB4vE4Ho+H2dlZ3v3ud5OameK3XncrP3FL42mNRrAsi0I+j2EY+AN+/D4/ks+PJ7qGJPb2gTfsXvIJL8JqnqWsaZpkJBulsEYgEMTn9e6q4K0RRGhzUd/tDr2Kx0M+t4OoA3T1YqdWiN4wQt+bXry3gz0gnJ3T8vJytX/byb13dXUduGHHQfHxj3+U97//9wkGFR567KcvEfQPf/Ax/vf/fI7x0S6+/Lc/U+msEBLrV0vFpVA3KRVLlIplymUdVdXweX34fD58Hh8ra2V+9lf/hgvzWX77F6/lV958zabH0gwEGqX5IaxU8wYg7QcJUF7yWp7JQyQSYXR05/50wzBYWVmpFnnuNjzvhNy9Xu+B11W193JjH4RCoYZy6KZpVk1hOjo6ePGLX0woFGriETYX0zSZmZnh3LlzdHd385KXvKSu3WVwcJBXXncTs6bKjeMjh3acwrYpFJ0BJV46Qh3VASWiXMLQ+/BoO7eyORh2H/mE1jQxty2bfCFfrawPDk8g51ubU3So5NQbr35H13e3U08tIXX2svboLP7xXiIvOrzrYis27pyc3fvZs2d5/PHHqzfWnp6eth9tultsO8+v/twUI/FXEp+IXCLm2F5Gwyfp8pxnzBdF+f6GsbvreFDxECJCCGELdGO94ltPk7NXsdUot3RP8Fx5ket6X4KNF5nm79IFKqWF9hBzdd057ro9PE/TtGqBJ1QWmY64JxKJanje2cG3w4bv2O3Qz507x8jICKlUak+reMuyOH/+PDMzMwSDwbY2hYFKIeL58+eZnp4mGAxy8uTJqr1uLcK2SX32y5grGfyDfkLexMEeqBAUS0WKhZ0HlKi9YVRxfseX1O0BClMKogn+4rWz0z0eD8FAEFmpLDSUzihkt/ZCbzZ1O3Uh0HUdRVHWr+PdC5bk8ZDbxU5ddPZBLsPor96Gp/vo9OkWi8W6kbDOaFMn997OKbGtsO0C0sq7McM2wrthKI5QkZPDyGe9iNQac8kMvbEgXm2P+zEBJamX7HQGvaRjGPp6cZ1G4LIAHSOrqHJzbF4rYj6MlWwfMW8mzuRCJ//uuCc6At/R0UEwuL0tdSs4doK+srJCV1cX586d25UgOy1diUQCTdOYmJigs7OzbVf8QggWFxeZmppCURQmJibo6ura8niLT02R/sr3qv+OjMt4xYUDOdZyuUyhkEeW5Mq0tp0WWLKMpxdka23r17ROUJyi8SrSdWOYfKGAIisEQ5tbyR64qAe7KVxIkc/nEYLqUApPTU50N1OoJI+HbC666Tz1uvfr7EPzCEbe8QrkJhb8HRQb3ddyuRzRaLQq8M2oWm41tijDym+AlMTs7K35iYy8egJlyo9I6WA0II5KgFIhirlaY0wjRJ1fumGaeCdkuoZX8ftsVFXd17kTKJQXRzCXj6eYb8ZGD//BwUGuuuoqV9AbpVQq4ff7ee6557btaxdCsLy8zNTUFEIIxsfH6e3tbesP/8rKCmfPnsUwDMbHx+nv79/2eIVlkfzzL2Jl8tXvSapC52ga2W7dwAXD0MnnCwghCAYCVcOH3SD5/HgiKSRxqRCVzSEKCVEpP2/k+HSDfCGPsAXBYACPZ/s8+UGJumVa5PN5spKPsKni8/uRJQnDNNHLZXRdxzRNVFXF6/XW9CNvfvC7FXW7o5/IZR3037mXgGR7UiqV6nbvkiRVxX0/3umtxhYWrL4HuXAGfXAc1gVAzg2inJGhHEOspPZfxyHA9vVRPG8izO0jWrZVKa4rWzrWQI5Q9wJ+r3SxuG4XFdsvRDHfiFPlXpnncLB6cuwE3WkX+MEPfsD4+Pimj3FMYcrlMvF4nIGBgbY1hYHKHPWzZ8+SzWb31PteeOw5Ml//wSXf12I+oh2zSE3uR7csk3y+ZsiLf/Nxpjshd0bxKPX59LIxQmHaakjMnYI83TAI+AP4/L5df+CUzghkW1MNLOyLhjo+n49AIMB0ER545HFuGB7lyoGLo2dtu2ZIha5X+5Gdr41FdKuGzme++SgeS+FN178Sv7b54sru6Cf4skH0HoUTJ060nfDtB9u2SafT1da4TCZT3b13d3cTi8UOdQFvCxvW/iPK2iPoA6MIXxCp2Iv6vAcpo2DrHmhk0pmsoVt96Iv5nR+7EQGWbCCGi6jeKUyrdNEvfd0zfeO5EyiUl0Yxl7a2pz0IDlPM4WJRnM+3+/tLszh2RXGwtf1rJpNhcnKSbDbL6OgoQ0NDbWsKA5Vc4dTUFMvLywwNDXHttdfuui5AmCb575/e9GfGWolCaISgNt2U47Rtu2K8Ui5XjFcaLFKyV9KYfYMI/RyqIlM24xQT+295EbZNoVCkVC7h24cDHYC1kqm0tDVxpy4ElEslCoUCqqoSi8Wqfe5f+d53+PJTzzOTKXNy/Aak6jgbCSUg4ZfAZ1fy7IVCkdVCCT1t4NW0SjWz34+meZhcmGJy5Twe2U8yn2E41rPpscirC/zz/3qQzLDMq1/7Kl784vasft8LsizT0dFBR0cHl19+edU7fXl5mdnZWQC6urqqu/dmjwveDoGA9O+grD2CFe4AeQjtTAT5Qg7hi2Bn1mCPXR91r+/ppLisYhf3IeYAEihCg1kN2X8TkZM6KGcx9BK5bBbbFnXOdYrqobzsijk0IR3YAMdO0J2JXLWCns/nmZqaIpVKMTw8vCdhPAxqW+b6+vp46Utfis/n2/mJNRQeex4rt3W1f2GuhDbRh6eB+eQbC8o6OmK7yu/uhocfOsunvvEAVw6N8Ss37jOCsu5AVygUUDWNWDSK0kAfqbWSbpqoG7pRyZMDoXAIj1bxgxcCLF8Pl/Vdy8m5HNedOEkxCWZh6xCmhhcNL7aw0XM6hVSBNSNdsROVPbyi/xoCPj/D8QlsS0POrmwa6fAWMpSeNRG3tW/aqRE2eqc7u/fZ2VmefPLJ6uQzZ/feqqidQGCn34+6+j2Q/ZC5Be3JAsg6ttqLWGmku0LGUAYozxS2nZe+F+yiTeFJFSVyNYHLyoRC57AssxolyuUK5BeH8OWWLu7eDyHi2Q5iftgcu5C7kw//+Mc/zs0338y5c+dYXFxkYGCAsbGxA12F7xVneMrMzAyxWIyJiYl9tczZukHyf/7TttPGAGSPSsdQClnstc1PUCqVKRQKKIpSKXhrsuHC3zzwGJ+471FGojH+5Od+hsBe/m6CixaZVAxMtCaGkJWOCOT2F363LKuSlljvw3f84B0hL60pWNnK383GRpEVJEVBCkcpzu9tt2UYBuX13LtlrU+gCgeRAv1oqopSTCHZF9v+DMskWy4QG7+akZ99Mb6Oox923y26rlcLmpLJZHXymbN73+uCejvszAdRUl9DKnkRqTgYnQhvJ3ZOB6OBXbkWppwOYWZau0tWu1T88Qxf+Pq3mVss8G9O3U44I6oCb1rrdR6e9ToPbes6j2bRTmJu2zaSJDX1mtktx07QAS6//HIGBweZnZ3lr/7qr5iYmGjrGc2141d9Ph8TExN0dHTs+/Vy33uK3ANP7Oqxni4/kUhi1x83XdfXJ41VhLJVudb5jODvvjrF+NAQr7qqH8ne3W6jOnLVtAgEA+vGMM2+mUgoHeE9ibqwRaUPv1jCu54nl2XpopCnFazMhgWYVD/gQYmE0fNg5vZ+07dqJlAZuo4ZDKPnIsT6fITkIrK1oXBucIShn7npBSXqDs7kMyf3nk6nCQaDVXHfT8rmvvvu46/+6q/4uZ/y8/qrZ5ByJkLvRJQvx9b6EKup/V+nAizvAKW5MsI+mNv5YjrDf/j7v2c5k+U3f/xl/OQtF4V0Y50H7L1LYy+0k5jD4Qr6sQq5Z7NZPvaxjzE5WfEG//SnP81117Vv5e5mw1MaHb9ql3QKP3hm14/XU0WKwVECysy2j9vvbPL9IACfNcHP3HgCgKLuw+9ZQbK3rta2bZtCPk9Z1/H7fC1uVxJYq1mUzs6dC+UElKpz0+vz5Ka3h1JaxVouATtb11qZLKqsoA3GKF7YW7GUoij4/f6K+YUQ6IZBOZpmJVXk/DJETniIeXR8ilSpK7kwy9zf8oIU9drJZydPnkTX9aqhyBNPPIFpmlUzkZ6enl0ZivzZn/4p3/7WN1ibCXLnf7sWhIptXYNtB2FtZf9irngpl7sxZg9mZLRDR9cJro5ez3mxxLXx+kE/sqzg81WiTyAwjUp4vlQskc1mUZUNvvMNfE7bTcwdDqvY8ljs0G3b5uMf/zh/8Ad/wBVXXEE2m+XXfu3X+MVf/MXDPrQtWVtbY3JykmKxyNjYGIODg03J2WW/8/iWxXBbIkFs3ESzLx0EYdsWhXyhIpTrgtDqi7VgjZKdrt+Rq5HNRf1SY5gA8oEVOm6/UzcMg3wuX2nfc6IZEpieHkoZFWun0Ki09Y1BCYfQizJmtvH2ICsYZGHKopjTIVwm7C0TkCW8Xg/a6AQjP3sz3tgLS9S3QghBNput7t7X1tYIBoPV3HtnZ+eln+PsAn/9R2/nf/zj9/nVnxrgra/rw7ZuxkqFoIH55banh+KCQOjNsz7eEUmiJJ8gdUbgLOh9nRIDozNg7xw5ErZdda7TdR1xSXGdwm43ChKgvvT1KGOts67dD7ZtI8vyoaR3j4WgCyG4++67ecMb3sCdd97Ja1/7Wu644w7e8Y53HPahXULt8JSRkRGGh4ebln+2CyWW/+c/7WvqmOLX6BhYrPqpCyEoFgoUSyW8Xg+BwMG4HplSjJWp4KahQzXqJ6ClwDarxjCFQgFZ3qVxTSuQJJRYCHIXC5ksy65pj6vMZZYksLzdFNPazkJefe3tV/qSLCNFOygu5KHBUKvk0TDUDlYSBoapI0VNZGsFRS9i9g4y+JYXMTgx0Bb2lu2EYRjV3fvy8jKmadaNhA2c/w7M/CVKdBEkAZKMbfZhJU/u/00lBZ0B9Au5FqSTtkZ4QqwsdVJKXroICQ5I9PZPgb2XxYXAMmtSQYaBJEv1rXFb3HPaVcyhIuhOi99BcywEfSNvetObuPnmm3nPe95z2IdSpVwuMzU1xeLiIoODg4yNjTX9D579xiPkf3hm38/39viJhKbWK8OLqKpCMBBsqDJ8LwhkVpOjGOltKrqjfhQxTyGXQdg2gWAQ7w7GMC1nXdRFZqUaLfB6vQSCAWRZxvJ0U8pqmOk9FivtIOgOSiiIoSvbnrfdIkejrC14KOcqN2Zvtwx2irQkMzWQpWuwg6uuuoqenp6WVoIfRYQQ5HK5ih3o/BwnZv+WDs8s3oEsiiIhqT6EAebKi8DeX35VeGKUUl6s/AFOLhNgeAdZflbeNqAQGZXo6ji7f6+IDc51pmWiqRd3705xXTuLORyuoO/r0/jJT36S66+/nkgkQiQS4dSpU9x7773Vn5dKJd75znfS1dVFKBTizW9+M4uL9e1Rs7Oz3HnnnQQCAXp7e/nt3/5tzCaMwITKYIdGBrQ0E9M0mZyc5MEHH8SyLF7ykpdw+eWXN/2PbWULFJ44u/8XEJCdWyMx76VUKhMKhYhEGmvz2it5Y2RbUbIsi5Vzi8wtSmg+P7GOjkpY67C7rGxBYSHFfK7Mc/ML6IpKKBxC+HrJlwfIzVl7F/M9YOXyKGaOwGAQ5MZOhp1OEw2v0hlXkRCUkzbllQ5y6TI//NKDPPTAQywvL/PYY4/xr//6rzz66KPMzc1RKh1u/3E7IEkS4XCYuC/Nixf/gv7QEv4TBZCgbEqU83myS50Uc5WdKXvRPQGmOkh+loMVc81HujjK0tPbizlAZkaQzm9u5rUrJAnN4yEYCtHR2UlXVxc+vw/TMllLr1XNgVYnbsHon9j/+xxj9nW3Hhoa4g//8A+57LLLEELw2c9+lp/8yZ/k0Ucf5ZprruE3f/M3+dKXvsTnP/95otEo73rXu/jpn/5pHnjgAaByY77zzjvp7+/nu9/9LvPz87ztbW9D0zQ++MEPNvxLtYOg27bN3Nwc09PThEIhbrrppk2HpzSL/PeeQpj7y6WZhkE+X8CyLQIECA6OoYm15h7gDhhyF/lzm9+oqsYwpRJen5dOTwDZE0SSU7CJRexBYhoGuXweYdtMJlP874ceJuoP8f++9ucJ6BZwMPlNYdtYqyv4OwNYpoa+tn+BFaaJklui92SEtWUv5bSFsWpjr1jkHsox8OZhxl8+Uq0EP3fuHKdPnyYcDlcrwQ/bhe1QsG344Z/D2a8jgjZK3xqSrCLZGopkYVthSqVBdL1MLpdDVuRqa5emaUhbLcbUAKVcFHOxyIGtXgVY/l6Wnvdgl3d/Da88L6FcHSekTdHosV5SXGearMRfzAXLR/r+++tqFzo6OtrGJOwwg95NC7l3dnby0Y9+lLe85S309PRwzz338Ja3vAWAZ599lquuuooHH3yQl770pdx777284Q1vqBqnAHzqU5/ive99L8vLyw3vXn/jN34DXdf56Ec/2vDvtVdqh6eoqnogw16sdI7kn39xz9PH6maT+9d7omUJJeiho3ceieYYU+yEQGVlcejSdixxsd9dVSv97rURA60jgF9Z3mPerjlsHLfq9/v57tlJPvWthwj7QvzOq99Eh6/BVsldhtwveZokIcc6KC4WEFaDuXVFwQp0sTJlkCqu4ZE0jGWF3teMc/N7rqken9PH7RSLAW3tod50Mufh2/8NMhcQAQllYA1JVRHG+mdISJhrLwIrWPmnfTG8XNbL2JaN5qmEl70eb1WcLG8/pfMGwmquTfO2KBq58gDp6f2/Z/+LDPxs3zmzFzaG2WtrF5LJJLquV2sXuru7CQaDh7agdDwfDsO8rOF4qmVZfP7znyefz3Pq1CkeeeQRDMPg9ttvrz7myiuvZGRkpCroDz74INddd11VzAHuuOMO7r77bk6fPs2NN97Y0DEFAgHS6XRDr7FXhBBVj/jdDk9pFrkHn9yTmIt1q9ZSqYzX6yW2oa/WyuvkikOE/QczajVXHsHM1U6BAt2o9LtDvZNaLcZqATq68cvLDVUL74Xaqnqvx1PtSRYCbrzsR/jVQhcxf4hYrAdZFdi5g20nco7RWl3BF/NjCR/6yv6jVcKykLNL9E2E8aa6Ka1ZMAyL9z7PP3/7PD/y4ZfSeTKKx+NhcHCQwcFBhBCsrVVCpNPT01UXtp6eniMzAW1PnPkiPP5/wNIRflBO5ADlopgDdvFEVcyBSvGX14PH6yEkQnU+Afl8HmQPFgNoucy6R//BnC/b10lyOoiRa+zztPC4yuBNJ/BaO49D3onNcuaaptHf309/fz9CCPL5PMvLyywvL/Pcc8/h8Xiq4t7V1dXWzqDNZN+C/uSTT3Lq1ClKpRKhUIh/+Id/4Oqrr+axxx7D4/EQi8XqHt/X18fCwgIACwsLdWLu/Nz5WaMEg8FNvdxbRa1H/F6GpzQDM5Wm9PT0rh4rhKBULFEsrluhxrbOkZcWimjxE/ho/AO5HbrUS2Huophb6/3uplnT777NzcxYLUJnL35pqbWiLqCslynk88iyTDQSqVbVCwFlZRBjscB1g5WeXDtXwpYktO4OrLU1pEMIw9mFIhIlAic6KC4Wd5y2tR1WJkvEmyc00UVqyqJzIsTKVJ6v/eJ9jP/cFdz07muqi0JJkqoe6pdddlndBLTp6WlkWa6K+5G+2ZZz8MDHYLHSJiq8oAyVwTKpS5BbfuzC8NavI1U6FgqWoDMawfZ0kZkzsTJF8nqZTM3u3ePxoCpq8yPvkkyRE6w8aVeq8Rt/QS486mPo5j40Y//20rspgJMkiVAoRCgUIh6PV2pt1keZnj17lscff7xuKE80Gm3pAkmSpENbsO5b0K+44goee+wx0uk0f/d3f8ddd93F/fff38xj2zeBQOBAinQaGZ7SLHLffXLnnI24OJtckmTC4fCurFBzswJtLIJiZ5p0tBsOS/KQOe8HDGzLplAsUC7VDHjZZQW1sVJoqaibpkk+l8PepKpeAGXlBOXNJloJgbGcQQkGkDWwc/sclNEQAmtlBV/EhyX50VMN7NZtGymzTN9YkEwmCASRpvNM/uXTXPjmeV76B7fSe82lDoc+n4+hoSGGhoawbZu1tTWWl5erN9tYLFYV+FAodDR27+cfge9/ktkLi/z9Qxd40USM218fA6vARrW1sifZqf74v33hu3z/uQu89cdfxe0nOtAkBS0cAmp27+VK1EqSJDzr43M9mtawb7rwRkhdiFFetZvbBickzj8aYvhGE8XY+/yD/VazK4pSvZ6gcp92QvPT09NIklQ1Bmq2re9hs29B93g8nDxZ6aW8+eabefjhh/mTP/kT/u2//bfous7a2lrdLn1xcbE6n7y/v5+HHnqo7vWcKvjtZpjvlo3DWZpNM4anNANjaYXyc7PbP8YwKOTzFTEKBPB6fbte3QvLJrPcQaw7jySan6fO5ocwC0VKxSKFYhGPphHriO0rumGsFJC6evGxyN7Kh7emzn1uE1MdAZTlwc3FvAYrX8KSJLTuGFY6g7Tb9MhF746GsYslJMoETsQoLpcbMiOxcnlCapHgZV3IchBJlsicS/PNt3+dkZ88yS2/fT2KsrnIyLJMZ2cnnZ2dXHHFFRSLxWrefXJyEk3Tqrn3rq6ups8IaBjbgh/8D5j6FgibLzx0gU/9a4KTk0FecfuL8GjrI4PXL0GzFEc3rgEkhJDABoGEsNfXnjbYksxTs99iZlHn+ckVbh+q/6Nv5vLnhOYzpoWmrTuveb17270L0D0nSD4NokXRLWFJnH+ig6HrDGRz9xuDZram+f1+hoeHGR4ero7UTSaTnDt3jqeeeopQKFS95vZj67uRYzFtzbZtyuUyN998M5qm8fWvf503v/nNAJw5c4bZ2VlOnToFwKlTp/jABz7A0tISvb29QMXrOBKJcPXVVzd8LK2qcrcsi9nZWWZnZ+no6ODFL37xvoanNIvcA09sKV2WaVEo1BS87dPhzcyUyYdHCHmam08vM8BaIl2JGsgykXAEzdNYdENPFaCrD59oTNQrqYn1RYbHQ0csdon7nADK0iDlxV0uHIXAWM4iB31ImoQ4tN36Kr6AFzsaoLy8/0WvsG1YW6ZnJIC/K4z0qMTC3AqJv3uWhQcu8NL/8hL6b+re8XX8fj8jIyOMjIxg2zYrKyssLy9z5swZisUinZ2d1cK6wyx0AmBtBr7zMcguICwLYcI1A51MnFji1ivDUJIwyuBce7bhZ+35KypGSBuRZAjGKBc8FBZ0fu7kGzkTneGlHdeQNboIhdaQytlNnnfReAUq9yRD1ynrOoVCAWm99cvr8aB5PFuLkyfAWqqb/GLra08sHc4/08fQVRaSufN138o+89qRupdddtmmtr6d6y1zbXHN7ZF9Vbn/zu/8Dq973esYGRkhm81yzz338OEPf5ivfOUr/NiP/Rh33303X/7yl/nMZz5DJBLh3e9+NwDf/e53gcpFeMMNNzA4OMhHPvIRFhYWeOtb38rb3/72prStff7zn+cDH/gA3/72txt+LWj+8JRmoF9IsvK5r17y/dqCN5/PSyAQaMoow8iEhNeeb/h1AMqmwszTfqyySXCPUYPd4OkK7E/UBeh6mXy+gCRLhLZwnxNIlKUBykv7F0StO4ydyVRanbZhy1amJqB0xHjuuXM8OnOG6wcmGO3cX3RMkiQeTy9zz5fvo9Po5dWdr0FWZQZfO85Lf+dFqN797Rvy+Xw1976ysoLX662GUjs7Ow+2Tenpf4Qn/hZRKiBMG8v0YskBpKEStppDVS7Nm2ZnXoKRrakVEiAFwxh2kMKCgVXe5voUgvCoSjC4hbBv8Zw6YxbTQl3fvXs9HlS1ci2bvn6WzqgH3vHpjcHA+Dkka2uvicM0jak1Bkomk6yuruL1eutsfXeTUrVtu2JjewhtdPv6pC0tLfG2t72N+fl5otEo119/fVXMAf7oj/4IWZZ585vfTLlc5o477uATn/hE9fmKovDFL36Ru+++m1OnThEMBrnrrrv4/d///ab8Us0KuQshWF5eZmpqCqApw1OaRe6Bx+v+7ewqi8UiWgOh663IzspoI0Fke/87S9uujA6dm+/FJ6lEOsItOZd6qgDd/XjtBaRdinolT57Hsq1tFxkCiRID6A2IOYCRzCIHfCheCTu7+Tm1bRtZklt2vVmra3z1uQf4xvOnmStleNfJnwPWW+UEIK2fPef/hbi4RhKVL+d7ydlnyftW8XtVJLuEbXo5/6VJ/vn789zyvlsYelnfpsewHcFgkGAwyOjoKJZlVXdSp0+fRtf1ugEprZqmaBdWEfe+H2ktAZaNZfuwpQhClpAGdRRfAWWT/LiePlEVc0nzYnuiFFZAXzKBXRjDSBLZWYusCBEeje1O2Nd355rHQ5BKa2VF3MusFYpYskqxPIS1YuLxyAfu8ldeg6W5EfpOJDaNWhy2A5xjDBQOhy8prnvuuecoFArEYrGqwG/WrSGEOB596O3EN7/5Td761rdy+vTpfd8M19bWOHv2LKVSiXg8zsDAQNvYXOqzC6x8/l8r/1j3NM8XCigt9jTXOnxEO2b2XLFd6wuvSyOQDCNvkWNtJp6eIF5re1Gv5MkLlPUyfp8PfyCwzTUjUWQAvYFQ9WZoPeu79fVeY1vYFAtFSqUiQoDHo+FZNyBxJrU1AyUS4SuP/ZCvPvpdXnXFjbz2Ja/CRqWUKu/JTAQgVy7w5MLzDIR76CxEWUvkMcoKZduDpXrof/UYL/u9m9H8jWf5NrYpra6uEggEqrv3ZuRBjXPn0O//HL7CA0iY2MKHRRCQK+ubQQMluLnACsvD2vOvRvj6KiH1+TINh6CEIDymEfKvgL63SXsAlreLC8+qFDKV8bmGYdQNRTnIYt7QEPR0T9UVsB62mO+G2uK6VCqFJEl1rXE+nw8hBLZt4/V6D2WHfiwF/aGHHuL1r389U1NTexb0jcNTRkZG2saByGHlc19Fv5DE0HXy+QJCHJyneXDYR0Cd3uWjLxrDKIqCL9RLeq6nofapveLtCeKx5i89LUJQLJYoFAt4NI1gMLjDlLbWiLmD7Pcg+xSKyWRl1KpSMdKRZbm6y9J1A0VR8Ho9eDze9dGT+3ivUAjb1jBWK5EB3TTwqDU3dElCiQRB8VBOG5i5vRsM5ZNlVhI5pLIBho1ualj+IFf/x5dy2U81YA+6CaZpkkqlqgLvjDd1BH63BatWLkfhge9SfuKHBNQn8AXT2MKDTRBRG8wcMFFCmxd4SYpK+sIrST03gq234NYqBJExjYB/BWk3wi4r5K0TrJ216irYbdteN7WpCDxQzb17tsu9N4nYOHSEK1bVR0HMN1JbXJdMJkmn04TDYbq6uujt7aW3t9cV9Gbx1FNPceuttzI/P79rQS+VSiQSiZYOT2kG5anzJD//9fVebRN/IIDf5zvQqUuxCQvNXt72MYbhLDYqo0M1TWMtPYGeOnjPb29vEI+5Luqi0qWQL1Taf5xj257WijlURCmXy2GGVKKqglfVkJDqcuhCiGoBlF7WEUKsVzfv7iYsB4LYsgcjtbe0iRL0g8+Hkbcpr5bWx2PsTGFFJ5Wo2OLKZQNp3b9cBIIMv/FyTvzEFUROdu3pWHZis/GmtVXMGwfK2LZN+dFHKT78MNbcDLKSI9J/DkkW2CKEkOqvDdFvoYbrTaskWUbIGpYOhaU+lk6/qqm/0xa/KZExlYBvBUnf/O8pvDGS5yLomZ0X0LW5d2f3rlVz72pL0j5Pmj/kwTPf4S2/9A5e/tM/3/TXP0ic4rrl5WUCgQBXXXXVoUR0j6WgT01NMTExwdra2o4n1TAMZmZmmJubo7u7m/Hx8Zbl4xqlVCpx7tN/j76wgs/vI+D3N6Xgba/IXpXOoSSSfak4W5a1vtgw1o1hKm08BXuUbOJgrGQ3w9sbRCmdo+CY1gQD+HZTjCfJFO1+9GRrxLwu5L/emqT4vShBFTud3booTlQWAY51qGmYqJpa9QZX1YvtS7Lfj1D96Mm9h2o3Ink1lFAQU4dSsgQ7aEVxVSc5la8M4BICWTeQjEo4Xw2o+PoiRK4bpPdVcbpfOtR04ai90SaTSWzbroRJLYvAM89iTT6HKBcBQSC2jC+yhi35EVw6y1r02qjRtcp5kCSEomFbElbJBiSErXLhkddjlYOXPLd1CKJjKgFfimRqidPnL3Dt8BDB6BWknq0c115xdu/OF1Sc2Zzed6VJ95yPP/h/OF2a4c0//3P8xm/8RlNe87Bxcuher9cV9Gbh9LzPz88TDG7+4bIsi/PnzzM9PU04HGZiYqKlw1MawTRNZmdnWXz4SbqfXiAYDOwQHm49nm4/kXCiersQdsUYprRuDBOoyUVbUoRUInKwftQ12LZNsVCg5DPpCRQI7rbyX5IpWP0YqeaLuRBifUxtAW095L8xRKf1RCCfQ+xiCqFt2+jlizdhSZLQQiE84Rhy1mzJDktSFZRICMuWKafK2Prmf99S2mB5MleTMhVIuomsm0iqhCeoIckg+70Er+ij5xVx+l8dR/E1twfdzGZZ/ddvoD/xGKRXEUIgSRKqZhEZWELxCIR0cd67EIKn59foDProP+lDja0iKRq2kLHKovr7PDeX40/+4Sy3DNzCq/vf0tRj3j2Ce85+iQeff5yXjNzEL1x1Z9Ne2TCN6rVlmmZ1NGh1qMw+rq3gyV4WL5P54TNP8KpXvYrLL7+8acd7mLiC3gKy2SyRSISpqSm6u+t7YYUQLCwsMDU1haZpBzI8Zb847XJTU1ME/H4GHplFzrXPmMrgqIeAPEOxWKK4LkyBDcIkkFhNjWGsNT6re8/UiKaqagRDQQIDETzG/M4ZihaKua4bFb9uBMFgCM82/fdqwIca1DD3MJtA8ngoyxr5C6uUSxcHf3g9XjzeFrXTrOfdheJBX9UxC/WLkFLWIHk2t2GOjkAyTBTTQvEoqL6aG6CqEoh303nrCAOvPYmv62LUrFAobFt0ND8/zxNPPMFLXvISotFoXUhdrB/AV85O8sUzz/NzN8X58ZsC6zPxJGTZqf6W+M2/fZi/fWSGnqiPf/3Tl9Md8GKbl94u3/GxH/L337mAT/XyrV//dH09wkGgqliBKH99/9f43vMPc/v11/JTl/9IS97Ktm10Q68KfDXts/6107UlaQp9r7+W2K3xtrznNsphC3qb2TA1B7+/ssqubV2rHZ5imiYTExP09fW15UUlhCCVSnH2bKVo5MorryS4lCWTe+6Qj6wGAavP51jtsgiqZcKRyKa56II5eihirusXh7vUWt2Wl/LQN4BH30bUJZmC1dd0Ma+kIwoYhl5NR+x0/dklHb2ko3V3YOdyCHPrtIWkaUjBCPpyHsk2CAVDhIIhLNOirJcpr4/tVBSlmnff7w7rEoTASldC+irg7Q0gNC9mzkJP6wifzfO+s9hLChElQpcnhiorCE3D1FQs00KUbS4YS5wrLnJlZJTu500Kzy8w99c/wDsQI3bzEKnRMvf8y98Sj8d5z3veUycgtm1jF3U+9F/+Kw8//DCvv+oqfu3KyxAlZ+yoDLKCAP7m9Bl+OD9HMGZxx8tegQpYlo1p2ViGTbao89T5DLopyJZ00imDzi1qal5++Qm++OAyNw9diaYc3C1VhKNk8wGWJgW2BbeEf5yJq29ioKMHyZ9DFJu/+JdlGZ/XV0lXUYkelvUypXLp4rW1xe7dP9rJ4L+5GU/X4ZlxHRRHzsu9nZFlGb/fX3WL2zg8ZWhoqG1a0DaSyWQ4e/Ys+XyeeDzO4OAgEpD6pwcP+9CqmEZlgIplW4S8/UTGMsib9Naacie52YPNm1tmbQ4/uOlwl/JiHqlvAG0zUa+KefOcBusntHn31VZlJLPIXg0lFsBaS2NaFpIkocgykqoihaPoy3lE7tJWKkVVCKgBAoEAQohK3r1cJpPJgGBPhXW7xcoWgAIyEOj08sDkM/zNc/+CqVtc5buMF8Wu4vJoZZCNJEngVTAk+N7s0ySKs8hek8HOF63/fQRSdpH0Nxb4/uKTPHnue6zEnuGRJ1X8sgqWVTHosW2EBNKZBJ6VNNpCmlyHBVSEWAgZw67Yp/7kVdfi95u84aoJihnnd774u2vlbu6+5Uf5+vgPePUNXQz0+jBtCxmqO3gAMxfk34z9CC/99V/Dr3pbfiOXgkEKVoilGZny1LoZwDqKrNAT6MPMw9z5KEODNqK0i573BlBVFVVVCQaC2MLG0CvFdZlsBmGv7979XvrvuJaB269tqVGSyzENuQsh6O7u5mMf+xizs7PccMMNDA8PMzIy0raTnWoHvQwPDzM6Olr1sS48/jyZrz18yEcItmVRKBQol2u8zWUJb5+fSKDeGlagsLI0jJlt7Q2l+n62TaFQpFQqrefwdy4Y9PUH8eg17neSQsHsxWhg3Gj9QVUmtOXXJ7SFQqE9e5NvJrCrmskf/fNfockK/+FNv4S/KCOMfXizi/X86HrVvGmaF53F9uoLvg2SqvBEepr//bV/xLQMXjQwwdXeUcbUgUse+1jqLM+snuPU8NVcFu1HU0AybYRduU3ljRKPJCfp9Ue5umsYxSNVe+bVkMDvzVI2Dc7n0oxEOlAlCVP4sW0VWZSRsFFjgkjP5lMdhS2RX+tBMcuol2fx9yQrHjq2wBYWkmYjCRMFCasQRMx1kM5eR9noafxEbXX+PB50T5TUvEpmefe362CHxEDPCuiHU4xqmiZWVKP84k7WpCJ+v79q43vgTn8HhL3u/Lib6FsrOJaCvri4yPj4OLqu86Y3vYlPfOITeL2XVq22A7VV9r29vYyPj9f1zQrTIvm//hnrEOZqV4/Brtlhej0EApcW5YXjGj7OVf+d08fJnzuAfL9wet3zlTx5MLgn8xWlx8uDT9xPNBjmmqGXVMaxNgFzfQysZVmVSIF3fx4Bmwn6D8+d5U8e+CdUWeO37/gFLgvt7Jm+G6waZzGnsM7rTPXaz0xuWcLXE8TOZRGGSTKXQVMUSqZBVzBCec1kdaaAbW1+C5J9MkapItYej4xHA9kWl/gYaGGZUDQPhl4VfsvWsGwvkjCQuZjPV6OCSO/mYm6U/ZQzIVTK2FGIXDO96eOEENimH3PKT7mgMjt/3cUoh9ak2eWyjB2Kkl71kZwR+55MEO6V6I+mEMYB+7xK0H3bFXS/+kokVa56BThWvrqu09nZWef0147pz73iCnoTyeVyfOxjH+OjH/0oQgh+7/d+j1/7tV877MPaFNu2OX/+PIlEgnA4zMmTJwmHw5c8Lv/Is2S/+cNDOEI2uNAp6y50m+8wJUUmNlYAI4XQ+ll5vvWREEM3yOdzCAHBUBCP5tmzaD4w9TT/4/v/QkDz8Z9f/XMMRhvri7ZtQaGQp1y+tNp/P2wm6Ibfx5e+910UZF592c14gn60iBdMAzOba8o4a+H4gpcrbXG2baNpuyusE4CvL4QoFhCl7esnLFOwOlOgsLp5JKdW1B0UVcLnldACMj45jSKt70AlBeELYRcNZOvSxaQShmjf/KbXSD7dhVy2kCQboUgEbriA4t382M2CH2O6AxWDNekUhbwXPZ2rnCfLXm/x8uD17MMtLBIhXwywOAXblEvsidiARHdguepE2Go83SEG/83N+Ec6N/15rdNfMplkZWUFn89Xt3tvuyl7u8S2bSRJOrSRrEfzrG1CuVzm2muvZXBwkHvvvZd3vvOdnDhx4rAP6xIcf/jJyUlkWeaaa67Zssre1g3yDz19CEdJnQtdKBjEs4MLnbBs7vmXZ7n3mfu544of5XWX3dSyY7Msi0J+fZJcg8Y63cEIQS1GUAsSCjUwcEdAsVSiUMhXvPRjzfXSd5DCYcSKweuueGn1e3ZRp1ysCKLk8aF1+JCwsTK5fd/EpfWpXoqioHkqxU1OAVQul0NRneInL5p20XjE0xNEMsvYq6u7eh9FleieCFJY9bAyk7+kitwu2Xh8CnqNqOuyjKoVUESZogBZjaBIMkq5gJTJgwSyT0WYdrVVUg5BtG/hkmvYMlWKa52oolT9mTJS2FLMraK3KuZlI8Li+R4QEBnuJqLkMdaFXS/r5HN5ZEWuegNsVYAo+X2UpAjLswqFqebvr9bmBfKJHjq9yzsOA2qUzpdP0PPjVyN7tpYWSZIIhUKEQiHi8TimaVY905955hlKpVLd7v2oTTw7TI6NoHu9Xr74xS9yzTXXIElSy2ei74d0Os3zzz9PqVRifHyc/v7+TXdguq7z9a9/nUgyz0ThYHLQDvVjVwP4/LsPHT1y9gzPnEvToz7XEkGvhP4LFIslvD4vsSZ4dl8Wv5b/qI/iUTTsfABrUEPOLu9pfWAYlTY0IQThcLhlDoNSOER51di2n1/oJvrSuoGMouLpCCApAiubhz2EXVdWVqrOic5c9r6+Psbj43R1d2EYxnphXRoEeLuDBAIa1urKvv4mgQ4NbzjK2rkC+VT9NW+ui3rRBF+wRETLoFsa2XIYTdJRy5U0iQR4fQoeBUzdBhtUn4rkE0R6zrMxdFHKR7HzCqp0cTdvhyA0sLjpMZolD0aiG3W9ADS1dnnlXSXIzBkgNCJDfYRiRexs5XpwWryy2Wx1CpfH48EbDCCCXaSWNNYm7fUFaeuCpSvnBfJIDzF1Cezmv48W8zPwlpsJTuy9lkBV1apdqhCCQqFQ3b0///zzeDye6u69q6ur7Xfvh7n42HfI/UMf+hBf+MIXePbZZ/H7/bzsZS/jwx/+MFdccUX1Mbfddhv3339/3fN+9Vd/lU996lPVf8/OznL33XfzjW98g1AoxF133cWHPvShhv9or371q/mpn/opfvmXf7mh12kGhUKByclJVlZWGBkZYXh4eNvf78tf/jIf/chHCGR1PvwTb6M71HrDm2aMXX0mmeJfHprmR264mZv65Oa50Qqq/eSKqhAKBlGa8aGWVTLZjkt6pr3dXgJqFvTt8+mWZVMo5NF1ncAeFz+7PsT1v4EcDlFaNffvgy9JaDE/ilfGyhe3DYXPzMxUBxuJmpu/JFcmrl17zbWMjI4AoEb82FKJUnKVsq5jmSaqquLxevF6PCiquufSgWLaYGWmgLVuVGMrMlrAIBgpk856kYWNR965FdLrlfFEZTp7z6OqAknY2KZdKXxb7UHd4HRoSxC4YRHVf+nf3dI19LN9qFTeVzdCJM6/ms1H8glCgx78vhLL8+c5vTjFye4heoOdFBQPi8uwlBAoslqNcnj26cu/V3rHJSL25guW/RJ78Si9d16H4mt+mq124tny8jLFYpGOjo7q7j0UCrXV7t22bWRZPrSarX3fFe+//37e+c53csstt2CaJv/pP/0nfvzHf5ynn366zp3tHe94R91Y1FpbVcuyuPPOO+nv7+e73/0u8/PzvO1tb0PTtIbnogeDwWrb2mGh6zrT09NcuHCB/v5+XvrSl+7qD93V1YWm+wj5Avi0FvvJ15qvOKHifU70Gui8mTdd+SIoQRaVsJhtWNQN/eLuNxQKVXa/Tfr8ltUezMKludZysoyuegkPhjbdrde2oXk8nqZM99qOhsUcKrOyVws4aVk1EkYJqIhSGTt/MZK1srLC6dOnL45GrX2JdXF/6vRThHpjDI71Y62mUbg46tSybfRyueoDIMtynfHIbm6+/qjGwDUR1pZ08ms5PKqBbSvoWYj49brw+3YUBPhD58mVbFRNwutREFIEM+vl8blJLmSz/MjICB3rvhXKkL6pmNuGSvlsHxoXFxHV3XkNkiqDLCEpMoWMRCEb4L65s3z7uW9z9cA1vP7EWzHWX767s2b3nslgrxu0VIejtGga4dKUQD7ZR8hsXNTVkJf+n76R8FWXdis0C0VRqkN2rrrqqrrd++TkJKqq1u3e26GL6TAXGPsW9H/5l3+p+/dnPvMZent7eeSRR3jlK19Z/X4gEKC/v3/T1/jqV7/K008/zde+9jX6+vq44YYb+K//9b/y3ve+l/e///0NhS4PM+RuWRZzc3PMzMwQjUZ58YtfTCi0ezOFm66+iV+/4l34NT/+QBo2KfBpmNohJdSbr+wHWw2SPntxp7s2Y8LYyL5F3V73hNcNoyW7XzvQQX5m6/MqTEFmVsfb3Xtxt+6cs3weSZaIRKJoWxQJNgs5FKK0ajV9Qp2ZKWKuDwxTAkHUsAdMg8QPHqnszLcI3BWsMkWpyLmzT9MX9V/yc2XdA8Lv918srNN1crlcXch5o6uYEIJ/fe5xVgt53njjS+g82UHssjL58zap51cxy5Uwt1W08fiVHUXd0mQ6hxZQ5Mp5Mw3B8mIXHsvAMPP8y1SCC9k00VCQV8TjWEGZyPh5LLT146l8WaZCMTGIJpcoCxUhoKCHeTx1FaYBliWwTCqV+ptcn6tLfYjSAGFlrCrmUIl2eL3e6gLfNE30sk6xVCKby6IoakXcvR40tbm794WzgsErewmUlvb9GuFrB+n/qRtQgwe7Ew0EAoyOjjI6OoplWayurlZD848//nh1XnlPTw/hcLitdu8HQdPuRul1a8rOzvrKxr/+67/mr/7qr+jv7+eNb3wj73vf+6q79AcffJDrrruOvr6+6uPvuOMO7r77bk6fPs2NN9647+M5DEEXQrC4uMjk5CSapnHttddecj52w+y954kpnWDDQirEidgUzcyvVVuqqkNKLjVf2Svpcg/Crg9dr02bSGMjhJnd9evU5cm9XjpiHc3frcga2WUV2Dmn7OzWfb1eSosz2HsZ7NIgUihIKW0hzH30mO8Bq1CufFkWU+cWSJt5VBk6vQHO5hY5V1jh6sgAmgp9gSAROcjS4iKWZW1b+OcU1nk8HoKhEJZpUjZ0SoZOplhAUTW8fh9+v5/z2VX+f9+7j4JZon8oyI9HL8MEvD4YuDpC+nyRzFIZJAmraOH1K5S3EHVLlegYWkSVKz/XDQ+51Rj+9Vy5R1E5GesloHjpD3aQydpoY8vkcvWLJtuSyZ0ZwC8VqA3wn5m9glxmw+dxi8/PVb0vYazjagKeIN5eH+WlzaOGjkFLIBjAtkXVk9+5r3o0x/zHi9wEc5YLz8LwVT14i9tPTdyI4tfo+8kbiFx/4tDFUlGU6jzyK6+8kmKxWN29T01NoapqdYxuV1dXW07PbDZNEXTbtvn3//7f8/KXv5xrr722+v2f//mfZ3R0lMHBQZ544gne+973cubMGb7whS8AsLCwUCfmQPXfCwub94rullqnuINgdXWVs2fPout6teBtPxd8eU3nwjcu/u7ZeYu16AgxaabhY6xM9sqvG8P4iIQjTXFustQQ6cTm4rg6bUK8slPflg0tctFodMsWuUYpKV1Yhd3Z0QohyKfzJBdLhPp76ekHxWi9la0UCqJnBBzg7HjTNPHIGj2eGABl3eAbi8+RMjKUbZ2XdI+yUMgDEpIAIxBE81ec15xBJcKyK1tbu+JpLWwBllNtruFVfXhVqo51eqZMMpnC1Iv0xcLkCzDkr592KCkSsZEA/k4PK9N5jJKNuYWoW4pMx9ASmlK5HjOZDuQSVTGHykLjjsuurPy/LMGwwBeud9izLZnsmWECUv2moKQHubA6tqfz6tdCCAEz58uMDPrQl7ePuMmyhM/nrbgcEsYwTHS9TLFQJJvNVmoUPJUahUY+I+eekRi9tgcttztRD17ex8Cbb0SLXBqZaQf8fj8jIyOMjIxg23Z19z45OckTTzxBNBqt7t4jkUhLFiSH3QXelDvmO9/5Tp566im+853v1H3/V37lV6r/f9111zEwMMBrXvMaJicnmZiYaMZbb0kwGCSVSrX0PQDy+Txnz55lbW2N0dFRhoeHG2pXmv3SHJZRfxNfPCPhv7YLr7m/30cIQWk956tpHjo6Yk2d1pYudoPYere7mjCRxocJ2ec2/blpGOTylbnZwWAQ7w4tco1gBzopzOxGkC8a1iiqSjQWRTVUsimZ8GAYOZts2Qh6KRiknLYRht2U3dhuUdcL2JxbkkfRiIc6iepero8N0+e92NYnISGndfTc/gxLHNMar9dLGDgxCB8Z/QkKxSIeWWFtdbU6rtNxrPOGVPqvjpC+UCK7ULpE1C1FJjaURFMNLEtmbaWHAMVtryVdhdiJWRSPXC3CE7a0qZgDTC1eiRD7ixjZNszO64wO+CjvIOq1aJqKpqkEg8GLo03LOmuFAqxHQZzc+14X6DNPwtj13ajZ5JaPkT0qva+/lthLxg59V75bZFmmq6uLrq4urrjiCkqlUrWwbnp6GlmWq7v77u7upu7ej2QO3eFd73oXX/ziF/nWt77F0NDQto+99dZbATh79iwTExP09/fz0EMP1T1mcbFSrLFV3n23BAIBzp8/39BrbIeu60xNTbGwsMDg4CBXXXVVwxdFKVli/tuXFqsIAecTUcZGs8j2HtrY1ne9hUIBWZaJRCKoTS4asbQImS1257WsTFlIE0MErbnq92zLJr9eJV61km3hh0EoGtlFGdg+hG2aBrlcvtKD7xTirauCMG0yszbe7l78Whap3NwokBQMUM7YNVauB3dzUBSFvr5+lpYWsYVg2UjxusFrL3mcJEn09fU1LRUSHvMi5ZbwRqN0RKPYlrU+571SWCetF9Z5PV40j0ZsyE+gw0NqOo9RtPD6FAq6TfRECo9WJl8IYeZ8BKSd/jYCz8lVJGxME1SPjFW2yZwZ2VTMy0aA8yvxhn5X24LZBYPhPh96cu+1MbIs4/P5KsYlotIyWV6vhclkM2iqVnWt21WnkCQx/QSMv6gTObNyyY8DY10MvOVmPF0HOeO9+fh8PoaGhhgaGsK2bdbW1kgmk0xPT1+ye49Go0dm4bKRfQu6EIJ3v/vd/MM//APf/OY3icd3vtAfe+wxAAYGKlWRp06d4gMf+ABLS0v09vYCcN999xGJRLj6/9/eeYfHVd3p/3Pv9CLNqHfJcrcpNthgm15ML7EteUPCssQYSGgbSiC9kJBNI4UEQlh+CSXgWKYnQGDpJGAMNmCDsbEsF0lW75pe7vn9MdJYktU1RZbP53lIrCn3npm5M+857/mW+fPHOzQgYr/EYw89HA5TXV1NdXU16enpnHjiif0i9yfC/udrB23PCBBwaTR1FZFrrxrVsYLBIB63G03TsFptkeCbOFyjHe70YVfnfWmt0mBmIdZgDV5PT5S4yRifffJB8CkZhIdJ19K0ngmGf+QJRmRv3UxKvi1mq3XFasXfRVTMewOzEvnbUlo6jcbGBlqCrRTYBk+XFEKM6vs+GnrFvC+qTofZYsHcG1gXCBII+Ol29eRy9+wnZ8+x4WoK0NHoJ2tWN4S8tLVmY9YCGJWRJ77+TMhwRvaohQbBgIZ3fylWXIM+fm/jHISYuLMVDglqGoMUZZsJtE4g4FUBg9GAwWgAbP1K97o9HlRFiTbdGTbDQFHYs1XHjIVpeJrrUBUFq8VK1rnzST955pRrqKKqKunp6aSnpzN79mz8fn909V5dHdka7N17z8zMHFMKmqIoh2ce+vXXX8+6det47rnn+uWeOxwOLBYLVVVVrFu3jgsvvJCMjAy2bdvGLbfcQmFhYTQ3PRwOs3DhQvLz8/nlL39JQ0MDV1xxBVdfffWE09b+8Ic/8Pzzz/Pkk09O6Di9CCGivcnNZjMzZ87E6XTG5NgAngYvH/zg4355v4ORPz9Eqqgd8v5+VdR6fhTjdYGFjA5qdx5arnY4/H4/anoHmYbWnlKyiUkz0WwZdOwbfD9aENmS8HgiaWg2mxVVHf0PtynTNOHVumK1EnCBFohMjnx+P56edL3eXGWTKXbd0IZjT3s1VVs+OiTavffvo48+muLi4gmfJ6XEjOIeQ/qUgHA4hD8QIOD3EwyG0Fn1OIs8uGr8eDvTwDO4GA8kZFBIOb4ane6gW9P+eTEpwovBoEYK0/QhEDTz9mcXo8VA0HvRGxQKs/QEWuMQkyEgEAxG6/KHw+FISdoep2Ow1NR2bwvvuZ7CZNZxx90/JG/utNiPa5IjhIiu3ltaWujs7CQ1NbXf6n2472BvieRkFb8Z91nvv/9+IFI8pi8PPfQQX/nKVzAajbz66qv87ne/w+12U1RURFlZGd/73veij9XpdDz//PNcd911LFu2DJvNxpVXXtkvb328xHKF3tubPBwOM2vWLLKzs2Mukvv+XjOimAM0fK7HMt+BIdTZ73ahaXi8XnwxrKI2Eh1daYwmUhx6IutdLsKahg0nhqNy0YfityXSD72J7vrB7woEIyU6FQVSh+jpPhITXa0rNiuB7oiYH2zqomGz2TEY9Pj9AXw+L92ubgw9AVG9lmqsp2qWPDtzjHlkLzNHKsU1NCIQKERs9tLSUtLSJlAitwdb8RjFHEABnV6PVa+PuGIGBVN+Kx6PGdUcxujpIKhXCQcGr4HfF11pZ38x31WEXfMigGBQw2DsL+r7mubEVMwhkkpX2xyiMNNEoC3Goq6A0WjAaIxcz+GebYzetEtVVaN1+Q0GA6pOxThdxbNfjz7fjteYuGDMyYSiKKSlpZGWlsasWbMIBALR1fuHH36IEKLf6n1gzfZkB8VNqeYsffnb3/7Gr3/9a954441xH8PlcrF79266urri2kfdVetmy51bGe0nYXbqKM7fjypCfQrDeNHrdT3dxuI/OwwZ0qj9fOR9tWhk/SD75FmzFCzB+Iu6V83D29jf2gyH+/ZNt2Iym1FiII9jXa0rVgt+l0LYH8Tj9uD3+zBbLFh73qe+15umafj9B7uhRYq2mHq6fA1eJ3wsmHPthNv612DXwhrBUBCD3hCzbRFbkRmdd2KFTRSDSuqMAFrATLi1ExAEgyE83T52ft7Elj11THOmMzszG1VV+703fidkzN8X/bt9dxH2YP/rQ1GIrtSDIRNvf3YxYS0+3yuDUaEgXU+gPf7ZE9C/8Q6ZIUxzFPJPyiSnOIuamhrsdjvHHXfcYbuPHC+EEHR1dUVT4zo7O7Hb7dHAurS0tKijdtit0Cc7E0lb8/l87Nmzh6amJgoKCjjqqKPiWoFo37M1oxZzAF9HmJa0YpzqTjxuNwD2FPu4uo2Nl/ZOB8Otznsj6z091dQGa1bSXCnImpWPJVgXt3GGrZl4+xSQ6a0V7fNFnIy0lDQUJXaTtOhqvcCG2jXCat1qwe9W8Ha5e9q/6odt6qKqKhaLGYvFjBBEK425+tUJH581P5iYA5HmIrrYFQ+xFVrQeceXkhrWNDZW7SYvzcnCk4sItQcRvl6nSsFgMOBIN+BJbaDS14q/K8ysjEyCwXCkYYuiIvQ6HDMPXm/tVYWHiDlEYhd6V+q762fHTcwBggFBXXuIfKeRQEf8ezfYciwUnlJMwclZ2PLMuN3ufqVVFUVh586dZGVlkZ6enpBtnsMBRVFwOBw4HA5mzpxJIBCgtbWV5uZmtm7dSjgcJj8/nwULFiRtjFNW0HtLvwohRj3TDIVC7N+/n5qaGjIzM1myZAkWS3xzLrv2umj5+NDo0uEIh0Ls+9hNeqmJwtRwxPZJ4Gw6aEzHvWdoMQ/4/ZEKdIo6oo3dXAlZs/OwBIbwxCeAMJjpru+dKQn8/ojdqNP15LnHaRYtQhpd+zXMmdmYh1itK1YL7o4Q3W1dA6LpR4eigKknXUnQU7RlnNa8OddGeJTd0SaCtcCCzjf++hJ//+gjfvXSizgdNp7OvYJ02+DBqLPzsjlrYYCZuZlMz87C3RGgu9WHtyuIP78dDTfBkELn3iJSg74hvztCgMenp0UcRTwbpwAE/IL6Do28OIm60W4gf1kGBadkkTarfwW13s5n06ZNi/Ytb25u5tNPPyUYDPazmOP9e3g4YTQaycvLIy8vL7p69/sT47IMxZQV9LFUitM0jbq6Ovbu3YvVauX4448nNTX+DVEA9j07+ipqWk8Dld5e2+GuEvT5LRAeXSBQrOhoT2Ww1fnB/d8wVqt11D2Bm3cpZM/OwxxjUfcGnWgBf8+4evbvbTZMpoNpaPHE1+LH32e1LtDQhEBntdLa4MLf7YlJup7CwUpjNpu1nzXv8fSpp24yHWLNm3JshNs74q1XWPMt6APjt9mF0Q6mdFS9DlULD9vzvSDdQUG6I/p3apaZ1CwzukIDWkobrjYrtR9mYPX6CAoNRVFRVQVV1R3yOexpmklrmyAty4irOb6rZ79fo74TclONBLsmfi6dQSVnUToFp2SRvcCJqh95pa3X68nJySEnJwchBC6Xi+bmZurq6qJ9OnprqzudTrl670FRFFJTU9Hi3J52xHFM1T30Dz/8kDPPPJOampohfyyFENFKQgAzZswgMzMzYXtHHZ938vGvto/8wD7NQAxGI1arNWrLWjN1FGXtRSExF1LQmMGBnf1n6QMnGlardezvoQLZszTMgYlVCOwlbM2ifW8gOq5E5LkPh0gV3PvG/9Lq6uA/j7mAaak5kXiHIez1yLdSRKLtlfFPP/pa84GAv581n1LkROl2Mab9nnFgyTVjCDcTLSc3WnRGNFMagW5BqNOHIU1lZ/O75DlTmJY1tpLKiknFuqgBBTdhzzTC+9z4ukO42/242vwE/eHoj7GqqqiqSlgYef2ziwhpkWYpaekmXE3xX4GZzSo5doVgd3DkBw9AURQyjnJQeEoWuSekY7DGbs0WDAaj1nxLSwuapkX3j7OyspLWYWyyIIRA0zRMJtOEiotNhCm7Qh+p21pXVxe7d+/G7XZTWlpKfn5+wmeb+54dvHJaX/w96UuqqpIyiH3taQnTnlZCun5vvIbZj/bWFKKrcyHw9nRqMxoNw+7/joiApkqVnFm5mCYo6sJgonG3C0+3G73egDPNiW4MaWjxYP/eWrbX1OAO+WgK+TgmNXVIkRZCRDRWiUyWDuYBH1T20Qr8UNa83xTCv2cPep0eU29FtjhsQZizTRi0sYi5grBkEAwYCLR4QHh7b8aZ080yZ8m4xmE6KoyCG81bgrbfg6KAJVWPJVVPZomNgCeMuz2Aq82P3xMkHA7xyb4imls9mEwhjEYT7W2CtGxz3EXd59NoVFVyUgyjFvXUEhuFp2SRf1ImlvT4CKvBYDjEYm5ubqampobt27eTkpISXb0fzsVZJsJhm4c+2amtraWoqIiWlpZ+e5Ner5c9e/bQ3NxMUVERJSUlSYlIbPu0nW2/2zHk/b1pXpqmYbXZRpz9lhzjwRIaf/ek0RAwZlG3MzKOaNcxRcFms2KIVZtXBXJmhTGN054NBALUdZgJd2jY7LZIoGASibgXbnw+Px9078bd7WH59NOwp9ixZBrQK34Ud1ekHnrflqUKqIoSUeToN7RH5ZVI6dWxinsvxiwbdHcRDoWiZUQDgQCK2lNG1GTCEIOoeVOmCZPaGimPNgLCnEpY2PC3+hGBQ7dzHDNVTOHxZUTo842Yp+1C8xUS3hcYcXIR8mu4OgWv77qAqo8jDk8wGOip0mYiO9dOsDP+P9wWq0qWRSHkGlzULekmCk7JouDkTFKLk1vJrW96V0tLpIxs78o91qVVJyuRibjAZDIlbStiygp6W1sbGRkZVFdX43Q6CQaD7N+/n9raWrKzs5k+ffqo93jjwZa7ttG979C9by0cxu3xEOyT5jWagDe9WaV0Rj06LU4NaQQ0dk3D1ejDNY598rGgKJA9O4TJP/oJSm+71XbNiq7LHmm3msCyqQMRCPw97oXBYCC1MAdf0+CBhKpBxZyhR6cPoHq6ULTemf7AY/b9x0Fxh4MCP9IrNmZawdWNGGSvrzdP2e/3IzSBwWiIrt7H+gNlyjBh1rciwkOLuTCY0fROAp1hwq6hV70Gh460jLqxW/YAOgXbkhaEL5XwvuCoj6GULkOZdy6eziD7trSx+71Wdn/QhNftIxgKYLUr4Db06V8eHwfIatMRDNTQ0tbMdOcsbCl28pdkUHBqFhnz4tNgZKL0FmfpFffu7m4cDkdU3OPVGCXZSEGPI737uVu3bqWhoYFgMEhKSgozZ84kJWVs1c1iTctHbXx6385+twkh8Ho8eH2RtqFWq3XMF0VKrp6CtCriEeHk1WdS9WGozz65JabpXgNRVMiZFcI4gqhH3rdIfIHOnkrYnYWiJffHIhgM4u6p8maz2zDbrQT8BsL+QwU9aq8TmcjoDDqsWSYMxhCKtwtCw6QG9vsfJXqMoax5Y4YFPK6ezmfDE+pZvfv9kaBCvX701rwxzYjF1I4YbOyqHs2cRtCjI9g2iqBVIcic50P1d4z82EEwL1BR9V7C+8KR7iijQTWgnPnfKCZ7v5uDvjD7P+5gzwdtVL7fSGXd+zQ1NjEt5WhSTWnRZjIGg56x+iaqTkFnUNDpVXQGBbXn/8NKkFd2/g2Xv5Evf/lLXHrVReiMh1cgWt/GKC0tLej1+ujqPSMjI64pwYlECnocCYfDmEwmMjIymDdvHg8//DDp6elJnxkKIdj8o624D3h6b4iU+fR40Ol02CdYGCZ3rohJq9UoQuD1+dm1Pw3FZxg2kCvWKKpCzswAxsAg7R0FkZrVPfEFVrudgFKAvy3+ebxDoWkabndPsxlrTxAeCqozFW9jf+ekr72uEHmtAx0FRadgzjJiMmsRcQ8OvZ96UNx7/9HfmjemW1C8oxPzwV7XaK15o9OIxdyBCB0cqxACrGmEQhYCLd4xjSF1uh6zGDnWZDB0WUZMJV2E94pR2f69KNOWoMw/f9jHtLW2c/dPf0/tnjrOO/VSivNK6XZ30tXdic6gkpbpJDMrg/QsJyaLsUew1Z7/Iv9W9Ur076F+lzRN469//Ss1NTWUlZUxb968Mb0Hk42+bU2bm5txu904nc7o3rvdbk/6b/R46RV0s9mctNcwJQX93Xff5Rvf+Abvvfce119/PT/+8Y8nzSywcVMzOx6sBCAYCOD2eCIrOZstJvtMigLTju4ed6vVvgR79sk7ScffmJWUfTBFVcid5cfgP9jeMRwKRW1/m9WKyWQmZMuha39yxDxSC743OLB/LXh9uh13/UE7WYjI/0TX1D1BNCN+/RUwZ5owWQVqwAX+oZt6DLTmDWkWVL8HEQ7H5IdmKGvemmEjJdWFCPZ8DkYrYZ0Df1sAzTv2iG19io707PoxiXEUFcwLFESNF8JjaPGq6lHOuAnFPHzaqhCCd999l+bmZs4444xoX4feTl7Nzc1RwUpLS4sKls1mG/NnEA6H8Xq92O32kR98mOH1eqPvVVtbGwaDIfpepaenJ63i2niQgh5jurq6uOqqq3jppZe4/fbb+eMf/8jjjz8ebduabLSwYPMPPqK7zh0pOxoMHtyHjuEFYLSrTCs5gKqNLxo3HArj9kTGZ7HaaHfPIdA1jh/VGKHoFHJn+tF7m3qqvPl7KqZZIxHgJhvt9SZEOPGXcsRedyEE2O22fsGBqklPwK8n7O/tntbfXlcUddy7/KZ0I+YUBTXkBu/Q1rXBaUYJeBCh8CFFlmLxo9PtdbO7sZai7Cystk4MOj2qLRu9ZgVXaEKXdea8AKpvbBPT6pZ27nzyZWbNy+P7q5agamPr164UL0Y5+qIxPWc4PB5PP8Eym839BEvmcR8kHA7T3t4efb+8Xi/p6enR92tc6bAJZDII+uEz/RkFKSkpHHfccfzhD38gNzeXRx55ZNzlX+PBgbfraK5qwdezD52SkhKXDz7g0mjqLCQ3ZXStVnsRPfnkPp8fs9lESloafnM+gfrkiTmACAv2faphzgjh0GmRNLRe218Bl9uOCCd2da5pYdxuD4FAIDIpGywIz2Il3OUdlb0+VvxtAfxtAHqMqRmY01R0YQ943DS7Onh33zYWzp7PrGAGIhT5/AZea5qmRW8b73V4z9vPsLl2FytPOpmrT7sUd10HnnYvgUAnqqL2tO80YTSOLWo+ZZoe1Tf2QkNPv/8J/9y6k7d27uZLJ0xjdkHG6J+s6mDGKWM+53BYrVZKSkooKSkhFArR1tZGc3Mzn3zyCaFQqF8keDKDdCcDOp0umtc+b9483G53dN99165dmM3m6PuVnp6etFzvoZgMa+MJCfrPfvYznn76aXbu3InFYuGkk07iF7/4Rb92qj6fj9tuu43169fj9/s577zz+OMf/0hOTk70MdXV1Vx33XW88cYb2O12rrzySn72s5+N2W5RFIXvfve70b/j1RN9rITDYWr21/DxQ9vRabqJ5WuPko7aMLb5RaSMZv9xQIMXp9PRs4+v0FZnApIn6H0DzFS1AOv8MDr/wVK5IUsOgabEifnAVqtpQ3S106fbcdV5x2evj5FAV5BAF4AOgz2dih0v8X/b32Be3XZ+c9ltYFJBAYECqD2vQ4nuuwvR684r9Dyw3/8LrcdZEET+rUUmWUIIWj0hvKEALQ0dhFt9mE1mzCZztAGI3++P1JoXvQVtIu07h2v0orOoWPQNY77sBHDS0acxffOnzMq3My3bOabnK/nHolgcIz9wnOj1erKzs8nOzmb+/Pl0d3fT3NxMbW1tvzzu7OzsKRsJPhZsNhs2my1akrZ3MrR9+3YCgUC/krRW6+BlgBNNsj+zCQn6W2+9xQ033MAJJ5xAKBTiO9/5Dueee260RCDALbfcwgsvvMATTzyBw+HgxhtvZNWqVbzzzjtAROwuuugicnNzeffdd6mvr+e//uu/MBgME+6JbrVak7pCF0LQ3NzM7t278W8NYlPsGFITt5df/7kO03wnxlDHkI/p3ScXHNrgxWvITZrVPnAFbOnZlmjYYyR7mpOauh2kZ+RDzdj3ZsdLMBjANYpWq6pJj7c1eHBVPkF7fUxjdIXIIJM0cxq5hnw6qoF+VQQH/zwP7rv3WWX0rt77/Hsg31x5JZ/u2sIJxXP63a4oSlTAhb2nj7nfj8/no7vbFak137N61+v1/Q7vnBYA39g+17Bqp7sjk9mpAT747VdgrJUTFTXmq/NhT9dTKjQ1NZUZM2YQCASiVvMHH3yAqqpRqzkzM/Ow2kuOB30nQ0KI6Oq9oaGBHTt2YLVao+/XUJPsRDFlCss0NzeTnZ3NW2+9xWmnnUZnZydZWVmsW7eO8vJyAHbu3Mm8efPYuHEjS5cu5Z///CcXX3wxdXV10VX7n/70J775zW/S3Nw8oUCs008/nS9+8YtcccUVMXl9Y6Grq4vKykq8Xi/TiqZRfU89ga7EiU8vZoeOkoL9KKL/XmI4HMbjdhMMBrH0EcyDqNQ1FRFwJVbQ+3ZpMxmNWG22Q76c7zd8wHO7nyTDksk3T7oWkz6+wXqRycXB98o8TKtVgYCUFHxNvpjZ62PFVmimfm8NaZbUcVfIi6zYB/w09LoLPdeJyanHbmgdc+lYLazh72kBGwgE+lnzaTOs2A1ji2r3qYV0V2uIkEb28X5M44iKVwqORVmwcszPiwd9A+uamiJxI333knsXS5IIoVCIlpaWaOR871ZGrz2fqK2M3i2sZG6dxHTa19kZaWWYnh6ps7xlyxaCwSDLly+PPmbu3LkUFxdHBX3jxo0cc8wx/Sz48847j+uuu47t27dz3HHHjXs8E2mhOl58Ph9VVVU0NzdTXFzMggULqH+1MSliDuDrDNOcVky2ZQ8QsUy9Xg9eb0/70LQ0lEFmsx5DbsLFPFJ9zoWiqDgcqej1g6+APT4vXV4NgxokJMLEq4K0oKeGvseL0WTE6Rx65i+I+Na6NBueel+0BGSi5+qmDBPBZjeZtrQJHaevcPddvfcKvaKA3eFFuDTg0CI4w6Hq1GjRpH7WvL8bQ1cVYb2CqUfgh1tpCdVEt6cAX0NkW82QqmJiPNXkFJhx6jieFx9UVSU9PZ309HTmzJnTL7Cudy+515pP9mp0MqDX68nNzSU3NxchRHQr48CBA3z22WfY7fZ+JWnj+X4d1pZ7XzRN4+abb+bkk0/m6KOPBqChoSHaC7svOTk5NDQ0RB/TV8x77++9byKMpePaROnbejUrK4ulS5diNpsJeUNU/3N8JStjRds+DetR+Rg8e3C7Pej0OhzOoduHCkWlvVbPmG3LcRIOh3G7XYRCo6s+d8q0kxFk41Sz8KjTsBg7UAOxra/dt7TtcJMLOBjdqpr0+NvDKGpi7PVD0CnoCBGKcXBO9LUoSlTcU6fp0bo7oo8Rok9RG0aftNHXmk+fq4HbQyDgx+v10d3djV5v6Ml57y1oEzlwQJ9NV60JzXfw+502wzeuanJK3nwUe+aYn5coBgusa2pqYtu2bf0C62SDlMG3MnrbwX744YcIIfoFIk619ytmgn7DDTfw6aef8u9//ztWh5wwidhDF0JQX1/Pnj17sFgsh7RerX2lnqB7bKkzsSYYDLJ9k4fiGYIMuw2j0TRsISuvmkfQHX8xF0L0RNX7IlH1KSmjqj6npqUzr+14ADrrQriMKeRPt2Fyj62v/GCEtTBul5tQqE9K4TD2utAO7pOrNjvC5UtawVl7vplAY3dcz6EAxlQdek9bROD7VLQ5+O8+zWQYnbhb8wzo/dXQ0wbWarVFC9r4ewovqaqC3mghoMxAaxYoykHXS5+iYlIOjKNIogIzTxvrk5LGwL3k3tVob4OU1NTUqLjLwLpDe5Z3dnbS3NxMdXU1n3zyCQ6HIyrwsWgok+z3OyaCfuONN/L888/z9ttvU1hYGL09NzeXQCBAR0dHv1V6Y2Mjubm50ce8//77/Y7X2NgYvW8ixFvQ29ra2L17N6FQiNmzZ5OVldXvAw26gtS+Uhe384/EwLrwgeBRGEz7GG7lLRQdbbW6YR8TC3w9dc51Oh1Oh2P01fH0Km0H+m8FhAOCmp0KzoIcMsztKIGxR72LPi1qTSbTqOx10WM9oygYM1Jx1w1d7CXeGNOMBJoP7Q0QewQpGQFEd+T66LsqP2gMiH5C31fgB/u9U/QK9pRmGLArFWmGYsZsNiMQeEJWmqqN+NpbD7aBNZkwGY2kzQyCGPsWkZIzFyUle8zPmwwMXI36/f7oPvK+ffuiaWDZ2dlkZGQc8YF1iqLgdDpxOp3MmjWr3/u1f/9+VFXtV5L2cGwoM6FPWAjBTTfdxDPPPMObb75JaWlpv/sXLVqEwWDgtddeo6ysDIDPP/+c6upqli1bBsCyZcv46U9/SlNTE9nZkS/WK6+8QmpqKvPnz5/I8OKWtuZ2u6mqqqK9vZ3S0lIKCwsH/fGvebmOkDfxUeKHiFPPPpu3TaMtvYQMw9CtVj1qHiFv/MQ8FAricrkRQsNus2Eco+Wl2VMINQ0ej9BxIITLlEp+aRiju32URxR97HUVh2PorQg4aK9DTwMVVUE1GfC2JtGF0SnodWFCWvzzYB0lRkT3IKV46bsSVwaI+8Fx9bXmex/vnAn4h554CwRepuGuC2BTBdYMS7QNrM/rxR3qIqW9lrBR38eaHyWzDp/V+UiYTCYKCgooKCiIlljt3XeXgXWHMvD96l2979mzh23btkUbymRlZY2qZshkyEOfUJT79ddfz7p163juuef65Z47HI5IlzDguuuu48UXX+Thhx8mNTWVm266CYiUZ4XI/unChQvJz8/nl7/8JQ0NDVxxxRVcffXVE05b+/a3v82BAwe47777JnScXoLBIHv37qWuro68vDxKS0uHnMUFugJs+taHhAOJ2Yfuxe+P1DfX6XTYbLZBf9xKjvFiCR3anlQoeg4cyCfki/2YNU3D43bj79NFbqz2lKLX0dxlJuQb+ZJNK9KTbmhDGab+ebinQ1vEXrdhNpsYrb2uKGp0/KozFW9D8tIj7YVWAk1dcT+Pwa6SYuuEYTqoDUX/FXsERVGwZBtItdfQ36o/SFi10d2RTaBt6Pc3/Wg/unAl/p5a86qqYDSaMJmMGAzGQ1wBTRPc8uDLbK938cDjTzNr1qwxv57DDY/HQ1NTU7Ri3WRK85qM+Hy+aFGb3oYyvfvuQ6URhsNhDAZDUsuMT0jQh/pBfuihh/jKV74CHCws87e//a1fYZm+dvr+/fu57rrrePPNN7HZbFx55ZX8/Oc/n7BF9JOf/IRt27bxl7/8ZULH0TSN2tpa9u3bh8PhYObMmSPOcHf/bS+1r4290tV46ds/3TbCyneoVqsuXREtlTGeZQqB1zd4nfOxoqU5aKoafbaA3qyQP+3Q1XrEwTgY6W+zWofcux/MXo9Er0eufUNGCq4DSbTanUbweSEBq/OM6Rqia+ITh15xV1TInNWFGnT33NO3BayCXy2gqwZEcOgJhM6qkj93D/SmZQoIBCONZPyBQI81b4gKvKqq7Khp4cRb/h+agNtuu4277rprwq/pcCIUCkUDxZqbmwmHw1M6UGyi9HU7mpub8Xg8g9bnP+wFfbLz61//mjfeeIO//e1v43q+EIKWlhZ2796NqqrMnDmTjIyRS0n62vy8/52P0ELxX533Xflax9A/3Z6rozBtD9GAJtVAbXVeTB2Fg1Y22Gz2CV3oil5HU6eFsH/s40sv0eNUW1FDQfw9Y1JVFbvNPmZ7vW8immLSE/Dp0fxJqqSngjVDT6gz/hOK1GIjes/o+9OPBudsFWOwtt9tQkTS0VzeAnwNvhF7vGcuCGNRh95CCoXCBPx+/IEAoVAw8nkrRi7/3dtUtbfyt7/9jcWLF8foFR1+CCHo6uqKilVXV5cMrBsBj8cT3XtvbW3FaDRGJ0N5eXlJFfQpHSUxkbS17u5uKisrcbvdTJ8+nby8vFHbUvv/URt/Me/ZJ+8twDJW28zVEKbdUUyaGmm16iI3ZmIetbKDQaw2K2bTxJvPhGx2wkPsnY9E2/4Q7cYUrKktmLwubDZbzypk7PZ6XxSLFa0zeVa7Ld9KMAFWu96qQx+YeAZBX4zpeoyhWgZ+BkF9Fl0HTIS9ngH3HVT23lt1FhWLbt+wke16vQ693orVZkXTBH5/kOq9RXzn2uPRZuZisVhobm6elLXBE0EkLdMRdR79fn9U3Pfu3Ru1mnsDxY70wDqI6EpxcTHFxcWEw+FoSdrq6mry8/OTOrYp/emMJ8rd7/dTVVVFU1MTRUVFHHvssWO6iL1NXhrfje1KZiB+vx9PzypzpCCu4WjapVCf7aW+bS/FumwMTCyqs5+VbTKRlp42qjS0ETHoaDswvqAzTWh4PV68rV7MbVaK5udiVNsHbak5kr3eF31GCu4DyRNzg8NAsCW+KWq9OHLDiK4YBv0p4MjuBH+fYDl0uENFePb5gBCK0qfWPABapNZ8b1S9AmmzAget9tGcVlXxuI/DrgWZ9eUVdHhcNDU18dlnn/WrDZ7I6mKTDZPJRGFhIYWFhf2s5s8//zza/Sw7Ozva/exIR6fTRa+Z8DhiS2LNlBf00a7Qw+Ew1dXVVFdXk5GRwZIlS6KBfWNh399r0eLUxjMUCuHu7QMeXWWOH2/Qx6+fraAj1MIXputZPv2scR+rbzDeRCYZgxGy2gk3jm11LhA9Ex8Pqk7F6XCi1+tpr9Zw29LIKwpicHccfPwI9npfFJMBb0tyKv9FBgAGkyDkjf9umb3QgOgaPKp9vDhm6FD8B52FkM5JV7ODUFf/rYM+GXE9jWXoEXgNnUnBpDsQmXyN5MsTsfLb2+bhrfVhO2Y6equZTGuke5cQApcrIu691cVSUlKi+d7x6oo42VFVlYyMDDIyMpg7d260fnpTUxM7d+6UgXWTkCkt6DabbURBF0LQ0NBAVVUVZrOZhQsX4nCMveNSRUUFG996j8WtSyhMKR7vkAdlYIR4rPa1dIoOq95OW9CHzZI68hMGIdaTjIEoRj1ttWNbHfYdk9VmxWQy9RPngFtj/04dmaU5OLRmRChy/OHs9X6YLcm12gsSY7XrTComrWPstVqGweDQYRKRYNFIOloJrr1B0Iav9Kf0+4eCc3YYRQv0RoD0BMkr/SYBvQgBHe3z8dREzmE/bmb/YysKKSkppKSk9GuU0tTUxN69ezEYDP1s5yPRmodDu5/17iNv3boVTdP6Vaw7HHO4J0pvuedkMuUF3ev19lioh77R7e3t7N69m0AgwKxZs8jOzh7XB+L1ennsscfY9WklFKoUzomRoPfJJzcYjaQ5nagx/DEx6AxccfZtfLyrgbT8aQidF2WUe/9aT+90v98f00nGQIIWG9owqWf9xtRrr/u8WMwWUlJTUIeKXheCpj0BOuxp5Bf4MXi7h7TX+5J0qz3VQKg1EQVkwFkoEJ0xdCKEwJHnBn8YTWelqyOHQOvY30vVqGA11oHW+2n1CLoQaIDSkwGn9LSI7eiYh7s6IuaGTAemwuELyRiNxn75yb2lVnfs2CGt+R4G1k/v6uqiqamJ/fv38+mnn5Kamhq15o9UhyMZTGlBH6o5i8fjoaqqira2NkpKSigqKprQrNtisbBixQrey3iPhd7xN5PpS8Dvx+3xRFYPw7TqnCjdPgsZtgLam4PszrEyU+dBCQ8j6j1paF6PB73BENfe7opRR1vNyKtzgcDv8x+sPOd0oteNLno96BJU7zKRPcNOargZtKFfe7KtdgEYLMSlTsBAbPkGRGdsrfbUGQZUfwM+XT7d1QoiOL6JUe/q/CB9A+Z6/AQBGoKOzrm49/mjD7MtmDGmc/VWD+trzfdt/CGt+f6Bdb0V2HoD6/bs2RMNrMvOziY9PX1KBtb1/U1JJlM6bW379u2ccMIJNDQ0oCgKwWCQffv2ceDAAXJzc5k+fXrMraE9T+2fUDOWcCiEq9fCtloxxXEFEHYY2TbAzs7KMzIj7EYZJK85GOzpnS4i7ke8bbWQw0HL3uEFNBQK4XK70MK9+ffGoVubDvjSqWp/e92cqiM334fePbidrThS8TUm0WovTIzVrpoU0jLdCP/YS+gORrunm5Q0K7lF3bg8ufjqx/8eKgaFgmNrUEaw6AE6uubi2hOgJ9wRRacj9/ovoLOa+3324xXhvtZ8b/GR3lXpkWzN96XX4egVeJ/P169i3VQJrBNCoGkaJpMpqZ/7lBb0vXv3Mn36dBoaGti9ezcdHR2kpKQwa9Ys7HZ7XM4Z9od5/3sf4W8f24+h0DTcvRa22YzFao37bL85zUZt9aE/rjn5JkpDrqioh8NhPB43gUCkYcmhvdNjj2LS09hsRBtigd5r+fv8PixmCxarZVh7XRwMlz7Y2nSI15AzU4891NzPqYhY7ckrIKNPMaCG/ZCA2gbpM1TojE2a2sa9n/Gjlx6jIDud+y+7BVNoYoFT6fMFNtOeER/X2T2H7gFFiCzzikm75CSA6DacoigxEfe+1nxzc7O05ofA7XZH36P29nZsNlv0PXI6nYdtYF3vYsFkGr7lb7yZet5HH3pnf4sWLWLRokX87ne/IyMjI65CqTPpmLF6Gp/9767RPaGPhW2Is4Xd77QGlfohmok01vlRCuyU+LvweQ7WhE9kJGvQbEcLHTop6rXX3R43ep1+TPb6SELeS+PuEF3OTLKz3XyyexNeQiwKn5C0LmoCMFkVgu3xF3NrrgFiZLULoLKrmy6/D62hhbbWDvIc6eM+nqIHq6VuxL5BXe7Zh4g5gG3hzOj123tNCCEIhUL9rotegR/L74S05keHzWajtLSU0tJSgsFgtGLdxx9/HA2sy87OJjMz84gMrJsoU1bQt27dys033wzAF7/4Rb797W8nrKRh9omZ1L3ZQMeu4e3Rvj2347lPPhgep5lw2+CCLoD9e7tptHmYQzDmaWgjoZj1tFYf+oMcDAVxu9xomobdbsdoHKW9roA6muj1Png7wmysbeKvu54mrPlQFhhZlL9gXK9notgLLASb459zruoVLPqusaR2D0rI6MATSqW7XrDY6uDa0z0U2xwTEnMA5yxQtOFdkm7PLLoqD30B+jQ7puKc6N99V+R9xb33v4Hi3vc5I9E3an769OmHRM1Laz6CwWDoF1jX2xxl37590damvXvvdrv9iJ0EjYUpJ+jt7e3cfvvtPP7441x//fW8+eabrFmzJuH1iWd+uZQtP94WrTjWl3BPWlUoHI703DaZ4m5hD6S+bfAiCKFwGLfLRTgcRggbXTNTSfN1j6PP9PgJGO2I8MHVeT973WLBahl6O2Ks9vpw2Ax2TKodd0APKSUEHE4M7m6UUOIKSOjtBkLt7pEfGAOcJSqic+S96cHQDFa8pNHdrOLvCAERUS2aZWO+csaEx6boFGzWA8Ouzru9M+ncNfhnY1swY8hrYKBg9xV2TdMmbM0PFzXv9/v7pXsdqdb8wNamPp+PlpYWmpqa2LNnj0wdHCVTbg/d7XZz6623cscdd1BaWkpKSgpvvvkmc+fOTfhYKh/fw4E3GqJ/CyHwuN34/H7MZjPWBOyTD0bIaeKTmv4rYE0IPB43fp8fs8XcTzQLi00UeboYsXpHDFDMBhoaDAitj73udmMwGLDZbMN+kcdjr4+EJ8VHZ5MHhymyulRUSM83kGoNY/S4IBjftqm2XCPBtti3AB6IJUuPRbSM6TlCZ8Cny8TVYcAzRFnekqO7wD3xNLu0uWC3VA15v8s7g47PB/8pU3RqJBjONvZCUQNX732vq4leY32t+aamJjo7O6PWvKyjfpC+gXVNTU34/f5+8QnjKQAWa3qvD7PZnNTPLCaC/vbbb/OrX/2KLVu2UF9fzzPPPMOKFSui93/lK1/hkUce6fec8847j5deein6d1tbGzfddBP/+Mc/UFWVsrIy7rnnngkFrwkhyMrK4qmnnuL4448f93HGS9Ad4v3vfkSwO4Cvp+OYfhTCFG8anVbqaiLWpQD8Ph9ujweDXj/k2IqnmShwxV/UAylO2vYHCAaDuN397fWhmKi9PhTmLCNtjUMHNyoqpOUZSLVFxF2JsbjbEmS1K3pIz/MjRlEmWSgKAWMmHreF7voQYpiqiGklCqnq+DM+ouig8Lh6lPDgExu3fzrtOxnSRbLMKSJj5akTHsZAcQeie/Iyaj4xCCGiFesGBtZlZ2fjcDiSEpQ2WQQ9Jpa72+1mwYIFXHXVVaxatWrQx5x//vk89NBD0b8HWuCXX3459fX1vPLKKwSDQdasWcO1117LunXrJjQ2i8Uy7gYtE8Vg05O53MmOhyIBcikpKRiSHOghTDoa6iK2au+etBCClBFEs3qfH7XUQV53J/ESdcVipHW/D5fLjd/vx2qxDts3PZb2+mCM1KtGaNB2IEgboKhWnLkGHClhjB43SmBi+ep6m55QR2KuW2eJHtHZMeT9QgjClnTcPjvddVpPx7uRX19qShfEYLfAOZOhxTwwbVgxh7Hnng9FMqz55ubmqDWfkZERFfgj2Zq32+3Y7fZ+gXVNTU189NFHCCH6tYI90gLrYiLoF1xwARdccMGwjzGZTP16oPdlx44dvPTSS3zwwQfRVoZ/+MMfuPDCC7n77rvH3cFGUZRxNWiJBW63O5Iql9KBc6YTWkj4PvlguFLMBJvcPWloASy9ojmK5+7b60MpdZDbHYdcaCFo9Wm0tXZiMBhIc6Yl3F7viynLRHvj6PeThQbtdUHaAUWx4MhJxZGiYfK5xiXuplQdwdb4p8mZM/Qona2D3hc22PEKJ92NCoHug/vio8FZrIA7Bu6CCvaUBhhka9wTKKF9hzp8tzWHDVNp3sTHMQh9r7m+q/feJh0Tseb7Rs3PnTt3yKj5I92aHymwzul0Rq35eAbWTZad64QFxb355ptkZ2eTlpbGWWedxV133RXtLb5x40acTme/vsTLly9HVVU2bdrEypUrx33eoarFxYu+xWvy8vI46aST8Bb5+Ohnn5Dsz1wIQWV1Bx0dLoxGI2nOsaeh7d3rQ5meSk5X7EQ9GAzSFfTR1GAgJSUlKfb6IWMaJJhxtAgBHQ1BOhoALDhzUnE4esTdP7K4W/OtBFviX0BGURVsNg/Cc/C1anoTPjUDV6sOb2uIQZV0FDhSu2O4Oj/0QJ5gMe07dSMGa1qPnZ4QsRspan6gNT+WMcmo+dExWGBdrzVfVVUVDazrrVgX6/dpMkyqEiLo559/PqtWraK0tJSqqiq+853vcMEFF7Bx40Z0Oh0NDQ1kZ/evr6zX60lPT6ehoWGIo46OifREHwuaplFXV8fevXux2+0sXrw4uv9vmG4gZ1k2DXFuqzocgUCARsVLZ5tCaqoDwwTS0Pbs8aHOSCWrc2Kio2kabnfEKRDp2TgdxqTZ630xZ5toaxhftPdgdDQG6WgEsJCanYLTKTD73Si+Q/fndVY94c74RrX7Q372dRzg+ONLER4PQlEJGDNxdZtx7Q9FZiRjWI0PxFmkwBDV9saEArbUxkPmFN5QIe079IgRtkQUVcF6zPSJj2OMDGfN991773v9Sms+9pjNZoqKiigqKurXt/yzzz6LW2BdskU9IYJ+2WWXRf99zDHHcOyxxzJjxgzefPNNzj777LieOxF76G1tbVRWVqJpGnPnziUzM/OQD3Z6eTEtH7US8ia2Z244HI6kyIVCBLLTcDh0MdkB313lQ5mRQmbnOGzVnmI6Ho8n4hTk59DUYBxyRyLe9vpAAnFqfwvQ1RSiqwnATGqWHacTzAE3n9d+ykuVr3HKMSdyUvqxcTs/wL3vPcrm+k84v/UU1px0Nd0HwmjB0e2LjwaHsxti0D/GMUNBDfc/kC9UQNsO06DpoAMxTc9Dn2qb+EAmyEBrfihbvncVL6352NO3b3nfwLr6+np27NiB3W7vV7HucH2fkpKHPn36dDIzM9m9ezdnn302ubm5NDX1X72GQiHa2tqG3HcfLfHcQ/d4POzevZv29nZKS0spLCwc0sI2phopuaSIqg374jKWgQghIrnbPh9msxlbtpPqVuVg84oYUFnlR52ZQnrH6EU9Er3uQghITU3BYDDi19tAHComibLX+2LONtLWEJsa5iPR1Rwi0mrcxN/3fcDG6k3UeltYuOrs6KfU+/KFUHobioFQordrPcImNAWhCURv4zGN6ApWaJHHCQFoUNflxxMIcOCAi879sW024yhUwBWb1bnd2X917gvl07rDPGxkfV9sC2aO/KAEM9S+e6/Ix8Oab25ujlrzvZbzkW7NDwys620F++GHHwL0q1g32oJfk2ESkBRBr62tpbW1lby8SLDKsmXL6OjoYMuWLSxatAiA119/HU3TWLJkyYTOFQ/LPRQKsW/fPmpra8nNzWXZsmWjiqYsODuPhn814p5Ac4rR0JuGptfpcDoc6PR6uuwWRHPsz/v5bj9zZ6aQNoKo97XX+9aDV2wm2mv7i0oi7fWBBOKbVj4ks1MW05hWy7GpJ3FgiOIoseLqU25kd/X7LMyNfeU7R5orJqvz1FIFNXzwmvKFc2ndaRm1mOvsFswzxhdMmyhGsuYHC6iT1nzsMRgM5OXlkZeXhxCCjo6OaKe4bdu2JSywLhbEJA/d5XKxe/duAI477jh+85vfcOaZZ5Kenk56ejp33nknZWVl5ObmUlVVxR133EF3dzeffPJJNH3tggsuoLGxkT/96U/RtLXFixdPOG1tzZo1ZGRk8MMf/nCiLxMhBPX19VRVVWGz2Zg1axYpKSljOkb7jg62/vqzCY9lMEKhEG6XC00IbFYrxt7UQAV2ho143fFTq3mzTDjbBxH1Afa6zWbr52L4rA46+gh6ou31vphzTLTVx27vfCykFZjw1iXm3EUzFIKtsd+GSi1QSTPWTvxAChQsbkYNRVb6fi2Hls9SEGNoTJNy0lE4TktOqd5Y0Pd7EOtGMr2Wc1NTkyxoMwJerzfqcrS2tmIymaLi3jewTtM0dDpd0tPkYrJC37x5M2eeeWb071tvvRWAK6+8kvvvv59t27bxyCOP0NHRQX5+Pueeey4/+clP+uWiP/7449x4442cffbZ0cIyv//97yc8tlhFuXd0dLBr1y5CoRBz5swhKytrXBd92jwnWcdn0Pzh4KlC40HTNDxuN/5AAKvFEgnw6DO2QLoF7774isWOSj/zZ9pxdBxcngWDAVwuN4oCqYPUqlfsZjp6KtYlw14fSCCYpDQERaC5EhNb4cjVE2yNT7EaZ1psIttTStWomAe0bFp3jE3MUcB2bGxyz5PFUNZ8LBrJ9LWcpTU/PBaLheLiYoqLi/sF1m3fvp1gMEh6enr0fbLZJkG8xlQr/TqQ22+/nZaWlnFPDrxeL1VVVbS2tlJSUkJRUdGEL3Bfi48Pvv8x4eAEu2f17dQ2yOq3lwN2C02JWHkqcNQMI/a2TtxuN8FAEMsw7VZ9ViftNf6k2et9SebqPL3QjCdBrVkLp0OoLfZbLyn5KummGKzOgfwTWtGFOghombTsTEMLjG2yY56WS+ZlZ8VkLJOR4ZrITHT1PlSZVWnN96dv2d7m5mY6Ojo466yz4taWe7RMueYsA7HZbNTWjv2HJhQKsX//fmpqasjOzmbp0qUxa/BizjRTdGEB+56rGfcxgj2d2lCG79Sm2Qw0xTAFaziEgA8+6aAw000BKs5h2q0qNnNEzJNkrw/EP1JZuHihCMKuxGzcO3J0hNpisME9CGkZsdk7t09Te8Q8nZbPxy7mANaFh/fqfCQGi5rXNC0m1vzAqPlea15GzfdnYACi3+9Put0OR4CgjzVtTQhBQ0MDVVVVWCwWjj/+eFJTU2M+rqLzCmh8pwlvy9jENpqGFgxitdlG7NTWZTaCiH9hnb6tYJu60iiYY0HtGMJ/FYLuoAGhBZNmr/clqXvn+Ra8Q/SljzWpdo1gHF5mSq6C4uqIybFSs1oIBtNo2ZWB5h+7mKtWE5ZZhTEZy+GAtOYnB3q9flJMbqa8oNtstlHvoXd2dlJZWYnf72fmzJnk5OTE7UPSGVVmfLGUT+/bOarHCyHwer14vV7MJhMpaWkoI1V5UxXqhmkuEgvCWmSCEQyGIq1gzWYU4NM9QY6dbsPaV9SFiKRU2Ux0VQeTvirvJZmrcy2OgYp9Sc2O3955WpYnNqvzEhUtqNGyKwfNN773xXZ0KcoRKiwjVavrvU/Wmp+6THlBH01QnM/no6qqiubmZkpKSiguLk7IbDPzuHTSj3LStr1j2Mf5/ZEWoro+aWijwZduwb83Pqs/gcDriUwwjCYTaWlOVOXgBENo8MneEMeURkT94J4f+MJmVDWUdCEHMOeaaEtQdPlA0goseBO0d+5IDRMcW3fUUWHPVlFc7RM6RpfPw4c1uzlvTgktu3IIe8c/ybEunHy558lguJS4vqv3eFrzvav3I8GanwwLEzgCBN1msw1puYfDYaqrq9m/fz9ZWVksXbo04TPLmV8qZfOPPkYLHRqbGA6FcLndaOEwdpvtYBraKGlyx37lKThor6uqgsPhQD/EBEMLC7btCXJMiQlLpzfyA5Jqpbs6PCkufgC/P5mR7QlcnbfEZ3WenuOe8Or8G8/8L5trKjn9s2P53Yprx30cU3E2hvTYb49NBZJlzb///vvSmk8gU17QB1uhCyFoampi9+7dGI1GjjvuOBwOR1LGZ821UHB2HjUv1x0cn6bh9njw+/1YLBasqalj7tQWTjHSWhdbu713/z4YCmGzWjH12OuDIQCEQAsLPqlWmZ4TonL3FooKjsdEekzHNV6Sm3c+FVbnyoRX5wA+TUUTgsAoGtcMx+GeqpYoRrLmB4p73+eMhoHWfHt7O01NTVPamp8syWJTXtB799B7L9Suri4qKyvxer3MmDGD3NzcpK8WSy4pomlTC/52P76eIiyRFqJO1HHOZjsMeibSYKMvAoHH48Xn9WIym0hLSUMd5j0T9O7ZRWb6QoOH/v0clS1vU1z1AV9d+O2YjGui+PxJ3DtP0Oo8JSuOq/NcL0zg0Jqip8lXzH8v+T4NC1/m5Onzx30s1WzEMrdo/IM5QhnOmo9Fj3dVVcnIyCAjI6OfNV9XV3dEWvPxZsoLem8t915rXdM0ioqKWLBgwZBWcaLRm3VknpvG9v/9HIQgJSUFwwRSIIRepT4G9cgP2usuVFWHw+lArxv6PYvUGo+IpEL/gDezLgVNZ8aQkYZQBIpI7hfXkmui9QjYO3c6tLiszm2ZKkp327if79dnsH+vE19nmKMWWTkhMMESz0dPQ5kk3+fDmdFY84OVpB3tsYey5j/44INoA5XD0ZqXe+gJQqfT0d7ezoknnsi1117Ld77znZi1yosFXq+X3bt302ZqI222A9HImO31gficZoLtExOMUDiM2+0iFApjs9kwmUwj2uuRGPbeL3pE1HtZNv9SLO2zsZqy2JERYE7Agq4rOStkgcDrOwJW55nxi2xPzxtfZLumqLSFSqjbDogwigJWZeJVEydjI5bDnaGseU2LfHcm0kgGpo4136/KZZKZspXihBA888wzfP3rX6e2tpb169dz4YUXJntYUcLhMPv376e6upqcnBxmzJhBoCHIlp9sZaKfyF6TmY6W8a3QhRB4vB58Xh8msxmr1ToGe71npjqI9OtL9OyuPbjfqterHJvrJLVGG/Tx8SS5e+fmhOWdF81SCTbHvre6NUMhK/XAmJ8X0Duoqc3C3XJwQpM7SyPHvH9C4zHmZ5D9X+dN6BiSsTFcOlwsa833VmGbzNZ87yTHZDIl3VWYkoJeXV3NlVdeyWeffcY3vvEN7rjjDlpaWiZFJR8hBM3NzVRWVmIymZg9e3a/wjW7/lpF3VuN4z5+KNXEJwfGHlwkgEBPepyq02G329EPc3EOZ68f+lhBqzOAq/vQSUZBtp2ZbiOqKzGXoUCgOIx42mPbNnS053Y6Dfg7479Ct2fqsIdd0ZK6saToGD+qa/SraoFCB8Uc2KGiDeiWdvTSTnTu8Vv3AGkXLpEBcUmk7+q9l4lY8wPpa823tLRMOmt+Mgn6lLTcnU4np556Ks8++yyapnHHHXfgdruTLugul4tdu3bh8XiGDMgrXVlM8+ZWguMsONKu0wFjE6tQOIzb5SIcjtjrxgna6wMx5RlwNQ3uzx5octFi1HFsoRN7bfxtcEuuOWl55+kFiasKl5YmCDbH/rjWNAV1DAIc0tmobcqjqz7EwNmFJRV0nolFyatGPZa5xRM6hmRijBQ1fyRY85NlD32EUmOj5+233+aSSy4hPz8fRVF49tln+90vhOAHP/gBeXl5WCwWli9fTmVlZb/HtLW1cfnll5OamorT6WTt2rW4XGPfqEtNTeXHP/4xDocDq9UKEJOOa+MlGAyya9cuNm/eTGpqKkuXLiUvL2/QC8BgN1C6cnw/UMKgUj8GK7nX2urs6ECv15OWljbCXrlACC0i5YqCqiqoQ1jsfXGrw09O/IEwHxxoZU9+CC2O4Q0Cgc+bvH37RFWFS8nQEWyJvdUOkFHkZ7R7Ql1qAZ9/ltMj5odSMHP0xxoKy/xpqMbB+xhIEk/fqPje/3pXsOFwmFAoRDgcjtaeH6tB3Bs1P2/ePE477TROOukk0tLSqKur46233uLdd9+lsrKSzs7OSbOvnUhiJuhut5sFCxZw3333DXr/L3/5S37/+9/zpz/9iU2bNmGz2TjvvPPw+Q6uWC6//HK2b9/OK6+8wvPPP8/bb7/NtdeOv9AERJrXGwyGMdVzjxVCCA4cOMB7772Hx+PhhBNOYObMmSNG1+ednoO9eOyt+LxOC+FRtAAVgM/vp729nVAohMPpxGazDWOZgyZ6mj8QEXFVUUe1962zq9Q1jm5Str++m/fpxpsfs8uyH5Zcc1KsdoiszhNhtQM400VcrHZLmjoqqz2sWqjtmsG+bYYhOwoqgE2dmNUOYJvijVgOd3rFXafTRX9feoW9V9zD4fC4xL03an769OksWbKEM888k2nTpuF2u/nggw948803+fTTT2lqaiIcTkx74mQTlz10RVF45plnWLFiBRARtvz8fG677Ta+8Y1vAJG66Tk5OTz88MNcdtll7Nixg/nz5/PBBx+wePFiAF566SUuvPBCamtryc/PH9dYhBA4nU5efPFFjj322Ji8vtHQ2z89HA4za9YsMjIyxmTJdO7u4qOffzqmc+7Wm+geQbBC4RAulxtN67HXjbG11weiK9FRVdsx6sf3MjM/lYIWHWqM3PEjZu88XYddxGvvPIDqGj4Hzq3PpfpzK8ERnJCcGYJc674JjceQk0bOmgsmdAxJchi47x4La74vfa355uZmfD4fGRkZ0b33WFrzvZMRk8k0ZHfJRJGQPfS9e/fS0NDA8uXLo7c5HA6WLFnCxo0bueyyy9i4cSNOpzMq5gDLly9HVVU2bdrEypUrx31+q9WasBV6b134lpYWpk2bRlFR0bg+ZMfMVHKWZtH43ug2QkNOE901Q4uVJgQejxu/z4/ZYsFqGT5SdGBxmKGi14dFgYb28Vm/u+u6aLAZOSYtFXPDxGfX1jwLrQnK/R5Ier4Zb4Ki6tMy4rN3bnYoqJ6hV9SaYqTRU0RzVRgYeVsjM7MbJviVtC2Qq/PDleEK2vRtAzveqPmhCtrU19ezY8eOuETNT4Y99IQIekNDAwA5OTn9bs/JyYne19DQQHZ2dv/B6fWkp6dHHzNeRtOgZaKEw2FqamrYv38/mZmZMemfPr28hNaP2wj5Rha0NgYPhhOA3+/D7fag1+txOJ0xi14fCWOeHnfj+FfELneAje4W5hY5yalXGGErfkgEAk+C9q8HO7fmSYzdZ0vXEWyJT7/zzOIAuAYXaq8hk+rdDvzdo3udJjvofROz2xWDDutR0yZ0DMnkYbAe7wPFfbzV6gYraNPS0kJTU9NhX9BmIFMyyr0viqLEdYUuhKClpYXKykoMBgMLFizA6XTG5Ngmp5GSiwupenL4PF1h0lE/SOR2qLe5ixbGbrdjNBrjaq8PpHuM0fZDsbO2g4ZUE0cZ7Bhbxh7UdqSsztPjtDo3pSroPIfunQtFR3OgmIaeIjGjpXBWAAZpRjQWrPNKUE3JT0OVxJ54NpKBSNR8fn4++fn5/az5nTt3jsuan0zBdwkR9NzcXAAaGxvJy8uL3t7Y2MjChQujj2lqaur3vFAoRFtbW/T546W3/GuscbvdVFZW0t3dzYwZM4aMXJ8IBcvzqP93E56GocfvTjWjtRy8XxMCj9sdbe5isaYOK8wxsdcHoE9R2d/UNaFj9KWjy8+7SoD5RQ6yDigoo9T1yOo8OQExiV+dxyeyPavk0NW5X++kpjoTT9vYnA8FsOvbJtxmwCrt9iOCkax5OFTYJ7s1H08SIuilpaXk5uby2muvRQW8q6uLTZs2cd111wGwbNkyOjo62LJlC4sWLQLg9ddfR9M0liyZYJ3nGK/QQ6EQe/fu5cCBA+Tn53PUUUdhMMQndUbVq8z8UinbfvvZEI8Q1LUEe/4Ffp8Pt8eDQa/H6XQOax/F0l4fiJauIGpjO3MVQrC9toMMp5n5ig1928iqbsm10Jag3O+BJDTvPANCzbFfKRhT+q/OBSrtoogD21SENnZVzioV4JvY5NqQ6cBUkDWhY0gOTwaz5ntT4JJpzU+WPPSYCbrL5WL37t3Rv/fu3cvHH39Meno6xcXF3Hzzzdx1113MmjWL0tJSvv/975Ofnx+NhJ83bx7nn38+11xzDX/6058IBoPceOONXHbZZeOOcO8lVnvoQgjq6+upqqrCbrezePFi7Hb7hI87EulHOck8Lp2Wjw7ddwymWXBXBwiGQrjdLjRNkNJjrw9FPOz1fqhQ3xqf1SJAa4ePd3V+ji5OI61GG7LRi0DgTdAKebBzJ2p1bk1TCcVpdZ49LRhdnQf1KdTW59DdeGiRmNGSle2aeDCcTFWTMHms+czMzEnTHyRmgr5582bOPPPM6N+33norAFdeeSUPP/xwtFrbtddeS0dHB6eccgovvfRSvz2Kxx9/nBtvvJGzzz4bVVUpKyvj97///YTHFosVemdnJ7t27SIYDDJnzhyysrISOiOb8R/TaP+045C83sagoNvlIuD3Y7FasFgsCbfXB2LM0+NtiG96WDgs2FrTRk6GdchGL0ndO0/g6jw9SyHUFIfVuV1B52lBoNClFFLzqR4tNH6v3GRTJh4Mp1exHlU6oWNIph4jVavrvS+WbWCbm5uj1vySJUsmRQOZKVnLfSBXXHEFhYWFfOc73xnzc/1+P1VVVTQ1NVFSUkJxcXHSoiD3PlvN/udrI38IgZsg79W40esN2Gw2dGpy7PWBePM0Gpvit0IfiF6vsiA3jZSacHRyIhCQYsCboGIufREInGlG/B3xz3m3OHU4VDdosf0au4MeZi00oPhd1LUW0FE78fexdEGAVG3sTV36Yp1fQvqlJ094LJIjh8GEfSLiPhCfz4fRaJwUq/QpH+UO41uha5pGbW0te/fuJSMjg6VLlyZ9BlZ8YSGNG5txNbhwud002XXY7SkYDUm01wdgcOrY1xSflp1DEQppbKltpSDHznSXgV37PyIlJ5WMzuRYs2n5Fnz1iVmdZ2QT89X5Mzuf4+nPn+GcmpMpK76JkD82k6JUYztM8G2xLZRtUiVjIxHW/GRJdTsiBN1isYxJ0FtbW6msrERRFI499ljS0tLiOLrRExJBdCcKuh7rwmyzEFYdGA1D79Mmwl4/ZIypAhKr51EONLnY1rmDj3Y/gnG3kSvm306uPbGNOwQC4U3M3rnFoYv53rmmU9nW+Tmdvk7e2/EZX8iJTe37zBLAN/5tr8c3v8HjH77FD2YaKS8uj8mYJEceI1nzA8W973MOB44IQbdarbS2jlyD2uPxsHv3bjo6Opg+fTr5+flJL+UHA9yCORkESv3sa2xCuOahKoeOL5H2el8UfXyD4UaDEEZCOj0BIegs1pOhKhhaErerlNDVeU5sVudCVfA5LLSEVerq/SzI/xJZhlyOz5hYdklfsnMnFgx3z5vP0el188tf/pLycinokokzXEqcpmkxt+YTwREj6MNFuYdCIfbv309NTQ15eXksXbo06a1We2lvb2fXrl0IITjmmGNwuVw8/Mmfqd/TzmnTrmR65nHRxybaXh+IIVePb4jOWoki0zmDs864mZb2APu6VfZRT1q6mWkpdtK7Dejb4ifuCV2dp6qEJ7A6F0DAaaYNPQcaAvhbD/aqXzx3PinpsduuMFrA4B99//TBuO6yK/jLC09H01wlklgzGmt+sJK0kykM7YgWdCEEjY2N7N69G4vFwqJFi0hJSUnCCA/F7/dTWVlJa2srpaWlFBYWoqoqwWAQu8NGWm4Io+FgEEYy7PWBtAeT02e8L2a7gU5PKlbLwS9Ze7eP9u7Iqjkjw0yJPYW0Tj36jth+ERO6Os8dX2R7INVMu6qnrjmIZ2+IwSq8pA166/gpmB2E8Pit+9STj+b7p36Z79/76xiOSiIZmqGseU2LXMd9G8mMp1NcvDhiBH3gHnp3dze7du3C5/Mxa9YssrOzJ4WdomkaNTU17Nu3b9Ca8Dk5OfzhD3/A7XbjP+Dg/+6vil5kibTXB2JM17GvJUmb532wpOsRnqG/XK1dPlq7IqKblWmhxG7H2a5H1zmxL2RkdZ4Yd2Ksq/OQzUiHyUR9a5Cu/YOLeC8pKXpCzYEh7x8PKaZ2GGcZiJSTjiL11MR1SZRIBjKcNd/c3MzXv/51Tj/99GiqdjI54gQ9EAiwZ88eGhoaKCoqYtq0aZMmQrGtrY1du3aNGIyXl5eHpmlo0zT83iLe+Et1wu31gQRTBHQm5dRRFFWhqW30Qtfc6aW5M6I0OdlWii12nO061K6xi/tkW52HzXq6rGbqOzXaawOMVlGLM01wIHZlkjOKQPGOb2sgZel8HKctiNlYJJJY0Cvs//73v7n66qtZsGABl19+eZJHFeGIEvSf//znFBQUsGDBAk488USsVmuyhwZE8hgrKytpa2tj+vTpFBQUDBuMFw6HCYfDKIrCgnNyUYSOtx4ZvoFLPFH0cKA5Pl2+xoIzx8TexvHNKhrbPTS2RyZ9+Tk2isw2Ult1qK6RxT2Rq3NzytCrc82ow2W30OgWNDf4EWJsEwxVEejbg8QyCiA73z2uYLiUJfNwnLEwhiORSGJDMBjkpz/9Kffddx//8z//w0033TQpgqfhCBH0Xbt2sXPnTjo6Ovj973/PscdODgtP0zSqq6vZv38/WVlZI7Zc1TSNUE+lLlVV0ev16HQ6Fl9cgBaGfz2WHFE35OkJ1CWnxGpffDGSoro2N3W4UVDIz7VRZLKR0qygDiFMiVydZ+ap/VbnQq/idlho8kJjvR+tcfzjKMyzEG6Jnd1uMIFxHMFw9hPn4jjzuJEfKJEkmD179rB27Vq6u7v597//zXHHTa7rdEoL+r59+7jtttt4+eWXsVgsbNmyZVJU84FIrvuuXbvQ6XQjtlzVNC36n6Io6HQ6dDpdv1nhiV8oIBTQ2LihJgGj70+rLznlVftiSdHT0BjblDmB4ECriwO4UFAozLNTaLBib1ZQvdDpb2Nvx2cssh6Pgfi6PbvaPqE+sIeL7CdhM6bgdVpoCarU1/kJNccmGDFdVWMaDJc/OwThsU2y7CfMwXnW8TEchUQycYQQVFRUcMstt3DZZZfxm9/8BpvNluxhHcKUFfS3336b888/n8suu4wnnniCyy+/POmV3gC8Xi+VlZXRXPeCgoJhg9j62us6nQ69Xj+kvXPS6iJCAY0Pnp1Yec2xYMzU0dqW/GA4c5oB4Y5vSlpNSzc1dKMqCkUFKbz15v3UNnzG3s5TuOzY6yO9QZWeiFj6BNEogAJCwMGyAQoCgaL03I8SeZZy8H6UyHn9IS+PvHsPLn87XQYvC/NWE2iNceCaTUc4RhODXhyWjjEFw9kXz8Z59qKYjkEimShdXV184xvf4MUXX+Qvf/kLq1atmhQB1IMxZQX9xBNP5O2332bx4sVs3749Lv3Qx0I4HGb//v1UV1eTk5MzYq77UPb6SJx2eQnhgMaHL9bHbOzDEbAKaE/IqYZEURUaEljQRhOC/U1dtAchqKrUqYI3ghPLsx72fFoI1ZSOPhgAfxYBf2yqt/WlKMuMqIvddyQtX6B4Rz/Rsx8/C+fyxTE7v0QSCzZv3syaNWsoLCzk448/prg4sZUnx0pcd/J/9KMfHZKIP3fu3Oj9Pp+PG264gYyMDOx2O2VlZTQ2Nsbk3GazmcWLIz8QVqsVn88XTe9KJL2pDZs2baK1tZXjjz+eefPmDSnmvULeW8xAr9djMBjGFIl/5ppSjj03J1YvYUgUo8KBpkkQDJdrxuuNfyOUgZx+0lqWHXMDx85cFdfzqKqeNRfdyeUn/Iz5eafF/PgKAmNnbN+/nMLRTw5sx83EcY4Uc8nkIRwO8+tf/5rzzz+fNWvW8Nprr016MYcErNCPOuooXn311YMn1B885S233MILL7zAE088gcPh4MYbb2TVqlW88847MR1Db89yj8eT0MIxHo+HyspKOjs7mTFjBvn5+TGz10di+dXTCQcE299sGu/wR0SfoyM4CYLhvFpyqtNlOZ2I7tkJOZclYEFYsuNy7MI8C6EYWvgGI5gCLaN6rG3hDJznnjBpLUzJkUd9fT1XX301+/fv59VXX2XZsmWHzfUZd0HX6/Xk5uYecntnZyd//vOfWbduHWeddRYADz30EPPmzeO9995j6dKlMRtDb3qa1+tNiKCHw2H27dsXLSU7f/58DAbDkI8fr70+HIqicN71MwgFNT5/Z3Q/rmOl1Zv8YDhrqoH6BLZq7UWvU+loSkxlvOx0K57m+DkQGfrYBsPljTIYznbsdJznnXjY/FhKpjZCCF544QWuv/56zj33XJ555plhg5UnI3FPnqusrCQ/P5/p06dz+eWXU11dDcCWLVsIBoMsX748+ti5c+dSXFzMxo0bYzoGs9mMoihjbqE6VoQQNDU18d5779He3s6iRYuYM2fOkGIeC3t9OBRF4cKbZjFrSUZMjtcXY6aetvbkxiUAmJz6ntr1iaUwJ4WAPzHuRJY5fpkZdps+9sFwto4RH2M9phTnBUukmEsmBV6vl9tuu41rrrmGu+++m8cff/ywE3OI8wp9yZIlPPzww8yZM4f6+nruvPNOTj31VD799FMaGhowGo2HvGk5OTk0NDTEdByKoozYoGWiuN1udu3ahcvlYsaMGeTl5SXMXh8OVadw0c2z+PvdGnu2xC56zWcNT45guBi3Dx0tmi8xkwijQcXbGL/VeXGWKabBcM5cgeoZPhjOenQpaRculWIumRRs376dNWvWYLFY+OCDD5g9OzHbaPEgriv0Cy64gNWrV3Psscdy3nnn8eKLL9LR0cGGDRviedpDUBRlzD3RR0soFGL37t188MEH2Gw2li5dOuxeuaZpBAIBwuEwqqpiMBgwGo1xrTSk06tcctscio91xOR4qkmlrnEyBMOZ8PoSHwyX4bTQ3pKY7YaSrFTCgfhMHhQExq7Yvn+5xcNPDqxHTSPtIinmkuSjaRoPPPAAZ5xxBhdeeCHvvPPOYS3mkADLvS9Op5PZs2eze/ducnNzCQQCdHR09HtMY2PjoHvuEyXWgt7bqe29996js7OTRYsWMXv27KTZ6yOhN6isuGMuhfNTJ3wsXbZKKJT4jIGBeMPJCYZzWIeu5hdrDN74fUUL8yyEXLF7D3V6MA2TvmedXyLFXDIpaGlp4Utf+hK/+tWveOaZZ/jFL34xaVpmT4SECrrL5aKqqoq8vDwWLVqEwWDgtddei97/+eefU11dzbJly2J63lhb7i6Xi48++ojKykpmzpzJ8ccfP2ywXTgcJhQKIYRAp9NhNBoxGAwJr/9rMOlY+e155M2eWGBgsyf5e+dWh4GG5uQEw3XGeM95KLLTrLhb4udApOtje/3lzwlDaPAJgmVuMWkXL0OZJDWvJUcmQgjefPPNqMZs3bqVc889d8pMMuP67frGN77BW2+9xb59+3j33XdZuXIlOp2OL33pSzgcDtauXcutt97KG2+8wZYtW1izZg3Lli2LaYR7LxaLZcKCHgqFqKysZPPmzaSkpLB06VJyc3Mnlb0+EkazjlXfmUfODPv4np+tp6Mj+dHtRkdyaiIlNBgujmWKbVYdWownJk57x6C3W+YWkX7pSVLMJUklEAjwwx/+kP/4j//g29/+Ns899xxZWVnJHlZMieuvYm1tLV/60pdobW0lKyuLU045hffeey/6Jv72t79FVVXKysrw+/2cd955/PGPf4zLWAbriT5ahBA0NDRQVVWF1Wpl8eLF0dz2wRhN7fVkYrbpKfvuPDbcuZ2W/WN7T7ym5NjcfVF1Cg1J6u4W9iYuGM7XGL/3ujg7tpXhUnNA9XQdcrtldiHpl54sxVySVKqqqrjqqqvwer28++67k6ZBV6xRhBCJz/lJAsuXL+fiiy9m7dq1Y3ped3c3u3btwufzMXPmTLKzs0cdvd6bUz5ZhHwgns4gFT/6lLba0f2w6ywq+8JdhMPJvWTS8s3sbUh88/UMp4VAW2JW57MK0ghUx0fQFQQLMsyEumNn5885wYvZ1z87xTKrgPQVp6AkKE5EIhmIEIJ169Zx2223cfnll/PrX/960rTNjgdTtpb7QMa6Qg8Gg+zdu5e6ujoKCwtZsGBBvyp3A4lHcZh4Y3UYWP39o6j44ad0NIxso6tZKuEDyZ//uYfYp403TpuZprbE7Nvr3Qqxbb9ykPxcC6G22B1d1YM53D8YzjwzX4q5JKl0dnZyyy238Morr/DII4+wYsWKKbNXPhSTc+kYB0YbFCeEoK6ujvfeew+3280JJ5zAzJkzhxTzZEevTxR7upHVPziK1KzhI7cFgsbu+BbmGQ02p5GmJOSeG/Q62hsTEwyYnWbF0xq/YLhMY4yD4WaFIXhwvOYZ+WSsPFWKuSRpvP/++5x00kk0NTXx8ccfs3Llyikv5iAFvR9dXV1s2bKFvXv3MmfOHBYuXDhsz9vJEr0+UVKzTKz+4VHY04dO2zDlGujqSkx093AYUpLz3hZk2wkGEpOqlx3HYDiLRUWLccnatNSDe+fm6XlSzCVJIxQK8ctf/pILL7yQa6+9lldeeYWioqJkDythHDGW+3B56MFgkKqqKhoaGiguLqakpGTYFfbhaK+PhDPHzOofHsWGH23H3X6oHevRTYJgOL1KfZIqwyUqGM6gV/HGMRiuJMcS02C4lExQvR0AmEtzyVh1Kor+8P4uSA5PDhw4wNq1a6mrq+P111+PS7bUZOfwWkpOgMFW6EIIDhw4wMaNG/H7/Zx44olMnz59SHE+3O31kUjPt1D+/flYUvsXx9HbVOomRZtUE35/4icWmWkWOloTVBkuO5VQHJ0AcwwLyQDkTfOBANO0HDLKTkMZJs5EIokHQgj+/ve/s2TJEkpKStiyZcsRKeZwBAm6zWbrt0Lv7Oxk8+bN7N+/n/nz53PssccOG/04Vez1kcgsslL+vfmY7H1+mDNVNC35wXCuQLzCxIYn1ZK4ynBGX/yup/wcE6EYlnpVdWDRWjGV5JBZfroUc0nC8Xg8fP3rX+erX/0q99xzD48++igOR2xKXB+OHDHfwN7CMk1NTbS0tNDU1ERJSQnFxcVHnL0+EtmlNsq+M4+KH2+jqbWOcHtasoeELc3IgZbhm37EA4NeR0dTYlbnWU4L7ji2Sc0y6wkTu+PnztQw5TnJkGIuSQKffPIJa9asITU1lS1btjBz5sxkDynpTK3l5TCYTCa2b9/OggUL2LJlC0uWLKG0tPSItddHIm9WCjXO53l6xy/44JPnkj0c9PYkBcNlJTAYzjp0AOZEiQTDxWZiUueq5eZX13D9hq+jLl+AapBiLkkcmqbxxz/+kbPOOosVK1bwr3/9S4p5D0fEN/Gdd97hN7/5DU1NTTzwwAOsWrVq2McnqrXpZKfL14Jq9oHu0ApgiUSnV5JStx0gnKA2qQa9iq8pjm1Ssy2I+tgEw+1o2UaLr5GOxlY+3fEZp2efHpPjSiQj0dzczHXXXce2bdt4/vnnOeOMM46IdLTRMqUFvaGhgW9+85s89dRTXHLJJezcuXNYMT8S7fXh+O53v8umTZtYtvQU3nu1k3+9UpOUcThyzbTWdST8vIkOhgvWxK8KncUTIhbhcEa7gau/fyXdTzXgcDhi3khJIhkMIQRvvPEG11xzDUuWLOHjjz8mMzMz2cOadExpQd+8eTMej4fPPvuMjz/+mG9+85uDPm6y115PFtOmTWPatGkAFK8t4OhF2ax7YDud7YltztLtT04wnMNqoqk1McV0jF6VIPER9LxsE6GOia/+c45P4+i10zE7jTx4/oMxGJlEMjJ+v58f//jHPPjgg/zqV7/iq1/96hH/2zwUR0wt99dee421a9eybdu2fhbN4VR7fTLg7g6w/sHP+Pj9xoScz55upLYjOcFwKRgSsn+e5bRgbY3f3HpBiY3wBOx2g1XP/CumUXja1OpMJZn8VFZWsmbNGkKhEOvWrePoo49O9pAmNUlTrvvuu49p06ZhNptZsmQJ77//flzPNzAPfTK2Nj0csKUYWXvrQv7zuqMxW+Nv8Oisyfk88hMaDBe/ZhFmszqhNqlZC5yc9osFUswlCUXTNB599FFOPfVUTjrpJDZt2iTFfBQkxXKvqKjg1ltv5U9/+hNLlizhd7/7Heeddx6ff/452dnZcTlnb3MWIQThcFja6xNkyekFzJyfzmN//JTdO9ricg69QaU+SW1StQQFw+n1Cr6mOFeGG8fqXG/WMe8/p1F8Zny+jxLJUHR0dPD1r3+dN998k8cee4xLLrlEBr6NkqRY7kuWLOGEE07g3nvvBSKzsaKiIm666Sa+9a1vxeWclZWVzJs3j4aGBlRVlfZ6jBBC8Nrz+3i+YjfhUGxXtOmFFvYkJRjOir81MRXpZuQ7CcUxGG5htplQx9hiEDKPcnDstTOwZCauoI5EIoRg06ZNrFmzhlmzZvHoo4+Sn5+f7GEdViRczQKBAFu2bGH58uUHB6GqLF++nI0bN8btvF6vl3A4zFVXXcULL7xAKBSSYh4DFEVh+SWl3P4/S8kvTonpsTt9yWkG47AM3aQm1pjiWBkuJ8s4JjHXm3Qc/ZVSTvz2PCnmkoQSCoX4xS9+wSWXXMINN9zAyy+/LMV8HCRc0VpaWgiHw+Tk5PS7PScnh4aGhrid96ijjuL5559n/vz53HnnnUyfPp21a9fyz3/+E78/+V3EDncKilP4xk+XctbF02Jij6VkmGhtS0y70r4Y9DraE1QZLjPOleFyrIaRH9RD+txUTv3ZsZSckyvtTUlCqa6u5qKLLmL9+vW88cYb3HHHHUd0uvBEOGKWqDqdjosuuoif//zn7Nq1i1deeYXc3Fxuvvlmpk+fznXXXcfrr78ezUOXjB2DQWXlf87hpu8vJj1rYi1AFWtyRCWRbVJzbPELhjOZFBhFMJzOoDL/P6ex9HvzseaY4zYeiWQgQgieeeYZli1bxowZM9i8eTMnnnhisod1WJNwQc/MzESn09HY2D/tqbGxkdzc3ISMQVVVlixZwm9/+1v27dvHs88+i81mY+3atcyaNYtbbrmFd955h3A4fnubU5lZ89P51i9O4oRTx2eZ6Y0q9Y3JCYYLexMj5nEPhsu1oI0Q05A2K4VTfnYspRfkyVW5JKG43W5uvPFGbrjhBu677z4eeughUlNTkz2sw56EC7rRaGTRokW89tpr0ds0TeO1115LStUpnU7H6aefzh//+EcOHDjAY489RigU4otf/CLz58/nW9/6Flu2bEHTEvNDP1WwWPX81w3HcNXNC7DZx7YnnZptIhhK/GQqM81KR2titl9KshyEfPG7pmzDHFs1qMz9UgnLfngU9ryJOSkSyVjZunUrp556Kp9//jkffvghX/7yl+WEMkYkxXK/9dZbefDBB3nkkUfYsWMH1113HW63mzVr1iRjOFH0ej3nnHMOf/7zn6mrq+O+++6jtbWViy66iAULFvCjH/2I7du3c4TU4okJxy3N5du/Wsa8BaMv09jpPQKC4fxxDIbLNBFsHzwYzjndzik/PYYZF+fLH1FJQtE0jXvvvZfly5ezevVq3nrrLaZPn57sYU0pklYp7t577+VXv/oVDQ0NLFy4kN///vcsWbIkGUMZEbfbzQsvvMCGDRt48cUXmTZtGmVlZZSVlTFr1iz5wzhK3n65mufW7SLgH3r1nZJppKYtOZXh7MJAKBh/JybDYcHeFr8SEMdOs6HV9Q8oVPUqs1YWMv2SfFSdvF4liaWxsZGvfe1r7Nixg0cffZTTTz9d/m7GgSOm9Gus6Orq4rnnnqOiooJXXnmF+fPnU15ezqpVqyguLpYX6Qg01rl59L5PqK7qHPT+1EIT1XWJ7+42Ld9Ba21iouqPKsjAVR2f+vRGo8pcg4rWZ2KSWmJjwddmkFocv/asEslgCCF49dVXufbaaznllFP43//9XzIyMpI9rCmLFPRxIoSgra2Np59+moqKCt566y0WL15MWVkZK1euJDdXpv8MRTis8dJTe3jlub2EwweFR2/U0YGfUBL2zwudKXS2xd/q1+sVSpTUuO2fzy6xYqyPpN2pOoUZlxYwc0UBqv6ISWiRTBL8fj8/+MEPePjhh7n77ru55pprZO2POCMFPQYIIWhoaODJJ5/kiSeeYOPGjZx00kmUl5fzhS98gYyMDCnug7CvsoNH7/uU5oZIr/P0Igt7DnQkfBxZ6VZ8LVOkMlyOmVB7gJRCKwu+NhNHqVyVSxLP559/zlVXXYUQgnXr1jF//vxkD+mIQAp6jBFCUFNTw4YNG9iwYQMff/wxZ555JmVlZVxyySU4HI5kD3FS4feFuP/Xr/CXR/9AWlYhRUUXJXzyMyPfSVNtYtqkzk9Pj0sxmW5fKyabh0WGaUy/KJ/Z5YVyVS5JOJqm8de//pU77riDtWvX8vOf/xyzWdY3SBTyGx9jFEWhuLiYb3zjG2zatInt27dz6qmncu+991JaWspll13Gk08+idvtTvZQJwUmsx57zgFcwUoONHyA39+R0PMbDDraGhNTGS7DEZ/KcJ5AJ49uuoMH3vgmHafsZ+5lxVLMJQmnvb2d//qv/+JHP/oR69ev57e//a0U8wQjv/VxRFEUZs2axfe+9z22bt3K5s2bOfbYY7nrrrsoLS3lyiuv5B//+Ac+X2IEZbJy1llnceGF53HTTV/hgf/3H3z58qOYNs2ZkHMXZNkTEtkOkGuPfWU4g1ml5DgremsIxagRMCW+XK7kyEYIwTvvvMOyZctwu918/PHHXHRR4p02ibTck4KmaXz00UesX7+eJ554go6ODi655BLKy8s544wzMBhGX4N7KlN3oJuN7x5g47sHaGyMj6ORsGA4ncI0NZVgDILhDGaVmYvSmbssk+nHpaE3qrz77rvU1NSwcuVKjMbE5dNLjmyCwSC/+MUvuOeee7jzzju55ZZbZB32JCIFPclomsbGjRtZv349Tz75JMFgkBUrVlBeXs7JJ58svxw97K5sZ+O7B9i08QCdXbER4EQGw03PcxCuHb+YDybiEkky2b9/P2vXrqW1tZXHH3+cxYsXJ3tIRzxS0CcRoVCIt99+m/Xr1/P0009jNBpZuXIl5eXlnHDCCTLlA9A0waefNLPx3QNs/qAen2/8gjw930lzgoLhjsrIwNU0ttxzo0XHzEVpzFmWyfSFUsQlkwMhBE8//TT//d//zapVq/jd735HSkpsWydLxocU9ElKMBjklVdeoaKigueeew6n08mqVatYvXo1xxxzjBR3IBAI8+GWBja+c4BtW5sIhUe/AjYYdNi1BFWGSzVjbx/dNooUcclkxuVycfvtt/P3v/+d+++/ny9+8Ytyr3wSIQX9MMDr9fLPf/6TiooKnn/+eQoLC6OlZ+fOnSu/UICrO8D779ex8Z0DfP5524j19idTZTijRcfMxenMXZZB6QIp4pLJyYcffsiaNWvIzc3lr3/9K9OmTUv2kCQDkIJ+mNHd3c0//vEPKioqePnll5k9e3ZU3EtLS6W4Ay0tnkgw3TsHqKkZvIxssoPh+on4wjT0BinikslJOBzm3nvv5Sc/+Qm333473//+99Hr49eLQDJ+pKAfxrS3t/PMM8+wYcMGXn/9dRYsWEBZWRmrVq2ioKBAijtQU9PFxncikfItLR7a26tQaCXXthiDPr45sm5vKyU5qdja0wEwWSMiPmepFHHJ4UFDQwNf/epXqays5NFHH+XUU0+VvyuTGCnoUwAhBC0tLTz55JNUVFTwzjvvsHTpUsrKylixYgVZWVlH/JdQCMGHW/bzn1eU09XZxvHzV7Fw3iVomkDTBEITaFok6E4I0ef2g7eN5ZvS0V3Dm5t/jcWg5441v+asSxdLEZccNgghePnll/na177GGWecwQMPPEBaWlqyhyUZASnoUwwhBAcOHOCJJ55gw4YNbN68mdNOO43y8nIuvfRSnE7nESvufr+fL33pS9TU1PDd736XFStWjOn5vUIvBNFJQDgc+VtoAk0cnAS8++6/ue0bN6HqFB588EFOPvnk+LwoiSTG+Hw+vv/97/Poo4/y29/+lquuukoG4R4mSEGfwggh2Lt3LxUVFTzxxBNs376d5cuXU1ZWxkUXXXREppp0dXXR3NzM9OnT4zqx0TSN559/HkVRuPjii4/YSZTk8GLHjh2sWbMGvV7PunXrmDt3brKHJBkDUtCPEIQQfP7556xfv56Kigr279/P+eefT3l5Oeeddx4WiyXZQ5RIJElC0zQefvhhvvWtb3Httdfys5/9DJPJlOxhScaIFPQjECEEW7dujZaebW5u5qKLLqK8vJyzzz5blg6VSI4g2trauPHGG3nvvfd46KGHOP/886WjdJgiBf0IR9M03n///WjpWY/Hw6WXXsrq1as59dRTZXqKRDJFEULw73//m6uvvpqjjz6ahx9+mJycnGQPSzIBpKBLooTDYf7973+zfv16nnrqKRRFiZaeXbJkiawrL5FMEYLBIP/zP//Dvffey1133cXXv/51Gfg2BZCCLhmUYDDIG2+8wfr163n22Wex2+2sWLGC1atXc9xxx8kvv0RymLJ3717Wrl1LV1cXjz32GMcff3yyhySJEVLQJSPi8/l4+eWXqaio4B//+AfZ2dmUlZWxevVq5s+fL/fbJJLDACEETzzxBDfffDP/8R//wW9+8xvsdnuyhyWJIVLQJWPC7XbzwgsvUFFRwYsvvsj06dOjpWdnzpwpxV0imYR0d3dz22238eKLL/LAAw9QXl4uv6tTECnoknHT2dnJc889R0VFBa+88gpHH310tPRscXGx/MGQSCYBmzdv5qqrrqKgoIBHH32UkpKSZA9JEiekoEsmjBCCtrY2nnrqKSoqKnj77bdZvHgxZWVlrFy5ktzcXCnuEkmCCYfD3HPPPfzP//wP3/rWt/jOd74js1amOFLQJTFFCEFDQwNPPvkkGzZs4L333uPkk0+mvLycL3zhC6Snp0txl0jiTH19Pddccw179+7lscce46STTpLfuyMAKeiSuCGEoLq6mg0bNrBhwwa2bt3KWWedxapVq7jkkktwOBzJHqJEMqUQQvDiiy9y3XXXcc4553D//ffjdDqTPSxJgpCCLkkIQgh2797N+vXr2bBhA5WVlZx77rmUl5dzwQUXYLPZkj1EieSwxuv18t3vfpd169Zxzz338JWvfEWuyo8wpKBLEo4Qgu3bt0fFva6ujgsvvJDy8nKWL1+O2RzfPuUSyVTjs88+4ytf+QoWi4XHH3+c2bNnJ3tIkiQgBV2SVDRN48MPP4zWle/s7OTSSy+lrKyMM844A4PBkOwhSiSTFk3T+H//7//xve99j+uuu46f/vSnshfDEYwUdMmkQdM03n333Wjp2VAoxBe+8AXKy8s5+eSTZelZiaQPLS0t3HDDDWzevJlHHnmEc845R1rsRzhS0CWTklAoxNtvvx0Vd7PZHK0rv3jxYll6VnLEIoTg7bff5uqrr+a4447jL3/5C9nZ2ckelmQSIAVdMukJBAK88sorVFRU8Nxzz5Gens6qVasoLy/nmGOOkeIuOWIIBALcdddd3H///fzsZz/jxhtvlNe/JIoUdMlhhcfj4Z///CcVFRW88MILFBYWUlZWRnl5OXPmzJGWo2TKUlVVxVVXXYXH42HdunUsWLAg2UOSTDKkoEsOW7q7u/nHP/5BRUUFL7/8MrNnz6a8vJyysjKmTZsmxV0yJRBC8Le//Y3bbruNL33pS/z617+WaZ6SQZGCLpkStLe388wzz1BRUcEbb7zBwoULo3Xl8/PzpbhLDku6urq45ZZb+L//+z8efPBBVq5cKa9lyZBIQZdMKYQQNDc38+STT1JRUcG7777L0qVLKSsrY8WKFWRlZckfRMlhwfvvv89VV11FcXExjz76KMXFxckekmSSIwVdMmURQnDgwAGeeOIJNmzYwObNmzn99NMpLy/nkksuwel0SnGXTDrC4TC/+c1v+MUvfsF3v/tdvvWtb8mUTcmokIIuOSIQQrB3714qKirYsGEDn332Geeccw5lZWVcdNFF2O32ZA9RIuHAgQNcffXV1NbW8thjj7Fs2bJkD0lyGCEFXXLEIYRg586drF+/noqKCqqrqzn//PMpLy/nvPPOw2KxJHuIkiMMIQTPP/88119/PRdccAH33XefbF4kGTNS0CVHNJqmsXXrVioqKnjiiSdoaWnhoosuory8nLPOOkuW0ZTEHY/Hw7e//W02bNjAH/7wB6644gq5FSQZF1LQJZIeNE3j/fffZ/369Tz55JN4PB6+8IUvsHr1ak455RT0en2yhyiZYnz66aesWbMGm83G448/zqxZs5I9JMlhjBR0iWQQwuEw//rXv1i/fj1PP/00qqqyYsUKysvLWbJkiQxSkkwITdN44IEH+MEPfsBNN93Ej3/8Y+kGSSaMFHSJZASCwSCvv/4669ev57nnnsNut7Ny5UpWr17NwoULZelNyZhobm7m+uuvZ+vWrTz66KOceeaZ0mKXxAQp6BLJGPD5fLz88stUVFTwj3/8g5ycHMrKyli9ejXz5s2TP8ySIRFC8Oabb3LNNddwwgkn8Oc//5nMzMxkD0syhZCCLpGME7fbzfPPP09FRQX//Oc/mTFjBqtWraKsrIyZM2dKcZdECQQC3HnnnTz44IP8/Oc/5/rrr5fOjiTmSEGXSGJAZ2cnzz77LBUVFbz66qscffTRlJeXs2rVKoqKiqS4H8FUVlZy1VVXEQgEWLduHcccc0yyhySZokhBl0hiiBCCtrY2nnrqKSoqKnj77bc54YQTKCsrY+XKleTk5EhxP0LQNI3HH3+c22+/nSuuuIK7775b1jiQxBUp6BJJnBBCUF9fz5NPPsmGDRvYtGkTp5xyCuXl5Vx66aWkp6dLcZ+idHZ28vWvf53XX3+dP//5z1x66aXys5bEHSnoEkkCEEJQXV0dLT27bds2zjrrLMrKyrjkkktITU1N9hAlMUAIwaZNm7jqqquYMWMGjz76KAUFBckeluQIQQq6RJJghBBUVlZGxX337t2ce+65lJeXc/7558te14cpoVCIu+++m7vvvpsf/OAH3H777bJegSShSEGXSJKIEIJPP/2U9evX88QTT1BfX8+FF15IWVkZ55xzDiaTKdlDlIyCmpoarrnmGurr63nsscdYsmRJsockOQKRgi6RTBI0TWPLli1Rce/q6uLSSy+lvLyc008/HYPBkOwhSgYghOC5557jhhtu4NJLL+UPf/iD3D6RJA0p6BLJJETTNN555x0qKip46qmnCIVC0dKzJ510krRyJwFut5tvfvObPP3009x33318+ctfloFvkqQiBV0imeSEQiHeeuutaF15s9nMqlWrKC8vZ9GiRbJASRLYtm0ba9aswel08thjjzFjxoxkD0kikYIukRxOBAIB/u///o+Kigr+/ve/k56ezqpVq1i9ejVHH320FPc4o2kaf/zjH7nzzju5+eab+dGPfiS3QiSTBinoEslhisfj4cUXX2TDhg288MILFBUVUVZWRllZGXPmzJH2b4xpamria1/7Gtu3b+evf/0rp59+v1ZlMQAABr1JREFUunyPJZMKKegSyRSgu7ubv//971RUVPDyyy8zd+7caOnZadOmSeGZAEIIXnvtNa699lpOOukkHnzwQTIyMpI9LInkEKSgSyRTjPb2dp5++mkqKip44403OO644ygrK2PVqlXk5+dLcR8Dfr+fH/7wh/zlL3/h7rvv5tprr5XbGpJJixR0iWSKIoSgubmZJ554gg0bNvDuu++ybNkyysrKWLFiBZmZmVLch+Hzzz9n7dq1hMNh1q1bx1FHHZXsIUkkwyIFXSI5AhBCUFtbGxX3LVu2cMYZZ1BWVsall16Kw+GQ4t6Dpmn89a9/5Y477mDNmjX88pe/xGw2J3tYEsmISEGXSI4whBDs2bMnWnp2586dLF++nLKyMi666CLsdnuyh5g02tvb+e///m/+9a9/8Ze//IWLLrpITnQkhw1S0CWSIxghBDt27GD9+vVs2LCBmpoazj//fMrLyzn33HOPmHafQgg2btzI2rVrmTNnDo888gh5eXnJHpZEMiakoEskEiBiNW/dujVaera1tZWLL76Y8vJyzjzzTIxGY7KHGBdCoRC/+MUv+O1vf8udd97JrbfeKivxSQ5LpKBLJJJD0DSNTZs2sX79ep588kl8Ph+XXnopq1ev5pRTTkGv1yd7iDFh//79XH311TQ3N/P4449zwgknJHtIEsm4kYIukUiGJRwO869//StaelZVVVauXEl5eTlLliw5LNO4hBA8/fTT/Pd//zcrV67knnvuISUlJdnDkkgmhBR0iUQyaoLBIK+//jrr16/n2WefJTU1lZUrV7J69WoWLFhwWIi7y+Xijjvu4LnnnuP+++/ni1/8ogx8k0wJpKBLJJJx4fP5eOmll6ioqOD5558nNzc3Wld+3rx5k1IkP/roI9asWUNWVhaPPfYYpaWlyR6SRBIzpKBLJJIJ43K5eP7556moqOCll15ixowZ0bryM2bMSLq4h8Nh7r33Xu666y5uu+02vv/978umKpIphxR0iUQSUzo7O3n22WepqKjg1Vdf5ZhjjonWlS8sLEy4uDc0NPDVr36VXbt28eijj3LaaaclfYIhkcQDKegSiSQuCCFobW3lqaeeoqKign/961+ceOKJrFq1ipUrV5KTkxNXYRVC8PLLL/O1r32N008/nQceeID09PS4nU8iSTZS0CUSSdwRQlBfX88TTzzBE088waZNmzjllFMoLy/nC1/4AmlpaTEVd5/Pxw9+8AMeeeQRfvOb37B27drDImBPIpkIUtAlEklCEUKwf/9+NmzYwIYNG9i2bRtnn302ZWVlXHzxxaSmpk7o+Dt37mTNmjWoqsq6deuYN29ejEYukUxupKBLJJKkIYSgsrIyWnq2qqqK8847j7KyMi644AKsVuuoj6VpGg8//DDf+ta3uOaaa/j5z3+OyWSK4+glksmFFHSJRDIpEELwySefREvPNjQ0cOGFF1JWVsY555wzrDi3tbVx4403snHjRh566CEuuOACGfgmOeKQgi6RSCYdmqaxZcuWqLh3d3dz6aWXUl5ezmmnnRZNORNC8O9//5urr76ao446iocffpjc3Nwkj14iSQ5S0CUSyaRG0zTeeecd1q9fz1NPPYWmaaxYsYIVK1bw1ltvce+99/KTn/yEm2++WQa+SY5opKBLJJLDhlAoxJtvvsn69etZt24dJpOJV199lUWLFiV7aBJJ0pGCLpFIDksaGxvx+XyUlJQkeygSyaRACrpEIpFIJFMAueEkkUgkEskUQAq6RCKRSCRTACnoEolEIpFMAaSgSyQSiUQyBZCCLpFIJBLJFEAKukQikUgkUwAp6BKJRCKRTAGkoEskEolEMgWQgi6RSCQSyRRACrpEIpFIJFMAKegSiUQikUwBpKBLJBKJRDIFkIIukUgkEskUQAq6RCKRSCRTACnoEolEIpFMAaSgSyQSiUQyBZCCLpFIJBLJFEAKukQikUgkUwAp6BKJRCKRTAGkoEskEolEMgWQgi6RSCQSyRRACrpEIpFIJFMAKegSiUQikUwBpKBLJBKJRDIFkIIukUgkEskUQAq6RCKRSCRTACnoEolEIpFMAaSgSyQSiUQyBZCCLpFIJBLJFEAKukQikUgkUwAp6BKJRCKRTAGkoEskEolEMgWQgi6RSCQSyRRACrpEIpFIJFMAKegSiUQikUwBpKBLJBKJRDIFkIIukUgkEskUQAq6RCKRSCRTACnoEolEIpFMAaSgSyQSiUQyBZCCLpFIJBLJFEAKukQikUgkUwAp6BKJRCKRTAGkoEskEolEMgWQgi6RSCQSyRTg/wPUyHt8BKVDFAAAAABJRU5ErkJggg==;clipPath=inset(9.52% 0.67% 8.48% 0.33%);fontFamily=Computer Modern;fontSource=https%3A%2F%2Ffonts.googleapis.com%2Fcss%3Ffamily%3DComputer%2BModern;" vertex="1" parent="1">
          <mxGeometry y="130" width="500" height="398.98989898989896" as="geometry" />
        </mxCell>
        <mxCell id="AQZnUlRx57dekcM1xQn4-14" value="" style="group;fontFamily=Computer Modern;fontSource=https%3A%2F%2Ffonts.googleapis.com%2Fcss%3Ffamily%3DComputer%2BModern;" vertex="1" connectable="0" parent="1">
          <mxGeometry x="590" y="230" width="460" height="210" as="geometry" />
        </mxCell>
        <mxCell id="AQZnUlRx57dekcM1xQn4-5" value="&lt;h2&gt;&lt;font data-font-src=&quot;https://fonts.googleapis.com/css?family=Computer+Modern&quot;&gt;192&lt;/font&gt;&lt;br&gt;&lt;font data-font-src=&quot;https://fonts.googleapis.com/css?family=Computer+Modern&quot;&gt;131&lt;/font&gt;&lt;br&gt;&lt;font data-font-src=&quot;https://fonts.googleapis.com/css?family=Computer+Modern&quot;&gt;90 &lt;/font&gt;&lt;br&gt;&lt;font data-font-src=&quot;https://fonts.googleapis.com/css?family=Computer+Modern&quot;&gt;69 &lt;/font&gt;&lt;br&gt;&lt;font data-font-src=&quot;https://fonts.googleapis.com/css?family=Computer+Modern&quot;&gt;68 &lt;/font&gt;&lt;br&gt;&lt;font data-font-src=&quot;https://fonts.googleapis.com/css?family=Computer+Modern&quot;&gt;87 &lt;/font&gt;&lt;br&gt;&lt;font data-font-src=&quot;https://fonts.googleapis.com/css?family=Computer+Modern&quot;&gt;126&lt;/font&gt;&lt;br&gt;&lt;font data-font-src=&quot;https://fonts.googleapis.com/css?family=Computer+Modern&quot;&gt;185&lt;/font&gt;&lt;br&gt;&lt;font data-font-src=&quot;https://fonts.googleapis.com/css?family=Computer+Modern&quot;&gt;264&lt;/font&gt;&lt;/h2&gt;" style="text;html=1;align=center;verticalAlign=middle;whiteSpace=wrap;rounded=0;fontFamily=Computer Modern;fontSource=https%3A%2F%2Ffonts.googleapis.com%2Fcss%3Ffamily%3DComputer%2BModern;" vertex="1" parent="AQZnUlRx57dekcM1xQn4-14">
          <mxGeometry width="60" height="210" as="geometry" />
        </mxCell>
        <mxCell id="AQZnUlRx57dekcM1xQn4-6" value="&lt;h2&gt;255&lt;br&gt;194&lt;br&gt;153&lt;br&gt;132&lt;br&gt;131&lt;br&gt;150&lt;br&gt;189&lt;br&gt;248&lt;br&gt;327&lt;/h2&gt;" style="text;html=1;align=center;verticalAlign=middle;whiteSpace=wrap;rounded=0;fontFamily=Computer Modern;fontSource=https%3A%2F%2Ffonts.googleapis.com%2Fcss%3Ffamily%3DComputer%2BModern;" vertex="1" parent="AQZnUlRx57dekcM1xQn4-14">
          <mxGeometry x="50" width="60" height="210" as="geometry" />
        </mxCell>
        <mxCell id="AQZnUlRx57dekcM1xQn4-7" value="&lt;h2&gt;298&lt;br&gt;237&lt;br&gt;196&lt;br&gt;175&lt;br&gt;174&lt;br&gt;193&lt;br&gt;232&lt;br&gt;291&lt;br&gt;370&lt;/h2&gt;" style="text;html=1;align=center;verticalAlign=middle;whiteSpace=wrap;rounded=0;fontFamily=Computer Modern;fontSource=https%3A%2F%2Ffonts.googleapis.com%2Fcss%3Ffamily%3DComputer%2BModern;" vertex="1" parent="AQZnUlRx57dekcM1xQn4-14">
          <mxGeometry x="100" width="60" height="210" as="geometry" />
        </mxCell>
        <mxCell id="AQZnUlRx57dekcM1xQn4-8" value="&lt;h2&gt;321&lt;br&gt;260&lt;br&gt;219&lt;br&gt;198&lt;br&gt;197&lt;br&gt;216&lt;br&gt;255&lt;br&gt;314&lt;br&gt;393&lt;/h2&gt;" style="text;html=1;align=center;verticalAlign=middle;whiteSpace=wrap;rounded=0;fontFamily=Computer Modern;fontSource=https%3A%2F%2Ffonts.googleapis.com%2Fcss%3Ffamily%3DComputer%2BModern;" vertex="1" parent="AQZnUlRx57dekcM1xQn4-14">
          <mxGeometry x="150" width="60" height="210" as="geometry" />
        </mxCell>
        <mxCell id="AQZnUlRx57dekcM1xQn4-9" value="&lt;h2&gt;324&lt;br&gt;263&lt;br&gt;222&lt;br&gt;201&lt;br&gt;200&lt;br&gt;219&lt;br&gt;258&lt;br&gt;317&lt;br&gt;396&lt;/h2&gt;" style="text;html=1;align=center;verticalAlign=middle;whiteSpace=wrap;rounded=0;fontFamily=Computer Modern;fontSource=https%3A%2F%2Ffonts.googleapis.com%2Fcss%3Ffamily%3DComputer%2BModern;" vertex="1" parent="AQZnUlRx57dekcM1xQn4-14">
          <mxGeometry x="200" width="60" height="210" as="geometry" />
        </mxCell>
        <mxCell id="AQZnUlRx57dekcM1xQn4-10" value="&lt;h2&gt;307&lt;br&gt;246&lt;br&gt;205&lt;br&gt;184&lt;br&gt;183&lt;br&gt;202&lt;br&gt;241&lt;br&gt;300&lt;br&gt;379&lt;/h2&gt;" style="text;html=1;align=center;verticalAlign=middle;whiteSpace=wrap;rounded=0;fontFamily=Computer Modern;fontSource=https%3A%2F%2Ffonts.googleapis.com%2Fcss%3Ffamily%3DComputer%2BModern;" vertex="1" parent="AQZnUlRx57dekcM1xQn4-14">
          <mxGeometry x="250" width="60" height="210" as="geometry" />
        </mxCell>
        <mxCell id="AQZnUlRx57dekcM1xQn4-11" value="&lt;h2&gt;156&lt;br&gt;75&lt;br&gt;34&lt;br&gt;13&lt;br&gt;12&lt;br&gt;31&lt;br&gt;70&lt;br&gt;129&lt;br&gt;208&lt;/h2&gt;" style="text;html=1;align=center;verticalAlign=middle;whiteSpace=wrap;rounded=0;fontFamily=Computer Modern;fontSource=https%3A%2F%2Ffonts.googleapis.com%2Fcss%3Ffamily%3DComputer%2BModern;" vertex="1" parent="AQZnUlRx57dekcM1xQn4-14">
          <mxGeometry x="400" width="60" height="210" as="geometry" />
        </mxCell>
        <mxCell id="AQZnUlRx57dekcM1xQn4-12" value="&lt;h2&gt;270&lt;br&gt;209&lt;br&gt;168&lt;br&gt;147&lt;br&gt;146&lt;br&gt;165&lt;br&gt;204&lt;br&gt;263&lt;br&gt;342&lt;/h2&gt;" style="text;html=1;align=center;verticalAlign=middle;whiteSpace=wrap;rounded=0;fontFamily=Computer Modern;fontSource=https%3A%2F%2Ffonts.googleapis.com%2Fcss%3Ffamily%3DComputer%2BModern;" vertex="1" parent="AQZnUlRx57dekcM1xQn4-14">
          <mxGeometry x="300" width="60" height="210" as="geometry" />
        </mxCell>
        <mxCell id="AQZnUlRx57dekcM1xQn4-13" value="&lt;h2&gt;213&lt;br&gt;152&lt;br&gt;111&lt;br&gt;90 &lt;br&gt;89 &lt;br&gt;108&lt;br&gt;147&lt;br&gt;206&lt;br&gt;285&lt;/h2&gt;" style="text;html=1;align=center;verticalAlign=middle;whiteSpace=wrap;rounded=0;fontFamily=Computer Modern;fontSource=https%3A%2F%2Ffonts.googleapis.com%2Fcss%3Ffamily%3DComputer%2BModern;" vertex="1" parent="AQZnUlRx57dekcM1xQn4-14">
          <mxGeometry x="350" width="60" height="210" as="geometry" />
        </mxCell>
        <mxCell id="AQZnUlRx57dekcM1xQn4-19" value="" style="strokeWidth=2;html=1;shape=mxgraph.flowchart.annotation_1;align=left;pointerEvents=1;rotation=-180;" vertex="1" parent="AQZnUlRx57dekcM1xQn4-14">
          <mxGeometry x="450" y="10" width="10" height="190" as="geometry" />
        </mxCell>
        <mxCell id="AQZnUlRx57dekcM1xQn4-15" value="&lt;h1 style=&quot;font-size: 59px;&quot;&gt;&lt;i&gt;&lt;font size=&quot;1&quot; face=&quot;Computer Modern&quot; data-font-src=&quot;https://fonts.googleapis.com/css?family=Computer+Modern&quot;&gt;&lt;span style=&quot;font-weight: normal; font-size: 40px;&quot;&gt;A=&lt;/span&gt;&lt;/font&gt;&lt;/i&gt;&lt;/h1&gt;" style="text;html=1;align=center;verticalAlign=middle;whiteSpace=wrap;rounded=0;fontSize=60;" vertex="1" parent="1">
          <mxGeometry x="520" y="314.49" width="60" height="30" as="geometry" />
        </mxCell>
        <mxCell id="AQZnUlRx57dekcM1xQn4-18" value="" style="strokeWidth=2;html=1;shape=mxgraph.flowchart.annotation_1;align=left;pointerEvents=1;" vertex="1" parent="1">
          <mxGeometry x="590" y="240" width="10" height="190" as="geometry" />
        </mxCell>
      </root>
    </mxGraphModel>
  </diagram>
  <diagram id="47wMhh_SIzc_dnjJEYzU" name="Page-2">
    <mxGraphModel dx="1434" dy="754" grid="1" gridSize="10" guides="1" tooltips="1" connect="1" arrows="1" fold="1" page="1" pageScale="1" pageWidth="827" pageHeight="1169" math="1" shadow="0">
      <root>
        <mxCell id="0" />
        <mxCell id="1" parent="0" />
        <mxCell id="oQNtJaRsvCqQ14BNb6VX-1" value="" style="rounded=0;whiteSpace=wrap;html=1;" vertex="1" parent="1">
          <mxGeometry x="400" y="120" width="200" height="200" as="geometry" />
        </mxCell>
        <mxCell id="oQNtJaRsvCqQ14BNb6VX-2" value="" style="rounded=0;whiteSpace=wrap;html=1;" vertex="1" parent="1">
          <mxGeometry x="530" y="120" width="40" height="200" as="geometry" />
        </mxCell>
        <mxCell id="oQNtJaRsvCqQ14BNb6VX-3" value="" style="rounded=0;whiteSpace=wrap;html=1;" vertex="1" parent="1">
          <mxGeometry x="400" y="150" width="200" height="40" as="geometry" />
        </mxCell>
        <mxCell id="oQNtJaRsvCqQ14BNb6VX-5" value="" style="rounded=0;whiteSpace=wrap;html=1;" vertex="1" parent="1">
          <mxGeometry x="530" y="150" width="40" height="40" as="geometry" />
        </mxCell>
        <mxCell id="oQNtJaRsvCqQ14BNb6VX-6" value="&lt;div&gt;$$a_{ij}$$&lt;/div&gt;" style="text;html=1;align=center;verticalAlign=middle;whiteSpace=wrap;rounded=0;fontSize=22;" vertex="1" parent="1">
          <mxGeometry x="430" y="155" width="60" height="30" as="geometry" />
        </mxCell>
        <mxCell id="oQNtJaRsvCqQ14BNb6VX-7" value="&lt;div&gt;$$a_{il}$$&lt;/div&gt;&lt;h3 style=&quot;font-size: 22px;&quot;&gt;&lt;/h3&gt;" style="text;html=1;align=center;verticalAlign=middle;whiteSpace=wrap;rounded=0;fontSize=22;" vertex="1" parent="1">
          <mxGeometry x="520" y="155" width="60" height="30" as="geometry" />
        </mxCell>
        <mxCell id="oQNtJaRsvCqQ14BNb6VX-8" value="&lt;div&gt;$$a_{kl}$$&lt;/div&gt;" style="text;html=1;align=center;verticalAlign=middle;whiteSpace=wrap;rounded=0;fontSize=22;" vertex="1" parent="1">
          <mxGeometry x="520" y="270" width="60" height="30" as="geometry" />
        </mxCell>
        <mxCell id="oQNtJaRsvCqQ14BNb6VX-14" value="&lt;div style=&quot;font-size: 21px;&quot;&gt;$$\geq$$&lt;/div&gt;" style="text;html=1;align=center;verticalAlign=middle;whiteSpace=wrap;rounded=0;fontSize=21;" vertex="1" parent="1">
          <mxGeometry x="480" y="155" width="50" height="30" as="geometry" />
        </mxCell>
        <mxCell id="oQNtJaRsvCqQ14BNb6VX-15" value="&lt;div style=&quot;font-size: 21px;&quot;&gt;$$\leq$$&lt;/div&gt;" style="text;html=1;align=center;verticalAlign=middle;whiteSpace=wrap;rounded=0;fontSize=21;rotation=90;" vertex="1" parent="1">
          <mxGeometry x="520" y="220" width="60" height="30" as="geometry" />
        </mxCell>
        <mxCell id="oQNtJaRsvCqQ14BNb6VX-16" value="&lt;div style=&quot;font-size: 21px;&quot;&gt;$$\leq$$&lt;/div&gt;" style="text;html=1;align=center;verticalAlign=middle;whiteSpace=wrap;rounded=0;fontSize=21;rotation=45;" vertex="1" parent="1">
          <mxGeometry x="470" y="220" width="50" height="30" as="geometry" />
        </mxCell>
      </root>
    </mxGraphModel>
  </diagram>
  <diagram id="uRUMeBytuvXVjPPwu7bP" name="Page-3">
    <mxGraphModel dx="819" dy="403" grid="1" gridSize="10" guides="1" tooltips="1" connect="1" arrows="1" fold="1" page="1" pageScale="1" pageWidth="827" pageHeight="1169" math="0" shadow="0">
      <root>
        <mxCell id="0" />
        <mxCell id="1" parent="0" />
        <mxCell id="dgnjMhG3HlipHFT8wsC9-12" value="&lt;h1 style=&quot;font-size: 59px;&quot;&gt;&lt;i&gt;&lt;font size=&quot;1&quot; face=&quot;Computer Modern&quot; data-font-src=&quot;https://fonts.googleapis.com/css?family=Computer+Modern&quot;&gt;&lt;span style=&quot;font-weight: normal; font-size: 40px;&quot;&gt;A=&lt;/span&gt;&lt;/font&gt;&lt;/i&gt;&lt;/h1&gt;" style="text;html=1;align=center;verticalAlign=middle;whiteSpace=wrap;rounded=0;fontSize=60;" vertex="1" parent="1">
          <mxGeometry x="50" y="330" width="60" height="30" as="geometry" />
        </mxCell>
        <mxCell id="dgnjMhG3HlipHFT8wsC9-5" value="&lt;h2&gt;3&lt;br&gt;3&lt;br&gt;1&lt;br&gt;2&lt;br&gt;&lt;/h2&gt;" style="text;html=1;align=center;verticalAlign=middle;whiteSpace=wrap;rounded=0;fontFamily=Computer Modern;fontSource=https%3A%2F%2Ffonts.googleapis.com%2Fcss%3Ffamily%3DComputer%2BModern;" vertex="1" parent="1">
          <mxGeometry x="119.99999999999994" y="304" width="27.39" height="82" as="geometry" />
        </mxCell>
        <mxCell id="dgnjMhG3HlipHFT8wsC9-13" value="" style="strokeWidth=2;html=1;shape=mxgraph.flowchart.annotation_1;align=left;pointerEvents=1;" vertex="1" parent="1">
          <mxGeometry x="120" y="300" width="10" height="90" as="geometry" />
        </mxCell>
        <mxCell id="dgnjMhG3HlipHFT8wsC9-15" value="" style="strokeWidth=2;html=1;shape=mxgraph.flowchart.annotation_1;align=left;pointerEvents=1;rotation=-180;" vertex="1" parent="1">
          <mxGeometry x="217.39" y="300" width="10" height="90" as="geometry" />
        </mxCell>
        <mxCell id="dgnjMhG3HlipHFT8wsC9-16" value="&lt;h2&gt;4&lt;br&gt;4&lt;br&gt;3&lt;br&gt;3&lt;/h2&gt;" style="text;html=1;align=center;verticalAlign=middle;whiteSpace=wrap;rounded=0;fontFamily=Computer Modern;fontSource=https%3A%2F%2Ffonts.googleapis.com%2Fcss%3Ffamily%3DComputer%2BModern;" vertex="1" parent="1">
          <mxGeometry x="140" y="304" width="27.39" height="82" as="geometry" />
        </mxCell>
        <mxCell id="dgnjMhG3HlipHFT8wsC9-17" value="&lt;h2&gt;7&lt;br&gt;7&lt;br&gt;4&lt;br&gt;2&lt;/h2&gt;" style="text;html=1;align=center;verticalAlign=middle;whiteSpace=wrap;rounded=0;fontFamily=Computer Modern;fontSource=https%3A%2F%2Ffonts.googleapis.com%2Fcss%3Ffamily%3DComputer%2BModern;" vertex="1" parent="1">
          <mxGeometry x="179.99999999999994" y="304" width="27.39" height="82" as="geometry" />
        </mxCell>
        <mxCell id="dgnjMhG3HlipHFT8wsC9-18" value="&lt;h2&gt;1&lt;br&gt;0&lt;br&gt;5&lt;br&gt;7&lt;/h2&gt;" style="text;html=1;align=center;verticalAlign=middle;whiteSpace=wrap;rounded=0;fontFamily=Computer Modern;fontSource=https%3A%2F%2Ffonts.googleapis.com%2Fcss%3Ffamily%3DComputer%2BModern;" vertex="1" parent="1">
          <mxGeometry x="159.99999999999994" y="304" width="27.39" height="82" as="geometry" />
        </mxCell>
        <mxCell id="dgnjMhG3HlipHFT8wsC9-19" value="&lt;h2&gt;1&lt;br&gt;4&lt;br&gt;3&lt;br&gt;6&lt;/h2&gt;" style="text;html=1;align=center;verticalAlign=middle;whiteSpace=wrap;rounded=0;fontFamily=Computer Modern;fontSource=https%3A%2F%2Ffonts.googleapis.com%2Fcss%3Ffamily%3DComputer%2BModern;" vertex="1" parent="1">
          <mxGeometry x="199.9999999999999" y="304" width="27.39" height="82" as="geometry" />
        </mxCell>
        <mxCell id="dgnjMhG3HlipHFT8wsC9-27" value="&lt;h2&gt;1&lt;br&gt;2&lt;br&gt;0&lt;br&gt;2&lt;/h2&gt;" style="text;html=1;align=center;verticalAlign=middle;whiteSpace=wrap;rounded=0;fontFamily=Computer Modern;fontSource=https%3A%2F%2Ffonts.googleapis.com%2Fcss%3Ffamily%3DComputer%2BModern;" vertex="1" parent="1">
          <mxGeometry x="329.99999999999994" y="304" width="27.39" height="82" as="geometry" />
        </mxCell>
        <mxCell id="dgnjMhG3HlipHFT8wsC9-28" value="&lt;h2&gt;6&lt;br&gt;7&lt;br&gt;&lt;font color=&quot;#008000&quot;&gt;4&lt;/font&gt;&lt;br&gt;8&lt;/h2&gt;" style="text;html=1;align=center;verticalAlign=middle;whiteSpace=wrap;rounded=0;fontFamily=Computer Modern;fontSource=https%3A%2F%2Ffonts.googleapis.com%2Fcss%3Ffamily%3DComputer%2BModern;" vertex="1" parent="1">
          <mxGeometry x="350" y="304" width="27.39" height="82" as="geometry" />
        </mxCell>
        <mxCell id="dgnjMhG3HlipHFT8wsC9-29" value="&lt;h2&gt;5&lt;br&gt;7&lt;br&gt;&lt;font color=&quot;#008000&quot;&gt;4&lt;/font&gt;&lt;br&gt;5&lt;/h2&gt;" style="text;html=1;align=center;verticalAlign=middle;whiteSpace=wrap;rounded=0;fontFamily=Computer Modern;fontSource=https%3A%2F%2Ffonts.googleapis.com%2Fcss%3Ffamily%3DComputer%2BModern;" vertex="1" parent="1">
          <mxGeometry x="389.99999999999994" y="304" width="27.39" height="82" as="geometry" />
        </mxCell>
        <mxCell id="dgnjMhG3HlipHFT8wsC9-30" value="&lt;h2&gt;2&lt;br&gt;0&lt;br&gt;0&lt;br&gt;4&lt;/h2&gt;" style="text;html=1;align=center;verticalAlign=middle;whiteSpace=wrap;rounded=0;fontFamily=Computer Modern;fontSource=https%3A%2F%2Ffonts.googleapis.com%2Fcss%3Ffamily%3DComputer%2BModern;" vertex="1" parent="1">
          <mxGeometry x="369.99999999999994" y="304" width="27.39" height="82" as="geometry" />
        </mxCell>
        <mxCell id="dgnjMhG3HlipHFT8wsC9-31" value="&lt;h2&gt;3&lt;br&gt;6&lt;br&gt;3&lt;br&gt;1&lt;/h2&gt;" style="text;html=1;align=center;verticalAlign=middle;whiteSpace=wrap;rounded=0;fontFamily=Computer Modern;fontSource=https%3A%2F%2Ffonts.googleapis.com%2Fcss%3Ffamily%3DComputer%2BModern;" vertex="1" parent="1">
          <mxGeometry x="409.9999999999999" y="304" width="27.39" height="82" as="geometry" />
        </mxCell>
        <mxCell id="dgnjMhG3HlipHFT8wsC9-32" value="&lt;h2&gt;5&lt;br&gt;5&lt;br&gt;6&lt;br&gt;2&lt;/h2&gt;" style="text;html=1;align=center;verticalAlign=middle;whiteSpace=wrap;rounded=0;fontFamily=Computer Modern;fontSource=https%3A%2F%2Ffonts.googleapis.com%2Fcss%3Ffamily%3DComputer%2BModern;" vertex="1" parent="1">
          <mxGeometry x="540" y="304" width="27.39" height="82" as="geometry" />
        </mxCell>
        <mxCell id="dgnjMhG3HlipHFT8wsC9-33" value="&lt;h2&gt;4&lt;br&gt;4&lt;br&gt;5&lt;br&gt;1&lt;/h2&gt;" style="text;html=1;align=center;verticalAlign=middle;whiteSpace=wrap;rounded=0;fontFamily=Computer Modern;fontSource=https%3A%2F%2Ffonts.googleapis.com%2Fcss%3Ffamily%3DComputer%2BModern;" vertex="1" parent="1">
          <mxGeometry x="560" y="304" width="27.39" height="82" as="geometry" />
        </mxCell>
        <mxCell id="dgnjMhG3HlipHFT8wsC9-34" value="&lt;h2&gt;0&lt;br&gt;4&lt;br&gt;3&lt;br&gt;2&lt;/h2&gt;" style="text;html=1;align=center;verticalAlign=middle;whiteSpace=wrap;rounded=0;fontFamily=Computer Modern;fontSource=https%3A%2F%2Ffonts.googleapis.com%2Fcss%3Ffamily%3DComputer%2BModern;" vertex="1" parent="1">
          <mxGeometry x="600" y="304" width="27.39" height="82" as="geometry" />
        </mxCell>
        <mxCell id="dgnjMhG3HlipHFT8wsC9-35" value="&lt;h2&gt;7&lt;br&gt;6&lt;br&gt;5&lt;br&gt;&lt;font color=&quot;#008000&quot;&gt;4&lt;/font&gt;&lt;/h2&gt;" style="text;html=1;align=center;verticalAlign=middle;whiteSpace=wrap;rounded=0;fontFamily=Computer Modern;fontSource=https%3A%2F%2Ffonts.googleapis.com%2Fcss%3Ffamily%3DComputer%2BModern;" vertex="1" parent="1">
          <mxGeometry x="580" y="304" width="27.39" height="82" as="geometry" />
        </mxCell>
        <mxCell id="dgnjMhG3HlipHFT8wsC9-37" value="&lt;h1 style=&quot;font-size: 59px;&quot;&gt;&lt;i&gt;&lt;font size=&quot;1&quot; face=&quot;Computer Modern&quot; data-font-src=&quot;https://fonts.googleapis.com/css?family=Computer+Modern&quot;&gt;&lt;span style=&quot;font-weight: normal; font-size: 40px;&quot;&gt;B=&lt;/span&gt;&lt;/font&gt;&lt;/i&gt;&lt;/h1&gt;" style="text;html=1;align=center;verticalAlign=middle;whiteSpace=wrap;rounded=0;fontSize=60;" vertex="1" parent="1">
          <mxGeometry x="260" y="330" width="60" height="30" as="geometry" />
        </mxCell>
        <mxCell id="dgnjMhG3HlipHFT8wsC9-39" value="" style="strokeWidth=2;html=1;shape=mxgraph.flowchart.annotation_1;align=left;pointerEvents=1;" vertex="1" parent="1">
          <mxGeometry x="330" y="300" width="10" height="90" as="geometry" />
        </mxCell>
        <mxCell id="dgnjMhG3HlipHFT8wsC9-40" value="" style="strokeWidth=2;html=1;shape=mxgraph.flowchart.annotation_1;align=left;pointerEvents=1;rotation=-180;" vertex="1" parent="1">
          <mxGeometry x="427.39" y="300" width="10" height="90" as="geometry" />
        </mxCell>
        <mxCell id="dgnjMhG3HlipHFT8wsC9-51" value="&lt;h1 style=&quot;font-size: 59px;&quot;&gt;&lt;i&gt;&lt;font size=&quot;1&quot; face=&quot;Computer Modern&quot; data-font-src=&quot;https://fonts.googleapis.com/css?family=Computer+Modern&quot;&gt;&lt;span style=&quot;font-weight: normal; font-size: 40px;&quot;&gt;C=&lt;/span&gt;&lt;/font&gt;&lt;/i&gt;&lt;/h1&gt;" style="text;html=1;align=center;verticalAlign=middle;whiteSpace=wrap;rounded=0;fontSize=60;" vertex="1" parent="1">
          <mxGeometry x="470" y="330" width="60" height="30" as="geometry" />
        </mxCell>
        <mxCell id="dgnjMhG3HlipHFT8wsC9-52" value="" style="strokeWidth=2;html=1;shape=mxgraph.flowchart.annotation_1;align=left;pointerEvents=1;" vertex="1" parent="1">
          <mxGeometry x="540" y="300" width="10" height="90" as="geometry" />
        </mxCell>
        <mxCell id="dgnjMhG3HlipHFT8wsC9-53" value="" style="strokeWidth=2;html=1;shape=mxgraph.flowchart.annotation_1;align=left;pointerEvents=1;rotation=-180;" vertex="1" parent="1">
          <mxGeometry x="617.39" y="300" width="10" height="90" as="geometry" />
        </mxCell>
      </root>
    </mxGraphModel>
  </diagram>
</mxfile>
